<svg xmlns="http://www.w3.org/2000/svg" xmlns:xlink="http://www.w3.org/1999/xlink" width="1200" zoomAndPan="magnify" viewBox="0 0 900 470.999988" height="628" preserveAspectRatio="xMidYMid meet" version="1.0"><defs><clipPath id="id1"><path d="M 400 276 L 583 276 L 583 400.445312 L 400 400.445312 Z M 400 276 " clip-rule="nonzero"/></clipPath><clipPath id="id2"><path d="M 395 178 L 586.960938 178 L 586.960938 400.445312 L 395 400.445312 Z M 395 178 " clip-rule="nonzero"/></clipPath><clipPath id="id3"><path d="M 313.210938 70.445312 L 528 70.445312 L 528 213 L 313.210938 213 Z M 313.210938 70.445312 " clip-rule="nonzero"/></clipPath></defs><path fill="rgb(95.289612%, 36.859131%, 32.159424%)" d="M 354.65625 80.746094 L 354.65625 147.738281 L 323.707031 147.738281 L 323.707031 80.746094 L 354.65625 80.746094 " fill-opacity="1" fill-rule="nonzero"/><g clip-path="url(#id1)"><path fill="rgb(95.289612%, 36.859131%, 32.159424%)" d="M 426.875 278.722656 C 426.875 278.722656 397.210938 284.734375 401.082031 324.675781 C 404.949219 364.613281 405.710938 400.25 405.710938 400.25 L 577.273438 400.257812 L 582.914062 310.933594 C 582.914062 310.933594 579.046875 278.292969 553.253906 277.007812 C 527.460938 275.71875 426.875 278.722656 426.875 278.722656 " fill-opacity="1" fill-rule="nonzero"/></g><path fill="rgb(98.81897%, 85.099792%, 39.608765%)" d="M 524.882812 213.449219 C 524.882812 231.585938 510.15625 246.300781 492 246.300781 C 476.882812 246.300781 464.191406 236.097656 460.351562 222.234375 C 460.917969 222.183594 461.460938 222.105469 462 221.976562 C 462.257812 221.925781 462.515625 221.871094 462.773438 221.820312 C 463.316406 221.71875 463.832031 221.589844 464.347656 221.4375 C 465.042969 221.253906 465.738281 221.023438 466.410156 220.765625 C 467.003906 220.558594 467.574219 220.351562 468.113281 220.09375 C 469.6875 219.398438 471.183594 218.546875 472.601562 217.570312 L 477.605469 214.089844 C 481.550781 211.332031 486.582031 205.589844 486.167969 194.535156 C 486.117188 192.988281 485.9375 191.316406 485.628906 189.511719 C 485.238281 187.113281 484.59375 184.511719 483.691406 181.703125 C 486.347656 181.007812 489.109375 180.59375 492 180.59375 C 510.15625 180.59375 524.882812 195.308594 524.882812 213.449219 " fill-opacity="1" fill-rule="nonzero"/><path fill="rgb(17.248535%, 23.919678%, 32.548523%)" d="M 339.179688 127.125 C 336.332031 127.125 334.023438 129.433594 334.023438 132.28125 C 334.023438 135.128906 336.332031 137.433594 339.179688 137.433594 C 342.03125 137.433594 344.339844 135.128906 344.339844 132.28125 C 344.339844 129.433594 342.03125 127.125 339.179688 127.125 " fill-opacity="1" fill-rule="nonzero"/><path fill="rgb(17.248535%, 23.919678%, 32.548523%)" d="M 491.351562 299.769531 C 467.132812 299.769531 447.507812 319.375 447.507812 343.570312 C 447.507812 367.765625 467.132812 387.375 491.351562 387.375 C 515.570312 387.375 535.199219 367.765625 535.199219 343.570312 C 535.199219 319.375 515.570312 299.769531 491.351562 299.769531 M 491.351562 377.070312 C 472.859375 377.070312 457.824219 362.046875 457.824219 343.570312 C 457.824219 325.097656 472.859375 310.074219 491.351562 310.074219 C 509.847656 310.074219 524.882812 325.097656 524.882812 343.570312 C 524.882812 362.046875 509.847656 377.070312 491.351562 377.070312 " fill-opacity="1" fill-rule="nonzero"/><path fill="rgb(98.81897%, 85.099792%, 39.608765%)" d="M 524.882812 343.570312 C 524.882812 362.046875 509.84375 377.070312 491.351562 377.070312 C 472.859375 377.070312 457.820312 362.046875 457.820312 343.570312 C 457.820312 325.097656 472.859375 310.074219 491.351562 310.074219 C 509.84375 310.074219 524.882812 325.097656 524.882812 343.570312 " fill-opacity="1" fill-rule="nonzero"/><path fill="rgb(89.408875%, 93.328857%, 96.469116%)" d="M 423.648438 173.507812 L 442.347656 198.308594 L 454.921875 206.039062 L 471.367188 199.273438 L 465.238281 179.625 L 447.507812 157.726562 L 452.34375 134.855469 L 478.136719 134.855469 L 494.898438 151.285156 L 493.703125 168.472656 C 502.410156 168.910156 510.507812 171.671875 517.308594 176.230469 L 522.949219 134.535156 L 474.910156 83.96875 L 359.167969 83.96875 L 359.167969 145.164062 L 387.21875 145.164062 C 387.21875 145.164062 408.820312 172.863281 423.648438 173.507812 " fill-opacity="1" fill-rule="nonzero"/><path fill="rgb(89.408875%, 93.328857%, 96.469116%)" d="M 535.199219 262.714844 C 535.199219 265.523438 537.519531 267.816406 540.359375 267.816406 L 551.988281 267.816406 L 551.988281 272.890625 L 430.714844 272.890625 L 430.714844 267.816406 L 442.347656 267.816406 C 445.1875 267.816406 447.507812 265.523438 447.507812 262.714844 C 447.507812 259.90625 445.1875 257.613281 442.347656 257.613281 L 430.714844 257.613281 L 430.714844 254.492188 C 430.714844 251.996094 432.882812 249.984375 435.539062 249.984375 L 547.167969 249.984375 C 549.820312 249.984375 551.988281 251.996094 551.988281 254.492188 L 551.988281 257.613281 L 540.359375 257.613281 C 537.519531 257.613281 535.199219 259.90625 535.199219 262.714844 " fill-opacity="1" fill-rule="nonzero"/><path fill="rgb(17.248535%, 23.919678%, 32.548523%)" d="M 493.171875 339.640625 C 490.742188 338.835938 489.554688 338.367188 489.105469 337.511719 C 488.707031 336.753906 488.664062 335.691406 489.011719 335.078125 C 489.617188 334.003906 491.449219 334.089844 492.324219 334.277344 C 492.585938 334.335938 492.914062 334.5 493.226562 334.734375 C 495.515625 336.429688 498.746094 335.960938 500.449219 333.675781 C 502.148438 331.390625 501.671875 328.164062 499.386719 326.464844 C 498.441406 325.761719 497.429688 325.253906 496.390625 324.839844 L 496.390625 322.957031 C 496.390625 320.109375 494.082031 317.800781 491.230469 317.800781 C 488.382812 317.800781 486.074219 320.109375 486.074219 322.957031 L 486.074219 324.78125 C 483.527344 325.789062 481.398438 327.574219 480.027344 330.015625 C 477.941406 333.691406 477.921875 338.402344 479.964844 342.289062 C 482.394531 346.9375 486.75 348.371094 489.933594 349.425781 C 493.144531 350.484375 493.632812 350.847656 493.875 351.71875 C 494.195312 352.878906 492.996094 353.488281 492.992188 353.488281 C 491.964844 354 490.539062 353.789062 489.375 352.957031 C 487.054688 351.300781 483.835938 351.835938 482.179688 354.15625 C 480.523438 356.46875 481.058594 359.6875 483.378906 361.339844 C 484.234375 361.953125 485.144531 362.421875 486.074219 362.832031 L 486.074219 364.183594 C 486.074219 367.027344 488.382812 369.335938 491.230469 369.335938 C 494.082031 369.335938 496.390625 367.027344 496.390625 364.183594 L 496.390625 363.222656 C 496.789062 363.074219 497.183594 362.914062 497.570312 362.726562 C 502.679688 360.195312 505.308594 354.421875 503.824219 348.984375 C 502.042969 342.566406 496.703125 340.804688 493.171875 339.640625 " fill-opacity="1" fill-rule="nonzero"/><g clip-path="url(#id2)"><path fill="rgb(17.248535%, 23.919678%, 32.548523%)" d="M 562.308594 274.464844 L 562.308594 254.496094 C 562.308594 246.378906 555.523438 239.78125 547.167969 239.78125 L 516.578125 239.78125 C 523.285156 233.3125 527.460938 224.292969 527.460938 214.324219 C 527.460938 205.941406 524.5 198.242188 519.578125 192.144531 L 519.464844 192.003906 C 519.011719 191.453125 518.535156 190.925781 518.054688 190.402344 C 517.859375 190.1875 517.667969 189.972656 517.46875 189.765625 C 517.023438 189.300781 516.5625 188.859375 516.09375 188.421875 C 515.78125 188.132812 515.464844 187.84375 515.140625 187.566406 C 514.71875 187.199219 514.296875 186.832031 513.859375 186.484375 C 513.386719 186.113281 512.898438 185.761719 512.410156 185.414062 C 512.082031 185.179688 511.765625 184.933594 511.433594 184.710938 L 511.347656 184.652344 C 507.765625 182.289062 503.726562 180.5625 499.402344 179.585938 L 499.214844 179.542969 C 496.925781 179.039062 494.652344 178.785156 492.425781 178.714844 C 492.066406 178.707031 491.714844 178.660156 491.355469 178.660156 L 491.347656 178.660156 C 488.152344 178.660156 485.082031 179.101562 482.144531 179.875 C 482.820312 181.605469 483.417969 183.292969 483.933594 184.929688 C 484.371094 186.332031 484.707031 187.652344 485.007812 188.941406 C 485.058594 189.160156 485.140625 189.394531 485.1875 189.613281 C 487.175781 189.121094 489.210938 188.839844 491.351562 188.839844 C 505.566406 188.839844 517.144531 200.28125 517.144531 214.324219 C 517.144531 228.367188 505.566406 239.78125 491.351562 239.78125 C 480.082031 239.78125 470.488281 232.59375 467.003906 222.621094 C 466.828125 221.910156 466.625 221.316406 466.40625 220.777344 C 463.410156 221.878906 460.238281 222.464844 456.996094 222.464844 C 456.722656 222.464844 456.453125 222.429688 456.179688 222.421875 C 456.386719 223.167969 456.597656 223.921875 456.742188 224.449219 C 458.519531 230.351562 461.820312 235.605469 466.152344 239.78125 L 435.539062 239.78125 C 427.183594 239.78125 420.398438 246.378906 420.398438 254.496094 L 420.398438 274.464844 C 412.996094 278.277344 395.921875 289.667969 395.921875 313.347656 L 395.921875 313.605469 L 400.28125 395.441406 C 400.4375 398.25 402.910156 400.441406 405.699219 400.257812 C 408.5625 400.105469 410.726562 397.707031 410.597656 394.898438 L 406.238281 313.21875 C 406.316406 293.96875 421.277344 285.339844 425.996094 283.097656 L 556.683594 283.097656 C 561.328125 285.3125 576.390625 294.019531 576.46875 313.21875 L 572.105469 394.898438 C 571.980469 397.707031 574.144531 400.105469 577.007812 400.257812 L 577.265625 400.257812 C 580 400.257812 582.269531 398.144531 582.425781 395.441406 L 586.78125 313.605469 L 586.78125 313.347656 C 586.78125 289.667969 569.707031 278.277344 562.308594 274.464844 M 551.988281 257.613281 L 540.359375 257.613281 C 537.519531 257.613281 535.199219 259.90625 535.199219 262.714844 C 535.199219 265.523438 537.519531 267.816406 540.359375 267.816406 L 551.988281 267.816406 L 551.988281 272.890625 L 430.714844 272.890625 L 430.714844 267.816406 L 442.347656 267.816406 C 445.1875 267.816406 447.507812 265.523438 447.507812 262.714844 C 447.507812 259.90625 445.1875 257.613281 442.347656 257.613281 L 430.714844 257.613281 L 430.714844 254.496094 C 430.714844 251.996094 432.882812 249.984375 435.539062 249.984375 L 547.167969 249.984375 C 549.820312 249.984375 551.988281 251.996094 551.988281 254.496094 L 551.988281 257.613281 " fill-opacity="1" fill-rule="nonzero"/></g><g clip-path="url(#id3)"><path fill="rgb(17.248535%, 23.919678%, 32.548523%)" d="M 419.933594 177.527344 L 444.050781 206.207031 C 447.324219 210.097656 452.121094 212.160156 457 212.160156 C 460.375 212.160156 463.757812 211.152344 466.695312 209.117188 L 471.699219 205.640625 C 474.988281 203.347656 475.976562 199.414062 475.839844 195.152344 L 475.105469 191.8125 C 474.578125 189.386719 473.714844 186.632812 472.535156 183.625 L 469.574219 176.058594 L 453.773438 157.660156 L 455.734375 138.851562 L 475.722656 136.917969 L 491.121094 154.234375 L 491.121094 168.363281 C 491.199219 168.363281 491.273438 168.355469 491.351562 168.355469 C 494.820312 168.355469 498.183594 168.761719 501.4375 169.480469 L 501.4375 152.277344 C 501.4375 151.015625 500.972656 149.777344 500.144531 148.851562 L 481.707031 128.105469 C 480.597656 126.871094 479 126.226562 477.347656 126.40625 L 451.425781 128.929688 C 450.109375 129.0625 448.949219 129.679688 448.125 130.605469 C 446.886719 131.429688 446.011719 132.746094 445.855469 134.320312 L 443.277344 158.792969 C 443.121094 160.1875 443.558594 161.605469 444.488281 162.6875 L 462.414062 183.558594 C 464.660156 189.019531 466.074219 195.4375 465.457031 197.421875 L 460.789062 200.667969 C 458.027344 202.601562 454.082031 202.109375 451.941406 199.585938 L 426.921875 169.824219 C 426.28125 169.050781 425.453125 168.507812 424.5 168.199219 C 424.320312 168.148438 405.078125 162.015625 389.472656 142.332031 C 388.492188 141.09375 387 140.371094 385.425781 140.371094 L 364.972656 140.371094 L 364.972656 91.054688 L 474.742188 91.054688 C 476.574219 91.054688 478.300781 91.828125 479.488281 93.167969 L 515.699219 134.574219 C 516.625 135.628906 517.144531 136.996094 517.144531 138.363281 L 517.144531 176.128906 C 521.042969 178.71875 524.515625 181.886719 527.460938 185.496094 L 527.460938 138.363281 C 527.460938 134.496094 526.042969 130.734375 523.460938 127.796875 L 487.25 86.390625 C 484.101562 82.808594 479.539062 80.75 474.742188 80.75 L 364.972656 80.75 C 364.972656 75.054688 360.355469 70.441406 354.65625 70.441406 L 323.703125 70.441406 C 318.003906 70.441406 313.386719 75.054688 313.386719 80.75 L 313.386719 147.742188 C 313.386719 153.4375 318.003906 158.046875 323.703125 158.046875 L 354.65625 158.046875 C 359.324219 158.046875 363.21875 154.933594 364.480469 150.679688 L 382.976562 150.679688 C 397.777344 168.332031 414.800781 175.625 419.933594 177.527344 M 354.65625 147.742188 L 323.703125 147.742188 L 323.703125 80.75 L 354.65625 80.75 L 354.65625 147.742188 " fill-opacity="1" fill-rule="nonzero"/></g><path fill="rgb(83.918762%, 72.158813%, 33.729553%)" d="M 517.144531 214.324219 C 517.144531 215.175781 517.09375 216.023438 517.015625 216.875 C 516.914062 216 516.785156 215.148438 516.601562 214.324219 C 514.175781 225.917969 503.785156 234.628906 491.351562 234.628906 C 481.085938 234.628906 472.242188 228.675781 468.113281 220.097656 C 467.574219 220.351562 467.003906 220.558594 466.410156 220.765625 C 466.542969 221.105469 466.671875 221.464844 466.792969 221.863281 C 466.867188 222.101562 466.9375 222.351562 467.003906 222.621094 C 470.488281 232.59375 480.082031 239.78125 491.351562 239.78125 C 491.378906 239.78125 491.402344 239.78125 491.425781 239.78125 C 491.429688 239.78125 491.429688 239.78125 491.433594 239.78125 C 491.453125 239.78125 491.480469 239.78125 491.503906 239.78125 C 491.503906 239.78125 491.507812 239.78125 491.511719 239.78125 C 491.535156 239.78125 491.558594 239.78125 491.582031 239.78125 C 491.585938 239.78125 491.589844 239.78125 491.589844 239.78125 C 491.613281 239.78125 491.636719 239.78125 491.660156 239.777344 C 491.664062 239.777344 491.667969 239.777344 491.671875 239.777344 C 491.691406 239.777344 491.714844 239.777344 491.738281 239.777344 C 491.738281 239.777344 491.746094 239.777344 491.75 239.777344 C 491.773438 239.777344 491.792969 239.777344 491.816406 239.777344 C 491.820312 239.777344 491.824219 239.777344 491.824219 239.777344 C 491.851562 239.777344 491.875 239.777344 491.894531 239.777344 C 491.898438 239.773438 491.898438 239.773438 491.902344 239.773438 C 491.925781 239.773438 491.953125 239.773438 491.976562 239.773438 C 492 239.773438 492.027344 239.773438 492.050781 239.773438 C 492.054688 239.773438 492.054688 239.773438 492.054688 239.773438 C 492.078125 239.769531 492.101562 239.769531 492.125 239.769531 C 492.128906 239.769531 492.132812 239.769531 492.136719 239.769531 C 492.15625 239.769531 492.179688 239.769531 492.203125 239.769531 C 492.207031 239.765625 492.207031 239.765625 492.210938 239.765625 C 492.234375 239.765625 492.257812 239.765625 492.277344 239.765625 C 492.285156 239.765625 492.289062 239.765625 492.292969 239.765625 C 492.3125 239.765625 492.335938 239.761719 492.359375 239.761719 C 492.363281 239.761719 492.367188 239.761719 492.371094 239.761719 C 492.390625 239.761719 492.414062 239.761719 492.4375 239.757812 C 492.441406 239.757812 492.445312 239.757812 492.449219 239.757812 C 492.472656 239.757812 492.492188 239.757812 492.515625 239.757812 C 492.515625 239.753906 492.523438 239.753906 492.527344 239.753906 C 492.546875 239.753906 492.570312 239.753906 492.589844 239.753906 C 492.59375 239.753906 492.597656 239.753906 492.601562 239.753906 C 492.625 239.75 492.644531 239.75 492.664062 239.75 C 492.667969 239.75 492.671875 239.75 492.675781 239.75 C 492.699219 239.746094 492.71875 239.746094 492.738281 239.746094 C 492.746094 239.746094 492.75 239.746094 492.753906 239.746094 C 492.777344 239.742188 492.796875 239.742188 492.816406 239.742188 C 492.824219 239.742188 492.828125 239.742188 492.835938 239.738281 C 492.855469 239.738281 492.871094 239.738281 492.894531 239.738281 C 492.898438 239.738281 492.90625 239.734375 492.914062 239.734375 C 492.933594 239.734375 492.953125 239.734375 492.972656 239.730469 C 492.976562 239.730469 492.984375 239.730469 492.992188 239.730469 C 493.011719 239.730469 493.03125 239.730469 493.050781 239.726562 C 493.058594 239.726562 493.0625 239.726562 493.070312 239.726562 C 493.089844 239.726562 493.109375 239.722656 493.128906 239.722656 C 493.132812 239.722656 493.140625 239.722656 493.148438 239.722656 C 493.164062 239.71875 493.179688 239.71875 493.199219 239.71875 C 493.207031 239.71875 493.21875 239.714844 493.226562 239.714844 C 493.242188 239.714844 493.257812 239.714844 493.273438 239.710938 C 493.28125 239.710938 493.292969 239.710938 493.304688 239.710938 C 493.320312 239.710938 493.332031 239.707031 493.347656 239.707031 C 493.359375 239.707031 493.367188 239.707031 493.378906 239.703125 C 493.394531 239.703125 493.410156 239.703125 493.425781 239.699219 C 493.433594 239.699219 493.445312 239.699219 493.453125 239.699219 C 493.46875 239.699219 493.488281 239.695312 493.503906 239.695312 C 493.511719 239.695312 493.523438 239.691406 493.535156 239.691406 C 493.550781 239.6875 493.5625 239.6875 493.582031 239.6875 C 493.589844 239.6875 493.601562 239.683594 493.613281 239.683594 C 493.625 239.683594 493.636719 239.683594 493.648438 239.679688 C 493.664062 239.679688 493.679688 239.679688 493.695312 239.675781 C 493.699219 239.675781 493.707031 239.675781 493.714844 239.675781 C 493.734375 239.671875 493.753906 239.671875 493.777344 239.667969 C 493.78125 239.667969 493.785156 239.667969 493.789062 239.667969 C 493.8125 239.667969 493.832031 239.664062 493.855469 239.664062 C 493.859375 239.660156 493.863281 239.660156 493.867188 239.660156 C 493.890625 239.660156 493.914062 239.65625 493.9375 239.65625 C 493.941406 239.652344 493.941406 239.652344 493.945312 239.652344 C 493.972656 239.652344 493.996094 239.648438 494.023438 239.644531 C 505.972656 238.425781 515.535156 229.117188 516.960938 217.371094 C 516.980469 217.207031 517 217.039062 517.015625 216.875 C 517.09375 216.023438 517.144531 215.175781 517.144531 214.324219 " fill-opacity="1" fill-rule="nonzero"/><path fill="rgb(37.249756%, 38.038635%, 31.369019%)" d="M 491.433594 239.78125 C 491.429688 239.78125 491.429688 239.78125 491.425781 239.78125 C 491.429688 239.78125 491.429688 239.78125 491.433594 239.78125 M 491.511719 239.78125 C 491.507812 239.78125 491.503906 239.78125 491.503906 239.78125 C 491.503906 239.78125 491.507812 239.78125 491.511719 239.78125 M 491.589844 239.78125 C 491.589844 239.78125 491.585938 239.78125 491.582031 239.78125 C 491.585938 239.78125 491.585938 239.78125 491.589844 239.78125 M 491.671875 239.777344 C 491.667969 239.777344 491.664062 239.777344 491.660156 239.777344 C 491.664062 239.777344 491.667969 239.777344 491.671875 239.777344 M 491.75 239.777344 C 491.746094 239.777344 491.738281 239.777344 491.738281 239.777344 C 491.738281 239.777344 491.746094 239.777344 491.75 239.777344 M 491.824219 239.777344 C 491.824219 239.777344 491.820312 239.777344 491.816406 239.777344 C 491.820312 239.777344 491.820312 239.777344 491.824219 239.777344 M 491.902344 239.773438 C 491.898438 239.773438 491.898438 239.773438 491.894531 239.777344 C 491.898438 239.777344 491.898438 239.773438 491.902344 239.773438 M 491.976562 239.773438 L 491.976562 239.773438 M 492.054688 239.773438 C 492.054688 239.773438 492.054688 239.773438 492.050781 239.773438 C 492.050781 239.773438 492.054688 239.773438 492.054688 239.773438 M 492.136719 239.769531 C 492.132812 239.769531 492.128906 239.769531 492.125 239.769531 C 492.128906 239.769531 492.132812 239.769531 492.136719 239.769531 M 492.210938 239.765625 C 492.207031 239.765625 492.207031 239.765625 492.203125 239.769531 C 492.207031 239.765625 492.210938 239.765625 492.210938 239.765625 M 492.292969 239.765625 C 492.289062 239.765625 492.285156 239.765625 492.277344 239.765625 C 492.285156 239.765625 492.289062 239.765625 492.292969 239.765625 M 492.371094 239.761719 C 492.367188 239.761719 492.363281 239.761719 492.359375 239.761719 C 492.363281 239.761719 492.367188 239.761719 492.371094 239.761719 M 492.449219 239.757812 C 492.445312 239.757812 492.441406 239.757812 492.4375 239.757812 C 492.441406 239.757812 492.445312 239.757812 492.449219 239.757812 M 492.527344 239.753906 C 492.523438 239.753906 492.515625 239.753906 492.515625 239.757812 C 492.515625 239.753906 492.523438 239.753906 492.527344 239.753906 M 492.601562 239.753906 C 492.597656 239.753906 492.59375 239.753906 492.589844 239.753906 C 492.59375 239.753906 492.597656 239.753906 492.601562 239.753906 M 492.675781 239.75 C 492.671875 239.75 492.667969 239.75 492.664062 239.75 C 492.667969 239.75 492.671875 239.75 492.675781 239.75 M 492.753906 239.746094 C 492.75 239.746094 492.746094 239.746094 492.738281 239.746094 C 492.746094 239.746094 492.75 239.746094 492.753906 239.746094 M 492.835938 239.738281 C 492.828125 239.742188 492.824219 239.742188 492.816406 239.742188 C 492.824219 239.742188 492.828125 239.742188 492.835938 239.738281 M 492.914062 239.734375 C 492.90625 239.734375 492.898438 239.738281 492.894531 239.738281 C 492.898438 239.738281 492.90625 239.734375 492.914062 239.734375 M 492.992188 239.730469 C 492.984375 239.730469 492.976562 239.730469 492.972656 239.730469 C 492.976562 239.730469 492.988281 239.730469 492.992188 239.730469 M 493.070312 239.726562 C 493.0625 239.726562 493.058594 239.726562 493.050781 239.726562 C 493.054688 239.726562 493.0625 239.726562 493.070312 239.726562 M 493.148438 239.722656 C 493.140625 239.722656 493.132812 239.722656 493.128906 239.722656 C 493.132812 239.722656 493.140625 239.722656 493.148438 239.722656 M 493.226562 239.714844 C 493.21875 239.714844 493.207031 239.71875 493.199219 239.71875 C 493.207031 239.71875 493.21875 239.714844 493.226562 239.714844 M 493.304688 239.710938 C 493.292969 239.710938 493.28125 239.710938 493.273438 239.710938 C 493.28125 239.710938 493.292969 239.710938 493.304688 239.710938 M 493.378906 239.703125 C 493.367188 239.707031 493.359375 239.707031 493.347656 239.707031 C 493.359375 239.707031 493.367188 239.707031 493.378906 239.703125 M 493.453125 239.699219 C 493.445312 239.699219 493.433594 239.699219 493.425781 239.699219 C 493.433594 239.699219 493.445312 239.699219 493.453125 239.699219 M 493.535156 239.691406 C 493.523438 239.691406 493.511719 239.695312 493.503906 239.695312 C 493.511719 239.695312 493.523438 239.691406 493.535156 239.691406 M 493.613281 239.683594 C 493.601562 239.683594 493.589844 239.6875 493.582031 239.6875 C 493.589844 239.6875 493.601562 239.683594 493.613281 239.683594 M 493.695312 239.675781 C 493.679688 239.679688 493.664062 239.679688 493.648438 239.679688 C 493.664062 239.679688 493.679688 239.679688 493.695312 239.675781 M 493.777344 239.667969 C 493.753906 239.671875 493.734375 239.671875 493.714844 239.675781 C 493.734375 239.671875 493.753906 239.671875 493.777344 239.667969 M 493.855469 239.664062 C 493.832031 239.664062 493.8125 239.667969 493.789062 239.667969 C 493.8125 239.667969 493.832031 239.664062 493.855469 239.664062 M 493.9375 239.65625 C 493.914062 239.65625 493.890625 239.660156 493.867188 239.660156 C 493.890625 239.660156 493.914062 239.65625 493.9375 239.65625 M 494.023438 239.644531 C 493.996094 239.648438 493.972656 239.652344 493.945312 239.652344 C 493.972656 239.652344 493.996094 239.648438 494.023438 239.644531 M 466.792969 221.863281 C 466.867188 222.101562 466.9375 222.351562 467.003906 222.621094 C 466.9375 222.351562 466.867188 222.101562 466.792969 221.863281 M 516.960938 217.371094 C 515.535156 229.117188 505.972656 238.425781 494.023438 239.644531 C 505.96875 238.425781 515.542969 229.125 516.960938 217.371094 " fill-opacity="1" fill-rule="nonzero"/><path fill="rgb(75.689697%, 78.039551%, 80.778503%)" d="M 385.425781 135.21875 L 364.972656 135.21875 L 364.972656 140.371094 L 385.425781 140.371094 C 387 140.371094 388.496094 141.09375 389.472656 142.332031 C 405.078125 162.015625 424.320312 168.148438 424.5 168.199219 C 425.457031 168.507812 426.28125 169.050781 426.925781 169.820312 L 451.941406 199.585938 C 453.199219 201.066406 455.082031 201.847656 456.980469 201.847656 C 458.3125 201.847656 459.652344 201.464844 460.789062 200.667969 L 465.457031 197.417969 C 465.492188 197.304688 465.523438 197.171875 465.546875 197.027344 C 465.699219 196.042969 465.53125 194.40625 465.148438 192.472656 L 460.789062 195.515625 C 459.652344 196.3125 458.3125 196.695312 456.980469 196.695312 C 455.082031 196.695312 453.199219 195.914062 451.941406 194.433594 L 426.925781 164.671875 C 426.28125 163.898438 425.457031 163.355469 424.5 163.046875 C 424.320312 162.996094 405.078125 156.863281 389.472656 137.175781 C 388.496094 135.941406 387 135.21875 385.425781 135.21875 " fill-opacity="1" fill-rule="nonzero"/><path fill="rgb(37.249756%, 43.528748%, 49.798584%)" d="M 465.546875 197.027344 C 465.523438 197.171875 465.496094 197.304688 465.460938 197.417969 C 465.496094 197.304688 465.523438 197.171875 465.546875 197.027344 " fill-opacity="1" fill-rule="nonzero"/><path fill="rgb(37.249756%, 38.038635%, 31.369019%)" d="M 457.839844 342.464844 C 457.828125 342.832031 457.820312 343.199219 457.820312 343.570312 C 457.820312 343.203125 457.828125 342.832031 457.839844 342.464844 M 524.8125 341.445312 C 524.859375 342.148438 524.882812 342.859375 524.882812 343.570312 C 524.882812 342.851562 524.863281 342.148438 524.8125 341.445312 " fill-opacity="1" fill-rule="nonzero"/><path fill="rgb(83.918762%, 72.158813%, 33.729553%)" d="M 524.480469 343.570312 C 521.996094 359.597656 508.082031 371.914062 491.351562 371.914062 C 474.621094 371.914062 460.707031 359.597656 458.242188 343.570312 C 458.117188 344.421875 458.015625 345.28125 457.953125 346.148438 C 457.894531 345.660156 457.859375 345.171875 457.839844 344.675781 C 458.425781 362.644531 473.230469 377.070312 491.351562 377.070312 C 509.128906 377.070312 523.714844 363.183594 524.816406 345.695312 C 524.804688 345.847656 524.792969 346 524.777344 346.148438 C 524.710938 345.28125 524.613281 344.421875 524.480469 343.570312 " fill-opacity="1" fill-rule="nonzero"/><path fill="rgb(98.039246%, 89.408875%, 59.21936%)" d="M 491.351562 310.074219 C 473.230469 310.074219 458.425781 324.5 457.839844 342.464844 C 457.859375 341.972656 457.894531 341.484375 457.953125 340.996094 C 458.015625 341.863281 458.117188 342.722656 458.242188 343.570312 C 460.707031 327.546875 474.621094 315.226562 491.351562 315.226562 C 508.082031 315.226562 521.996094 327.546875 524.480469 343.570312 C 524.613281 342.722656 524.710938 341.863281 524.777344 340.996094 C 524.792969 341.144531 524.804688 341.296875 524.816406 341.445312 C 523.714844 323.957031 509.132812 310.074219 491.351562 310.074219 " fill-opacity="1" fill-rule="nonzero"/><path fill="rgb(55.688477%, 58.81958%, 56.469727%)" d="M 524.882812 343.570312 C 524.882812 344.285156 524.859375 344.992188 524.8125 345.695312 C 524.863281 344.996094 524.882812 344.292969 524.882812 343.570312 " fill-opacity="1" fill-rule="nonzero"/><path fill="rgb(55.688477%, 58.81958%, 56.469727%)" d="M 457.824219 343.570312 C 457.824219 343.945312 457.828125 344.3125 457.839844 344.675781 C 457.828125 344.308594 457.824219 343.941406 457.824219 343.570312 " fill-opacity="1" fill-rule="nonzero"/><path fill="rgb(91.369629%, 82.749939%, 56.079102%)" d="M 524.78125 340.996094 C 524.710938 341.863281 524.613281 342.722656 524.480469 343.570312 C 524.613281 344.421875 524.710938 345.28125 524.78125 346.148438 C 524.792969 346 524.804688 345.847656 524.8125 345.695312 C 524.859375 344.992188 524.882812 344.285156 524.882812 343.570312 C 524.882812 342.859375 524.859375 342.148438 524.8125 341.445312 C 524.804688 341.296875 524.792969 341.144531 524.78125 340.996094 " fill-opacity="1" fill-rule="nonzero"/><path fill="rgb(91.369629%, 82.749939%, 56.079102%)" d="M 457.953125 340.996094 C 457.890625 341.484375 457.859375 341.972656 457.839844 342.464844 C 457.828125 342.832031 457.820312 343.203125 457.820312 343.570312 C 457.820312 343.941406 457.828125 344.3125 457.839844 344.675781 C 457.859375 345.171875 457.890625 345.660156 457.953125 346.148438 C 458.015625 345.28125 458.113281 344.421875 458.246094 343.570312 C 458.113281 342.722656 458.015625 341.863281 457.953125 340.996094 " fill-opacity="1" fill-rule="nonzero"/><path fill="rgb(96.469116%, 50.588989%, 47.44873%)" d="M 556.683594 283.097656 L 425.996094 283.097656 C 421.277344 285.339844 406.316406 293.96875 406.238281 313.21875 L 406.367188 315.589844 C 407.785156 298.273438 421.507812 290.386719 425.996094 288.25 L 556.683594 288.25 C 561.09375 290.363281 574.917969 298.324219 576.335938 315.589844 L 576.464844 313.21875 C 576.386719 294.019531 561.328125 285.3125 556.683594 283.097656 " fill-opacity="1" fill-rule="nonzero"/><path fill="rgb(75.689697%, 78.039551%, 80.778503%)" d="M 539.460938 267.738281 L 443.242188 267.738281 C 442.960938 267.789062 442.671875 267.816406 442.375 267.816406 C 442.367188 267.816406 442.359375 267.816406 442.347656 267.816406 L 430.714844 267.816406 L 430.714844 272.890625 L 551.988281 272.890625 L 551.988281 267.816406 L 540.359375 267.816406 C 540.347656 267.816406 540.339844 267.816406 540.328125 267.816406 C 540.035156 267.816406 539.746094 267.789062 539.460938 267.738281 " fill-opacity="1" fill-rule="nonzero"/><path fill="rgb(37.249756%, 43.528748%, 49.798584%)" d="M 442.347656 267.816406 L 430.714844 267.816406 L 442.347656 267.816406 M 551.988281 267.816406 L 540.359375 267.816406 L 551.988281 267.816406 L 551.988281 272.890625 L 551.988281 267.816406 M 443.242188 267.738281 L 443.199219 267.738281 C 442.925781 267.789062 442.648438 267.816406 442.375 267.816406 C 442.671875 267.816406 442.960938 267.789062 443.242188 267.738281 M 539.507812 267.738281 L 539.460938 267.738281 C 539.746094 267.789062 540.035156 267.816406 540.328125 267.816406 C 540.054688 267.816406 539.78125 267.789062 539.507812 267.738281 " fill-opacity="1" fill-rule="nonzero"/><path fill="rgb(95.689392%, 97.24884%, 98.81897%)" d="M 547.167969 249.984375 L 435.539062 249.984375 C 432.882812 249.984375 430.714844 251.996094 430.714844 254.492188 L 430.714844 257.613281 L 431.257812 257.613281 C 432.03125 256.144531 433.65625 255.136719 435.539062 255.136719 L 547.167969 255.136719 C 549.050781 255.136719 550.675781 256.144531 551.449219 257.613281 L 551.988281 257.613281 L 551.988281 254.492188 C 551.988281 251.996094 549.820312 249.984375 547.167969 249.984375 " fill-opacity="1" fill-rule="nonzero"/><path fill="rgb(98.039246%, 89.408875%, 59.21936%)" d="M 491.351562 188.839844 C 491.335938 188.839844 491.320312 188.839844 491.304688 188.839844 C 491.300781 188.839844 491.300781 188.839844 491.300781 188.839844 C 489.414062 188.84375 487.605469 189.070312 485.84375 189.460938 C 485.769531 189.476562 485.699219 189.492188 485.628906 189.511719 C 485.9375 191.3125 486.117188 192.988281 486.167969 194.535156 C 487.84375 194.199219 489.574219 193.992188 491.351562 193.992188 C 503.785156 193.992188 514.175781 202.730469 516.601562 214.296875 L 516.601562 214.324219 C 516.785156 213.5 516.914062 212.648438 517.015625 211.773438 C 517.09375 212.621094 517.144531 213.472656 517.144531 214.324219 C 517.144531 213.472656 517.09375 212.621094 517.015625 211.773438 C 517 211.605469 516.980469 211.4375 516.957031 211.265625 C 515.625 200.320312 507.230469 191.476562 496.425781 189.335938 C 496.421875 189.335938 496.417969 189.335938 496.414062 189.335938 C 496.394531 189.332031 496.375 189.328125 496.351562 189.324219 C 496.34375 189.320312 496.339844 189.320312 496.332031 189.320312 C 496.316406 189.316406 496.296875 189.3125 496.28125 189.308594 C 496.273438 189.304688 496.261719 189.304688 496.25 189.300781 C 496.238281 189.300781 496.226562 189.296875 496.210938 189.292969 C 496.199219 189.292969 496.1875 189.289062 496.171875 189.285156 C 496.164062 189.285156 496.15625 189.285156 496.148438 189.28125 C 496.128906 189.277344 496.113281 189.277344 496.09375 189.273438 C 496.089844 189.269531 496.082031 189.269531 496.074219 189.269531 C 496.054688 189.265625 496.035156 189.261719 496.019531 189.257812 C 496.011719 189.257812 496.003906 189.257812 495.996094 189.253906 C 495.980469 189.25 495.960938 189.25 495.941406 189.246094 C 495.933594 189.246094 495.929688 189.242188 495.921875 189.242188 C 495.902344 189.238281 495.886719 189.234375 495.867188 189.230469 C 495.859375 189.230469 495.855469 189.230469 495.851562 189.230469 C 495.828125 189.226562 495.808594 189.222656 495.789062 189.21875 C 495.785156 189.21875 495.78125 189.21875 495.777344 189.21875 C 495.753906 189.214844 495.734375 189.207031 495.710938 189.203125 C 495.683594 189.199219 495.660156 189.195312 495.636719 189.191406 C 495.636719 189.191406 495.636719 189.191406 495.632812 189.191406 C 495.613281 189.1875 495.585938 189.183594 495.5625 189.179688 C 495.5625 189.179688 495.558594 189.179688 495.558594 189.179688 C 495.535156 189.175781 495.511719 189.171875 495.488281 189.167969 C 495.488281 189.167969 495.488281 189.167969 495.484375 189.167969 C 495.460938 189.164062 495.4375 189.160156 495.414062 189.15625 C 495.414062 189.15625 495.410156 189.15625 495.410156 189.15625 C 495.386719 189.152344 495.359375 189.148438 495.335938 189.144531 C 495.3125 189.140625 495.285156 189.136719 495.261719 189.132812 C 494.460938 189.011719 493.648438 188.929688 492.828125 188.882812 C 492.726562 188.875 492.621094 188.871094 492.515625 188.867188 C 492.492188 188.863281 492.46875 188.863281 492.441406 188.863281 C 492.414062 188.863281 492.390625 188.859375 492.367188 188.859375 C 492.363281 188.859375 492.363281 188.859375 492.359375 188.859375 C 492.335938 188.859375 492.3125 188.859375 492.289062 188.855469 C 492.285156 188.855469 492.285156 188.855469 492.28125 188.855469 C 492.257812 188.855469 492.234375 188.855469 492.210938 188.855469 C 492.207031 188.855469 492.207031 188.855469 492.203125 188.855469 C 492.179688 188.851562 492.15625 188.851562 492.132812 188.851562 C 492.132812 188.851562 492.128906 188.851562 492.128906 188.851562 C 492.101562 188.851562 492.078125 188.851562 492.054688 188.851562 L 492.050781 188.851562 C 492 188.847656 491.953125 188.847656 491.902344 188.847656 C 491.898438 188.847656 491.898438 188.847656 491.894531 188.847656 C 491.875 188.84375 491.847656 188.84375 491.824219 188.84375 C 491.820312 188.84375 491.820312 188.84375 491.816406 188.84375 C 491.792969 188.84375 491.773438 188.84375 491.75 188.84375 C 491.746094 188.84375 491.742188 188.84375 491.738281 188.84375 C 491.714844 188.84375 491.691406 188.84375 491.671875 188.84375 C 491.667969 188.84375 491.664062 188.84375 491.660156 188.84375 C 491.636719 188.84375 491.613281 188.84375 491.589844 188.839844 C 491.585938 188.839844 491.585938 188.839844 491.582031 188.839844 C 491.558594 188.839844 491.535156 188.839844 491.511719 188.839844 C 491.507812 188.839844 491.503906 188.839844 491.503906 188.839844 C 491.480469 188.839844 491.453125 188.839844 491.433594 188.839844 C 491.429688 188.839844 491.429688 188.839844 491.425781 188.839844 C 491.402344 188.839844 491.378906 188.839844 491.351562 188.839844 " fill-opacity="1" fill-rule="nonzero"/><path fill="rgb(55.688477%, 58.81958%, 56.469727%)" d="M 496.425781 189.335938 C 507.230469 191.476562 515.625 200.320312 516.957031 211.265625 C 515.636719 200.316406 507.230469 191.476562 496.425781 189.335938 M 496.351562 189.324219 C 496.375 189.328125 496.394531 189.332031 496.414062 189.335938 C 496.394531 189.332031 496.375 189.328125 496.351562 189.324219 M 496.28125 189.308594 C 496.296875 189.3125 496.316406 189.316406 496.332031 189.320312 C 496.316406 189.316406 496.296875 189.3125 496.28125 189.308594 M 496.210938 189.292969 C 496.226562 189.296875 496.238281 189.300781 496.25 189.300781 C 496.238281 189.300781 496.226562 189.296875 496.210938 189.292969 M 496.148438 189.28125 C 496.15625 189.285156 496.164062 189.285156 496.171875 189.285156 C 496.164062 189.285156 496.15625 189.285156 496.148438 189.28125 M 496.074219 189.269531 C 496.082031 189.269531 496.089844 189.269531 496.09375 189.273438 C 496.089844 189.269531 496.082031 189.269531 496.074219 189.269531 M 495.996094 189.253906 C 496.003906 189.257812 496.011719 189.257812 496.019531 189.257812 C 496.011719 189.257812 496.003906 189.257812 495.996094 189.253906 M 495.921875 189.242188 C 495.929688 189.242188 495.933594 189.246094 495.941406 189.246094 C 495.9375 189.246094 495.929688 189.242188 495.921875 189.242188 M 495.851562 189.230469 C 495.855469 189.230469 495.859375 189.230469 495.867188 189.230469 C 495.859375 189.230469 495.855469 189.230469 495.851562 189.230469 M 495.777344 189.21875 C 495.78125 189.21875 495.785156 189.21875 495.789062 189.21875 C 495.785156 189.21875 495.78125 189.21875 495.777344 189.21875 M 495.632812 189.191406 C 495.636719 189.191406 495.636719 189.191406 495.636719 189.191406 C 495.636719 189.191406 495.636719 189.191406 495.632812 189.191406 M 495.558594 189.179688 C 495.558594 189.179688 495.5625 189.179688 495.5625 189.179688 C 495.5625 189.179688 495.5625 189.179688 495.558594 189.179688 M 495.484375 189.167969 C 495.488281 189.167969 495.488281 189.167969 495.488281 189.167969 C 495.488281 189.167969 495.488281 189.167969 495.484375 189.167969 M 495.410156 189.15625 C 495.410156 189.15625 495.414062 189.15625 495.414062 189.15625 C 495.414062 189.15625 495.410156 189.15625 495.410156 189.15625 M 495.335938 189.144531 L 495.335938 189.144531 M 492.441406 188.863281 L 492.441406 188.863281 M 492.359375 188.859375 C 492.363281 188.859375 492.363281 188.859375 492.367188 188.859375 C 492.367188 188.859375 492.363281 188.859375 492.359375 188.859375 M 492.28125 188.855469 C 492.285156 188.855469 492.285156 188.855469 492.289062 188.855469 C 492.285156 188.855469 492.285156 188.855469 492.28125 188.855469 M 492.203125 188.855469 C 492.207031 188.855469 492.207031 188.855469 492.210938 188.855469 C 492.207031 188.855469 492.207031 188.855469 492.203125 188.855469 M 492.128906 188.851562 C 492.128906 188.851562 492.132812 188.851562 492.132812 188.851562 C 492.132812 188.851562 492.128906 188.851562 492.128906 188.851562 M 492.050781 188.851562 L 492.054688 188.851562 C 492.054688 188.851562 492.054688 188.851562 492.050781 188.851562 M 491.894531 188.847656 C 491.898438 188.847656 491.898438 188.847656 491.902344 188.847656 C 491.898438 188.847656 491.898438 188.847656 491.894531 188.847656 M 491.816406 188.84375 C 491.820312 188.84375 491.820312 188.84375 491.824219 188.84375 C 491.820312 188.84375 491.820312 188.84375 491.816406 188.84375 M 491.738281 188.84375 C 491.742188 188.84375 491.746094 188.84375 491.75 188.84375 C 491.746094 188.84375 491.738281 188.84375 491.738281 188.84375 M 491.660156 188.84375 C 491.664062 188.84375 491.667969 188.84375 491.671875 188.84375 C 491.667969 188.84375 491.664062 188.84375 491.660156 188.84375 M 491.582031 188.839844 C 491.585938 188.839844 491.585938 188.839844 491.589844 188.839844 C 491.589844 188.839844 491.585938 188.839844 491.582031 188.839844 M 491.503906 188.839844 C 491.503906 188.839844 491.507812 188.839844 491.511719 188.839844 C 491.507812 188.839844 491.503906 188.839844 491.503906 188.839844 M 491.425781 188.839844 C 491.429688 188.839844 491.429688 188.839844 491.433594 188.839844 C 491.429688 188.839844 491.429688 188.839844 491.425781 188.839844 M 491.300781 188.839844 C 489.410156 188.84375 487.613281 189.058594 485.84375 189.460938 C 487.605469 189.070312 489.414062 188.84375 491.300781 188.839844 M 491.351562 188.839844 C 491.335938 188.839844 491.320312 188.839844 491.304688 188.839844 C 491.320312 188.839844 491.335938 188.839844 491.351562 188.839844 " fill-opacity="1" fill-rule="nonzero"/><path fill="rgb(91.369629%, 82.749939%, 56.079102%)" d="M 517.015625 211.773438 C 516.914062 212.648438 516.785156 213.5 516.601562 214.324219 C 516.785156 215.148438 516.914062 216 517.015625 216.875 C 517.09375 216.023438 517.144531 215.175781 517.144531 214.324219 C 517.144531 213.472656 517.09375 212.621094 517.015625 211.773438 " fill-opacity="1" fill-rule="nonzero"/><path fill="rgb(95.689392%, 97.24884%, 98.81897%)" d="M 474.746094 91.050781 L 364.972656 91.050781 L 364.972656 96.207031 L 474.746094 96.207031 C 476.574219 96.207031 478.304688 96.980469 479.488281 98.320312 L 515.699219 139.726562 C 516.628906 140.785156 517.144531 142.148438 517.144531 143.515625 L 517.144531 138.363281 C 517.144531 136.996094 516.628906 135.628906 515.699219 134.574219 L 479.488281 93.164062 C 478.304688 91.824219 476.574219 91.050781 474.746094 91.050781 " fill-opacity="1" fill-rule="nonzero"/><path fill="rgb(82.348633%, 30.198669%, 26.669312%)" d="M 354.65625 142.585938 L 323.707031 142.585938 L 323.707031 147.742188 L 354.65625 147.742188 L 354.65625 142.585938 " fill-opacity="1" fill-rule="nonzero"/><path fill="rgb(96.469116%, 50.588989%, 47.44873%)" d="M 354.65625 80.746094 L 323.707031 80.746094 L 323.707031 85.898438 L 354.65625 85.898438 L 354.65625 80.746094 " fill-opacity="1" fill-rule="nonzero"/></svg>