<svg xmlns="http://www.w3.org/2000/svg" xmlns:xlink="http://www.w3.org/1999/xlink" width="1200" zoomAndPan="magnify" viewBox="0 0 900 470.999988" height="628" preserveAspectRatio="xMidYMid meet" version="1.0"><defs><clipPath id="id1"><path d="M 284 261 L 610.230469 261 L 610.230469 423.601562 L 284 423.601562 Z M 284 261 " clip-rule="nonzero"/></clipPath><clipPath id="id2"><path d="M 284 324 L 610.230469 324 L 610.230469 423.601562 L 284 423.601562 Z M 284 324 " clip-rule="nonzero"/></clipPath><clipPath id="id3"><path d="M 359 266 L 448 266 L 448 423.601562 L 359 423.601562 Z M 359 266 " clip-rule="nonzero"/></clipPath><clipPath id="id4"><path d="M 446 264 L 536 264 L 536 423.601562 L 446 423.601562 Z M 446 264 " clip-rule="nonzero"/></clipPath></defs><g clip-path="url(#id1)"><path fill="rgb(17.248535%, 31.759644%, 53.729248%)" d="M 595.523438 297.414062 C 592.03125 288.339844 581.542969 283.449219 581.542969 283.449219 L 492.058594 261.804688 L 447.105469 277.023438 L 402.15625 261.804688 L 312.667969 283.449219 C 312.667969 283.449219 302.179688 288.339844 298.6875 297.414062 C 295.183594 306.5 284.015625 423.4375 284.015625 423.4375 L 610.214844 423.4375 C 610.214844 423.4375 599.03125 306.5 595.523438 297.414062 " fill-opacity="1" fill-rule="nonzero"/></g><g clip-path="url(#id2)"><path fill="rgb(13.729858%, 27.839661%, 45.489502%)" d="M 610.214844 423.4375 C 610.214844 423.4375 604.292969 361.65625 599.726562 324.429688 C 514.6875 405.824219 305.671875 406.996094 285.570312 407.441406 C 284.609375 417.175781 284.015625 423.4375 284.015625 423.4375 L 610.214844 423.4375 " fill-opacity="1" fill-rule="nonzero"/></g><path fill="rgb(81.959534%, 89.408875%, 94.509888%)" d="M 383.625 266.296875 L 447.105469 391.679688 L 504.515625 264.8125 L 447.535156 277.171875 L 383.625 266.296875 " fill-opacity="1" fill-rule="nonzero"/><path fill="rgb(9.01947%, 18.429565%, 29.798889%)" d="M 462.09375 277.171875 L 448.066406 276.824219 L 434.035156 277.171875 L 432.796875 297.445312 L 442.242188 306.847656 L 453.890625 306.847656 L 463.335938 297.445312 L 462.09375 277.171875 " fill-opacity="1" fill-rule="nonzero"/><path fill="rgb(93.328857%, 57.249451%, 33.329773%)" d="M 447.535156 272.972656 L 487.339844 261.109375 C 481.089844 250.289062 476.917969 199.3125 476.917969 199.3125 L 447.535156 210.136719 L 418.171875 199.3125 C 418.171875 199.3125 414 250.289062 407.746094 261.109375 L 447.535156 272.972656 " fill-opacity="1" fill-rule="nonzero"/><path fill="rgb(97.648621%, 70.979309%, 48.629761%)" d="M 447.585938 71.421875 C 394.464844 71.171875 384.058594 117.273438 387.546875 150.78125 C 388.191406 157.046875 391.847656 184.175781 397.257812 207.34375 C 399.757812 218.097656 415.292969 231.351562 430.117188 240.160156 C 439.429688 245.695312 447.585938 247.261719 447.585938 247.261719 C 447.601562 247.261719 455.757812 245.695312 465.074219 240.160156 C 479.878906 231.351562 495.414062 218.097656 497.929688 207.34375 C 503.339844 184.175781 506.996094 157.046875 507.640625 150.78125 C 511.132812 117.273438 497.234375 74.210938 447.585938 71.421875 " fill-opacity="1" fill-rule="nonzero"/><path fill="rgb(97.648621%, 70.979309%, 48.629761%)" d="M 390.972656 148.699219 C 390.972656 148.699219 375.585938 134.027344 371.402344 147.988281 C 367.941406 159.507812 382.152344 192.785156 392.164062 181.914062 L 390.972656 148.699219 " fill-opacity="1" fill-rule="nonzero"/><path fill="rgb(97.648621%, 70.979309%, 48.629761%)" d="M 503.835938 148.699219 C 503.835938 148.699219 519.207031 134.027344 523.40625 147.988281 C 526.867188 159.507812 512.636719 192.785156 502.644531 181.914062 L 503.835938 148.699219 " fill-opacity="1" fill-rule="nonzero"/><path fill="rgb(100%, 100%, 100%)" d="M 447.535156 272.972656 C 447.535156 272.972656 413.902344 257.261719 410.476562 253.59375 C 410.476562 253.59375 404.605469 251.691406 401.097656 255.523438 C 397.605469 259.359375 383.625 266.296875 383.625 266.296875 L 414.996094 328.246094 C 414.996094 328.246094 431.523438 297.777344 447.535156 279.617188 L 447.535156 272.972656 " fill-opacity="1" fill-rule="nonzero"/><path fill="rgb(100%, 100%, 100%)" d="M 447.535156 272.972656 C 447.535156 272.972656 481.1875 257.261719 484.613281 253.59375 C 484.613281 253.59375 490.484375 251.691406 493.976562 255.523438 C 497.484375 259.359375 504.515625 264.8125 504.515625 264.8125 L 476.953125 325.734375 C 476.953125 325.734375 463.566406 297.777344 447.535156 279.617188 L 447.535156 272.972656 " fill-opacity="1" fill-rule="nonzero"/><path fill="rgb(9.01947%, 18.429565%, 29.798889%)" d="M 442.242188 306.847656 L 432.796875 363.425781 L 447.105469 391.679688 L 461.070312 360.828125 L 453.890625 306.847656 L 442.242188 306.847656 " fill-opacity="1" fill-rule="nonzero"/><g clip-path="url(#id3)"><path fill="rgb(19.999695%, 36.079407%, 57.249451%)" d="M 371.617188 269.191406 L 359.273438 312.085938 L 380.25 320.460938 L 359.273438 336.753906 L 430.578125 423.4375 L 446.675781 423.4375 L 447.105469 391.679688 L 383.625 266.296875 L 371.617188 269.191406 " fill-opacity="1" fill-rule="nonzero"/></g><g clip-path="url(#id4)"><path fill="rgb(19.999695%, 36.079407%, 57.249451%)" d="M 516.507812 267.71875 L 535.898438 312.085938 L 514.921875 320.460938 L 535.898438 336.753906 L 463.023438 423.4375 L 446.675781 423.4375 L 447.105469 391.679688 L 504.515625 264.8125 L 516.507812 267.71875 " fill-opacity="1" fill-rule="nonzero"/></g><path fill="rgb(27.449036%, 14.509583%, 8.628845%)" d="M 383.625 143.511719 L 388.621094 159.339844 C 388.621094 159.339844 394.695312 144.039062 398.433594 137.53125 C 402.15625 131.003906 404.007812 114.25 404.007812 109.589844 C 404.007812 104.945312 407.746094 98.417969 411.007812 97.03125 C 414.265625 95.628906 444.09375 106.335938 453.890625 104.003906 C 463.667969 101.675781 489.308594 99.808594 490.699219 100.285156 C 492.105469 100.75 493.496094 107.257812 494.4375 111.457031 C 495.367188 115.636719 490.699219 131.929688 494.4375 137.53125 C 498.160156 143.097656 506.035156 163.027344 506.035156 163.027344 C 506.035156 163.027344 518.726562 107.257812 511.082031 86.785156 C 503.421875 66.296875 469.738281 50.484375 450.367188 48.855469 C 430.480469 47.199219 393.535156 63.042969 383.625 88.636719 C 373.714844 114.25 383.625 143.511719 383.625 143.511719 " fill-opacity="1" fill-rule="nonzero"/></svg>