<svg xmlns="http://www.w3.org/2000/svg" xmlns:xlink="http://www.w3.org/1999/xlink" width="1200" zoomAndPan="magnify" viewBox="0 0 900 470.999988" height="628" preserveAspectRatio="xMidYMid meet" version="1.0"><defs><clipPath id="id1"><path d="M 294.417969 79.917969 L 605.667969 79.917969 L 605.667969 391.167969 L 294.417969 391.167969 Z M 294.417969 79.917969 " clip-rule="nonzero"/></clipPath></defs><path fill="rgb(98.81897%, 84.309387%, 43.919373%)" d="M 528.132812 123.53125 L 506.835938 102.234375 L 491.96875 111.902344 C 484.890625 107.550781 477.085938 104.273438 468.769531 102.292969 L 465.105469 84.9375 L 434.984375 84.9375 L 431.316406 102.292969 C 423 104.273438 415.195312 107.550781 408.117188 111.902344 L 393.253906 102.234375 L 371.957031 123.53125 L 379.664062 141.90625 L 380.390625 180.320312 L 389.800781 180.320312 C 389.800781 147.042969 416.765625 120.082031 450.042969 120.082031 C 483.320312 120.082031 510.285156 147.042969 510.285156 180.320312 L 520.328125 180.320312 L 520.285156 141.90625 L 528.132812 123.53125 " fill-opacity="1" fill-rule="nonzero"/><path fill="rgb(100%, 78.039551%, 16.079712%)" d="M 374.859375 130.472656 L 379.664062 141.90625 L 379.761719 180.320312 L 389.800781 180.320312 C 389.800781 167.378906 393.921875 155.417969 400.863281 145.613281 C 394.488281 137.511719 385.292969 131.847656 374.859375 130.472656 " fill-opacity="1" fill-rule="nonzero"/><path fill="rgb(100%, 78.039551%, 16.079712%)" d="M 525.167969 130.492188 C 514.601562 131.867188 505.34375 137.375 499.011719 145.316406 C 506.070312 155.183594 510.285156 167.242188 510.285156 180.320312 L 520.328125 180.320312 L 520.285156 141.90625 L 525.167969 130.492188 " fill-opacity="1" fill-rule="nonzero"/><path fill="rgb(79.998779%, 81.959534%, 85.099792%)" d="M 585.589844 265.664062 L 585.589844 241.171875 C 585.589844 231.976562 579.3125 223.933594 570.371094 221.699219 L 545.425781 215.464844 L 545.40625 206.382812 C 554.410156 201.1875 560.488281 191.460938 560.488281 180.320312 L 560.488281 171.554688 C 560.488281 155.042969 547.78125 140.671875 531.289062 140.179688 C 514.226562 139.671875 500.246094 153.339844 500.246094 170.28125 L 500.246094 180.320312 C 500.246094 191.460938 506.304688 201.167969 515.304688 206.382812 L 515.304688 215.464844 L 490.363281 221.699219 C 481.421875 223.933594 475.144531 231.976562 475.144531 241.171875 L 475.144531 265.664062 L 585.589844 265.664062 " fill-opacity="1" fill-rule="nonzero"/><path fill="rgb(66.668701%, 69.799805%, 74.119568%)" d="M 515.304688 241.171875 C 515.304688 232.035156 511.148438 223.738281 504.5 218.167969 L 490.363281 221.699219 C 481.421875 223.933594 475.144531 231.957031 475.144531 241.171875 L 475.144531 265.664062 L 515.304688 265.664062 L 515.304688 241.171875 " fill-opacity="1" fill-rule="nonzero"/><path fill="rgb(79.998779%, 81.959534%, 85.099792%)" d="M 424.941406 265.664062 L 424.941406 241.171875 C 424.941406 231.976562 418.667969 223.933594 409.726562 221.699219 L 384.78125 215.464844 L 384.761719 206.382812 C 393.761719 201.1875 399.84375 191.460938 399.84375 180.320312 L 399.84375 171.554688 C 399.84375 155.042969 387.136719 140.671875 370.644531 140.179688 C 353.582031 139.671875 339.601562 153.339844 339.601562 170.28125 L 339.601562 180.320312 C 339.601562 191.460938 345.660156 201.167969 354.660156 206.382812 L 354.660156 215.464844 L 329.71875 221.699219 C 320.773438 223.933594 314.5 231.976562 314.5 241.171875 L 314.5 265.664062 L 424.941406 265.664062 " fill-opacity="1" fill-rule="nonzero"/><path fill="rgb(66.668701%, 69.799805%, 74.119568%)" d="M 424.941406 241.171875 C 424.941406 231.957031 418.667969 223.933594 409.726562 221.699219 L 395.585938 218.167969 C 388.9375 223.738281 384.78125 232.035156 384.78125 241.171875 L 384.78125 265.664062 L 424.941406 265.664062 L 424.941406 241.171875 " fill-opacity="1" fill-rule="nonzero"/><path fill="rgb(79.998779%, 81.959534%, 85.099792%)" d="M 505.265625 265.664062 L 505.265625 241.171875 C 505.265625 231.976562 498.992188 223.933594 490.046875 221.699219 L 465.105469 215.464844 L 465.085938 206.382812 C 474.085938 201.1875 480.164062 191.460938 480.164062 180.320312 L 480.164062 171.554688 C 480.164062 155.042969 467.457031 140.671875 450.964844 140.179688 C 433.90625 139.671875 419.921875 153.339844 419.921875 170.28125 L 419.921875 180.320312 C 419.921875 191.460938 425.984375 201.167969 434.984375 206.382812 L 434.984375 215.464844 L 410.039062 221.699219 C 401.097656 223.933594 394.820312 231.976562 394.820312 241.171875 L 394.820312 265.664062 L 505.265625 265.664062 " fill-opacity="1" fill-rule="nonzero"/><path fill="rgb(66.668701%, 69.799805%, 74.119568%)" d="M 585.589844 241.171875 C 585.589844 231.957031 579.3125 223.933594 570.371094 221.699219 L 564.839844 220.328125 L 497.773438 255.625 L 496.636719 255.625 L 475.144531 249.488281 L 475.144531 265.664062 L 585.589844 265.664062 L 585.589844 241.171875 " fill-opacity="1" fill-rule="nonzero"/><path fill="rgb(66.668701%, 69.799805%, 74.119568%)" d="M 505.265625 251.683594 L 497.773438 255.625 L 496.636719 255.625 L 466.4375 246.996094 C 463.789062 246.25 461.085938 245.878906 458.359375 245.722656 L 436.414062 238.722656 C 429.84375 236.601562 423 235.542969 416.097656 235.542969 C 411.234375 235.542969 406.371094 236.074219 401.546875 237.152344 L 395.039062 238.660156 C 394.941406 239.484375 394.820312 240.328125 394.820312 241.171875 L 394.820312 265.664062 L 505.265625 265.664062 L 505.265625 251.683594 " fill-opacity="1" fill-rule="nonzero"/><path fill="rgb(66.668701%, 69.799805%, 74.119568%)" d="M 401.546875 237.152344 L 379.761719 242.191406 L 379.761719 234.796875 L 349.03125 216.875 L 329.71875 221.699219 C 320.773438 223.933594 314.5 231.957031 314.5 241.171875 L 314.5 265.664062 L 424.941406 265.664062 L 424.941406 241.171875 C 424.941406 239.425781 424.648438 237.71875 424.21875 236.09375 C 421.53125 235.757812 418.824219 235.542969 416.097656 235.542969 C 411.234375 235.542969 406.371094 236.074219 401.546875 237.152344 " fill-opacity="1" fill-rule="nonzero"/><path fill="rgb(92.549133%, 75.689697%, 61.178589%)" d="M 506.835938 322.808594 L 464.417969 284.628906 L 456.339844 255.625 L 433.355469 248.269531 C 427.785156 246.484375 421.960938 245.585938 416.097656 245.585938 C 411.960938 245.585938 407.84375 246.035156 403.804688 246.9375 L 344.621094 260.644531 L 339.601562 300.804688 L 374.996094 323.042969 L 439.375 376.734375 L 447.140625 383.578125 C 449.003906 385.246094 451.417969 386.148438 453.925781 386.148438 L 454.847656 386.148438 C 460.515625 386.148438 465.105469 381.558594 465.105469 375.894531 C 465.105469 372.851562 463.75 369.949219 461.417969 368.007812 C 463.789062 369.988281 466.808594 371.089844 469.910156 371.089844 C 475.574219 371.089844 480.164062 366.5 480.164062 360.832031 C 480.164062 357.792969 478.8125 354.890625 476.476562 352.949219 L 457.242188 336.925781 L 477.300781 353.65625 C 479.144531 355.183594 481.480469 356.027344 483.871094 356.027344 L 484.96875 356.027344 C 490.636719 356.027344 495.226562 351.4375 495.226562 345.773438 C 495.226562 342.730469 493.871094 339.847656 491.539062 337.886719 L 492.324219 338.554688 C 494.207031 340.125 496.558594 340.96875 499.011719 340.96875 L 499.871094 340.96875 C 505.617188 340.96875 510.285156 336.300781 510.285156 330.554688 C 510.285156 327.59375 509.03125 324.789062 506.835938 322.808594 " fill-opacity="1" fill-rule="nonzero"/><path fill="rgb(96.078491%, 87.838745%, 80.389404%)" d="M 506.835938 322.808594 L 464.417969 284.628906 C 461.632812 282.117188 458.003906 280.726562 454.261719 280.726562 C 451.496094 280.726562 448.808594 281.46875 446.4375 282.882812 L 427.746094 294.097656 C 425.902344 295.21875 423.824219 295.785156 421.667969 295.785156 C 415.15625 295.785156 409.882812 290.511719 409.882812 284 L 409.882812 283 C 409.882812 278.527344 412.414062 274.449219 416.394531 272.449219 L 444.414062 258.449219 C 448.101562 256.585938 452.199219 255.625 456.339844 255.625 C 458.828125 255.625 461.300781 255.976562 463.671875 256.664062 L 495.226562 265.664062 L 500.246094 265.664062 L 595.628906 215.464844 L 600.648438 215.464844 L 600.648438 280.726562 L 510.285156 325.90625 L 506.835938 322.808594 " fill-opacity="1" fill-rule="nonzero"/><path fill="rgb(87.449646%, 69.799805%, 54.508972%)" d="M 450.042969 330.925781 L 443.0625 338.183594 L 470.890625 361.363281 C 473.261719 363.34375 476.066406 364.675781 479.046875 365.402344 C 479.734375 364.027344 480.164062 362.480469 480.164062 360.832031 C 480.164062 357.792969 478.8125 354.890625 476.476562 352.949219 L 450.042969 330.925781 " fill-opacity="1" fill-rule="nonzero"/><path fill="rgb(96.078491%, 87.838745%, 80.389404%)" d="M 419.921875 370.480469 C 419.921875 376.363281 424.6875 381.128906 430.570312 381.128906 C 433.394531 381.128906 436.101562 380.011719 438.101562 378.011719 L 446.925781 369.1875 C 448.925781 367.1875 450.042969 364.480469 450.042969 361.65625 C 450.042969 355.773438 445.277344 351.007812 439.394531 351.007812 C 436.570312 351.007812 433.867188 352.125 431.867188 354.125 L 423.039062 362.949219 C 421.039062 364.949219 419.921875 367.65625 419.921875 370.480469 " fill-opacity="1" fill-rule="nonzero"/><path fill="rgb(96.078491%, 87.838745%, 80.389404%)" d="M 404.863281 355.417969 C 404.863281 361.304688 409.628906 366.066406 415.511719 366.066406 C 418.335938 366.066406 421.039062 364.949219 423.039062 362.949219 L 431.867188 354.125 C 433.867188 352.125 434.984375 349.417969 434.984375 346.59375 C 434.984375 340.710938 430.21875 335.945312 424.335938 335.945312 C 421.511719 335.945312 418.804688 337.066406 416.804688 339.066406 L 407.980469 347.890625 C 405.980469 349.890625 404.863281 352.597656 404.863281 355.417969 " fill-opacity="1" fill-rule="nonzero"/><path fill="rgb(96.078491%, 87.838745%, 80.389404%)" d="M 389.800781 340.359375 C 389.800781 346.242188 394.566406 351.007812 400.449219 351.007812 C 403.273438 351.007812 405.980469 349.890625 407.980469 347.890625 L 416.804688 339.066406 C 418.804688 337.066406 419.921875 334.359375 419.921875 331.535156 C 419.921875 325.652344 415.15625 320.886719 409.273438 320.886719 C 406.449219 320.886719 403.746094 322.003906 401.746094 324.003906 L 392.921875 332.828125 C 390.917969 334.828125 389.800781 337.535156 389.800781 340.359375 " fill-opacity="1" fill-rule="nonzero"/><path fill="rgb(94.119263%, 81.568909%, 70.588684%)" d="M 408.84375 331.101562 C 411.351562 328.59375 413.078125 325.4375 414.039062 322.042969 C 412.589844 321.335938 410.980469 320.886719 409.273438 320.886719 C 406.449219 320.886719 403.746094 322.003906 401.746094 324.003906 L 392.921875 332.828125 C 390.917969 334.828125 389.800781 337.535156 389.800781 340.359375 C 389.800781 342.066406 390.253906 343.671875 390.957031 345.105469 C 394.351562 344.164062 397.507812 342.4375 400.019531 339.929688 L 408.84375 331.101562 " fill-opacity="1" fill-rule="nonzero"/><path fill="rgb(94.119263%, 81.568909%, 70.588684%)" d="M 423.902344 346.164062 C 426.414062 343.652344 428.140625 340.496094 429.101562 337.105469 C 427.648438 336.398438 426.042969 335.945312 424.335938 335.945312 C 421.511719 335.945312 418.804688 337.066406 416.804688 339.066406 L 407.980469 347.890625 C 405.980469 349.890625 404.863281 352.597656 404.863281 355.417969 C 404.863281 357.125 405.3125 358.734375 406.019531 360.164062 C 409.410156 359.222656 412.570312 357.5 415.078125 354.988281 L 423.902344 346.164062 " fill-opacity="1" fill-rule="nonzero"/><path fill="rgb(94.119263%, 81.568909%, 70.588684%)" d="M 438.964844 361.222656 C 441.472656 358.714844 443.199219 355.558594 444.160156 352.164062 C 442.710938 351.457031 441.101562 351.007812 439.394531 351.007812 C 436.570312 351.007812 433.867188 352.125 431.867188 354.125 L 423.039062 362.949219 C 421.039062 364.949219 419.921875 367.65625 419.921875 370.480469 C 419.921875 372.1875 420.375 373.792969 421.078125 375.226562 C 424.472656 374.285156 427.628906 372.558594 430.140625 370.050781 L 438.964844 361.222656 " fill-opacity="1" fill-rule="nonzero"/><path fill="rgb(96.078491%, 87.838745%, 80.389404%)" d="M 374.742188 325.300781 C 374.742188 331.183594 379.507812 335.945312 385.390625 335.945312 C 388.214844 335.945312 390.917969 334.828125 392.921875 332.828125 L 401.746094 324.003906 C 403.746094 322.003906 404.863281 319.296875 404.863281 316.472656 C 404.863281 310.589844 400.097656 305.828125 394.214844 305.828125 C 391.390625 305.828125 388.683594 306.945312 386.683594 308.945312 L 377.859375 317.769531 C 375.859375 319.769531 374.742188 322.476562 374.742188 325.300781 " fill-opacity="1" fill-rule="nonzero"/><path fill="rgb(87.449646%, 69.799805%, 54.508972%)" d="M 378.074219 252.898438 L 344.621094 260.644531 L 339.601562 300.804688 L 360.601562 314.003906 L 378.074219 252.898438 " fill-opacity="1" fill-rule="nonzero"/><path fill="rgb(90.19928%, 91.369629%, 92.939758%)" d="M 369.722656 245.585938 L 349.640625 315.867188 L 344.621094 315.867188 L 299.4375 300.804688 L 299.4375 205.421875 L 309.480469 205.421875 L 369.722656 240.5625 L 369.722656 245.585938 " fill-opacity="1" fill-rule="nonzero"/><path fill="rgb(70.588684%, 86.669922%, 49.798584%)" d="M 349.972656 229.054688 L 309.480469 205.421875 L 299.4375 205.421875 L 299.4375 300.804688 L 329.558594 310.847656 L 349.640625 230.523438 L 349.972656 229.054688 " fill-opacity="1" fill-rule="nonzero"/><path fill="rgb(87.449646%, 69.799805%, 54.508972%)" d="M 465.105469 315.867188 L 458.125 323.121094 L 485.949219 346.300781 C 488.324219 348.28125 491.125 349.617188 494.109375 350.339844 C 494.792969 348.96875 495.226562 347.417969 495.226562 345.773438 C 495.226562 342.730469 493.871094 339.847656 491.539062 337.886719 L 465.105469 315.867188 " fill-opacity="1" fill-rule="nonzero"/><g clip-path="url(#id1)"><path fill="rgb(0%, 0%, 0%)" d="M 595.628906 277.628906 L 511.050781 319.90625 C 510.777344 319.613281 510.480469 319.335938 510.1875 319.082031 L 467.769531 280.902344 C 464.066406 277.546875 459.261719 275.707031 454.261719 275.707031 C 450.59375 275.707031 447.003906 276.707031 443.847656 278.589844 L 425.160156 289.804688 C 424.101562 290.433594 422.902344 290.765625 421.667969 290.765625 C 417.941406 290.765625 414.902344 287.726562 414.902344 284 L 414.902344 283 C 414.902344 280.410156 416.335938 278.097656 418.648438 276.941406 L 446.652344 262.9375 C 451.457031 260.527344 457.125 259.996094 462.300781 261.488281 L 493.851562 270.488281 L 501.480469 270.683594 L 595.628906 221.128906 Z M 499.871094 335.945312 L 499.011719 335.945312 C 497.734375 335.945312 496.519531 335.496094 495.539062 334.691406 L 468.320312 312.003906 L 461.886719 319.730469 L 488.324219 341.75 C 489.519531 342.75 490.207031 344.203125 490.207031 345.773438 C 490.207031 348.65625 487.851562 351.007812 484.96875 351.007812 L 483.871094 351.007812 C 482.65625 351.007812 481.460938 350.578125 480.539062 349.792969 L 453.261719 327.0625 L 446.828125 334.789062 L 473.261719 356.8125 C 474.457031 357.8125 475.144531 359.261719 475.144531 360.832031 C 475.144531 363.714844 472.792969 366.066406 469.910156 366.066406 C 467.988281 366.066406 466.105469 365.382812 464.632812 364.144531 L 453.417969 354.8125 C 450.945312 349.773438 445.886719 346.242188 439.945312 346.046875 C 439.652344 337.847656 433.082031 331.28125 424.882812 330.984375 C 424.589844 322.789062 418.019531 316.21875 409.824219 315.925781 C 409.53125 307.550781 402.667969 300.804688 394.214844 300.804688 C 390.078125 300.804688 386.054688 302.472656 383.132812 305.394531 L 374.308594 314.21875 C 373.78125 314.75 373.347656 315.355469 372.898438 315.945312 L 357.484375 306.6875 L 371.015625 259.371094 L 404.902344 251.839844 C 413.785156 249.839844 423.160156 250.269531 431.828125 253.054688 L 439.21875 255.429688 L 414.15625 267.960938 C 408.429688 270.824219 404.863281 276.585938 404.863281 283 L 404.863281 284 C 404.863281 293.257812 412.414062 300.804688 421.667969 300.804688 C 424.726562 300.804688 427.726562 299.980469 430.335938 298.414062 L 449.023438 287.195312 C 452.769531 284.941406 457.808594 285.453125 461.066406 288.355469 L 503.480469 326.535156 C 504.617188 327.554688 505.265625 329.023438 505.265625 330.554688 C 505.265625 333.535156 502.855469 335.945312 499.871094 335.945312 Z M 454.847656 381.128906 L 453.925781 381.128906 C 452.652344 381.128906 451.417969 380.65625 450.457031 379.816406 L 446.710938 376.5 L 450.476562 372.734375 C 451.808594 371.402344 452.867188 369.792969 453.632812 368.066406 L 458.203125 371.871094 C 459.398438 372.871094 460.085938 374.324219 460.085938 375.894531 C 460.085938 378.777344 457.730469 381.128906 454.847656 381.128906 Z M 430.570312 376.109375 C 427.472656 376.109375 424.941406 373.578125 424.941406 370.480469 C 424.941406 368.988281 425.53125 367.539062 426.589844 366.5 L 435.414062 357.675781 C 436.453125 356.617188 437.925781 356.027344 439.394531 356.027344 C 442.492188 356.027344 445.023438 358.558594 445.023438 361.65625 C 445.023438 363.144531 444.433594 364.597656 443.375 365.636719 L 434.550781 374.460938 C 433.511719 375.519531 432.042969 376.109375 430.570312 376.109375 Z M 409.882812 355.417969 C 409.882812 353.929688 410.472656 352.476562 411.53125 351.4375 L 420.355469 342.613281 C 421.394531 341.554688 422.863281 340.96875 424.335938 340.96875 C 427.433594 340.96875 429.964844 343.496094 429.964844 346.59375 C 429.964844 348.085938 429.375 349.535156 428.316406 350.578125 L 419.492188 359.402344 C 418.453125 360.460938 416.980469 361.046875 415.511719 361.046875 C 412.414062 361.046875 409.882812 358.519531 409.882812 355.417969 Z M 394.820312 340.359375 C 394.820312 338.886719 395.410156 337.417969 396.46875 336.378906 L 405.292969 327.554688 C 406.332031 326.496094 407.804688 325.90625 409.273438 325.90625 C 412.375 325.90625 414.902344 328.4375 414.902344 331.535156 C 414.902344 333.003906 414.316406 334.476562 413.253906 335.515625 L 404.429688 344.339844 C 403.390625 345.398438 401.921875 345.988281 400.449219 345.988281 C 397.351562 345.988281 394.820312 343.457031 394.820312 340.359375 Z M 379.761719 325.300781 C 379.761719 323.828125 380.351562 322.359375 381.410156 321.316406 L 390.234375 312.492188 C 391.273438 311.433594 392.742188 310.847656 394.214844 310.847656 C 397.3125 310.847656 399.84375 313.375 399.84375 316.472656 C 399.84375 317.945312 399.253906 319.414062 398.195312 320.457031 L 389.371094 329.28125 C 388.332031 330.339844 386.859375 330.925781 385.390625 330.925781 C 382.292969 330.925781 379.761719 328.398438 379.761719 325.300781 Z M 345.425781 310.847656 L 335.5625 307.550781 L 353.25 236.757812 L 364.699219 243.445312 L 364.699219 244.878906 L 345.855469 310.847656 Z M 304.460938 210.441406 L 308.125 210.441406 L 344.226562 231.503906 L 326.011719 304.375 L 304.460938 297.199219 Z M 359.679688 219.386719 L 359.679688 203.480469 L 357.171875 202.03125 C 349.425781 197.558594 344.621094 189.246094 344.621094 180.320312 L 344.621094 170.28125 C 344.621094 163.4375 347.328125 157.027344 352.25 152.261719 C 357.152344 147.496094 363.699219 144.925781 370.503906 145.199219 C 383.917969 145.59375 394.820312 157.417969 394.820312 171.554688 L 394.820312 180.320312 C 394.820312 189.246094 390 197.558594 382.253906 202.050781 L 379.742188 203.5 L 379.761719 219.386719 L 396.980469 223.699219 C 392.527344 228.25 389.800781 234.425781 389.800781 241.171875 L 389.800781 244.898438 L 374.152344 248.386719 L 374.546875 246.957031 L 374.742188 237.679688 L 348.269531 222.230469 Z M 377.878906 124.6875 L 393.921875 108.648438 L 408.039062 117.84375 L 410.746094 116.179688 C 417.511719 112.039062 424.824219 109 432.472656 107.15625 L 435.570312 106.433594 L 439.042969 89.960938 L 461.046875 89.960938 L 464.515625 106.433594 L 467.613281 107.15625 C 475.261719 109 482.578125 112.039062 489.34375 116.179688 L 492.046875 117.84375 L 506.167969 108.648438 L 522.1875 124.667969 L 516.484375 138.023438 C 512.621094 139.691406 509.03125 142.023438 505.894531 145.0625 C 505.695312 145.257812 505.519531 145.476562 505.324219 145.671875 C 493.480469 126.867188 472.574219 115.058594 450.042969 115.058594 C 427.355469 115.058594 406.371094 126.984375 394.585938 145.964844 C 391.429688 142.671875 387.683594 140.003906 383.507812 138.121094 Z M 400.960938 155.066406 C 410.390625 136.789062 429.375 125.101562 450.042969 125.101562 C 470.515625 125.101562 489.421875 136.632812 498.910156 154.652344 C 496.519531 159.457031 495.226562 164.75 495.226562 170.28125 L 495.226562 180.320312 C 495.226562 191.8125 500.933594 202.597656 510.285156 209.128906 L 510.285156 211.542969 L 490.207031 216.5625 L 470.125 211.542969 L 470.125 209.128906 C 479.480469 202.597656 485.183594 191.8125 485.183594 180.320312 L 485.183594 171.554688 C 485.183594 152.042969 469.910156 135.730469 451.121094 135.160156 C 441.511719 134.886719 432.453125 138.375 425.570312 145.0625 C 418.6875 151.730469 414.902344 160.691406 414.902344 170.28125 L 414.902344 180.320312 C 414.902344 191.8125 420.609375 202.597656 429.964844 209.128906 L 429.964844 211.542969 L 409.882812 216.5625 L 389.800781 211.542969 L 389.800781 209.128906 C 399.15625 202.597656 404.863281 191.8125 404.863281 180.320312 L 404.863281 171.554688 C 404.863281 165.632812 403.449219 160.027344 400.960938 155.066406 Z M 457.613281 250.761719 L 434.886719 243.503906 C 424.53125 240.171875 413.3125 239.683594 402.726562 242.035156 L 399.84375 242.664062 L 399.84375 241.171875 C 399.84375 234.25 404.527344 228.25 411.253906 226.5625 L 440.003906 219.386719 L 440.003906 203.480469 L 437.492188 202.03125 C 429.746094 197.558594 424.941406 189.246094 424.941406 180.320312 L 424.941406 170.28125 C 424.941406 163.4375 427.648438 157.027344 432.570312 152.261719 C 437.472656 147.496094 444.042969 144.925781 450.828125 145.199219 C 464.242188 145.59375 475.144531 157.417969 475.144531 171.554688 L 475.144531 180.320312 C 475.144531 189.246094 470.320312 197.558594 462.574219 202.050781 L 460.066406 203.5 L 460.085938 219.386719 L 488.832031 226.5625 C 495.558594 228.25 500.246094 234.25 500.246094 241.171875 L 500.246094 259.996094 L 499.011719 260.644531 L 495.929688 260.644531 L 465.066406 251.820312 C 462.632812 251.132812 460.125 250.859375 457.613281 250.761719 Z M 555.46875 171.554688 L 555.46875 180.320312 C 555.46875 189.246094 550.644531 197.558594 542.898438 202.050781 L 540.386719 203.5 L 540.40625 219.386719 L 565.488281 225.660156 L 510.285156 254.703125 L 510.285156 241.171875 C 510.285156 234.445312 507.558594 228.25 503.109375 223.699219 L 520.328125 219.386719 L 520.328125 203.480469 L 517.816406 202.03125 C 510.070312 197.558594 505.265625 189.246094 505.265625 180.320312 L 505.265625 170.28125 C 505.265625 163.4375 507.972656 157.027344 512.894531 152.261719 C 517.796875 147.496094 524.328125 144.925781 531.152344 145.199219 C 544.5625 145.59375 555.46875 157.417969 555.46875 171.554688 Z M 605.667969 210.441406 L 594.394531 210.441406 L 577.585938 219.289062 C 575.683594 218.246094 573.722656 217.367188 571.585938 216.835938 L 550.445312 211.542969 L 550.445312 209.128906 C 559.800781 202.597656 565.507812 191.8125 565.507812 180.320312 L 565.507812 171.554688 C 565.507812 152.042969 550.230469 135.730469 531.445312 135.160156 C 530.503906 135.121094 529.5625 135.160156 528.621094 135.21875 L 534.09375 122.375 L 507.519531 95.804688 L 491.832031 106 C 485.890625 102.648438 479.597656 100.039062 473.046875 98.214844 L 469.164062 79.917969 L 430.925781 79.917969 L 427.042969 98.214844 C 420.492188 100.039062 414.195312 102.648438 408.253906 106 L 392.566406 95.804688 L 366.015625 122.355469 L 371.40625 135.199219 C 371.191406 135.199219 371.015625 135.160156 370.800781 135.160156 C 361.191406 134.886719 352.132812 138.375 345.246094 145.0625 C 338.363281 151.730469 334.582031 160.691406 334.582031 170.28125 L 334.582031 180.320312 C 334.582031 191.8125 340.285156 202.597656 349.640625 209.128906 L 349.640625 211.542969 L 335.835938 214.992188 L 310.832031 200.402344 L 294.417969 200.402344 L 294.417969 304.414062 L 343.796875 320.886719 L 353.425781 320.886719 L 354.621094 316.671875 L 369.78125 325.769531 C 370.015625 333.984375 376.625 340.613281 384.839844 340.910156 C 385.136719 349.105469 391.703125 355.675781 399.902344 355.96875 C 400.195312 364.164062 406.765625 370.734375 414.960938 371.03125 C 415.253906 379.402344 422.121094 386.148438 430.570312 386.148438 C 433.707031 386.148438 436.789062 385.167969 439.375 383.421875 L 443.828125 387.34375 C 446.613281 389.816406 450.199219 391.167969 453.925781 391.167969 L 454.847656 391.167969 C 463.203125 391.167969 469.988281 384.421875 470.105469 376.089844 C 478.378906 375.992188 485.046875 369.304688 485.164062 361.027344 C 493.441406 360.929688 500.128906 354.222656 500.226562 345.949219 C 508.558594 345.753906 515.304688 338.929688 515.304688 330.554688 C 515.304688 330.042969 515.285156 329.535156 515.226562 329.042969 L 605.667969 283.824219 L 605.667969 210.441406 " fill-opacity="1" fill-rule="nonzero"/></g></svg>