<svg xmlns="http://www.w3.org/2000/svg" xmlns:xlink="http://www.w3.org/1999/xlink" width="500" zoomAndPan="magnify" viewBox="0 0 375 374.999991" height="500" preserveAspectRatio="xMidYMid meet" version="1.0"><defs><g/><clipPath id="id1"><path d="M 164 152 L 206 152 L 206 180 L 164 180 Z M 164 152 " clip-rule="nonzero"/></clipPath><clipPath id="id2"><path d="M 161.570312 129.640625 L 220.785156 143.199219 L 209.738281 191.453125 L 150.523438 177.894531 Z M 161.570312 129.640625 " clip-rule="nonzero"/></clipPath><clipPath id="id3"><path d="M 161.570312 129.640625 L 220.785156 143.199219 L 209.738281 191.453125 L 150.523438 177.894531 Z M 161.570312 129.640625 " clip-rule="nonzero"/></clipPath><clipPath id="id4"><path d="M 158 136 L 219 136 L 219 161 L 158 161 Z M 158 136 " clip-rule="nonzero"/></clipPath><clipPath id="id5"><path d="M 161.570312 129.640625 L 220.785156 143.199219 L 209.738281 191.453125 L 150.523438 177.894531 Z M 161.570312 129.640625 " clip-rule="nonzero"/></clipPath><clipPath id="id6"><path d="M 161.570312 129.640625 L 220.785156 143.199219 L 209.738281 191.453125 L 150.523438 177.894531 Z M 161.570312 129.640625 " clip-rule="nonzero"/></clipPath><clipPath id="id7"><path d="M 158 143 L 167 143 L 167 172 L 158 172 Z M 158 143 " clip-rule="nonzero"/></clipPath><clipPath id="id8"><path d="M 161.570312 129.640625 L 220.785156 143.199219 L 209.738281 191.453125 L 150.523438 177.894531 Z M 161.570312 129.640625 " clip-rule="nonzero"/></clipPath><clipPath id="id9"><path d="M 161.570312 129.640625 L 220.785156 143.199219 L 209.738281 191.453125 L 150.523438 177.894531 Z M 161.570312 129.640625 " clip-rule="nonzero"/></clipPath><clipPath id="id10"><path d="M 153 168 L 163 168 L 163 181 L 153 181 Z M 153 168 " clip-rule="nonzero"/></clipPath><clipPath id="id11"><path d="M 161.570312 129.640625 L 220.785156 143.199219 L 209.738281 191.453125 L 150.523438 177.894531 Z M 161.570312 129.640625 " clip-rule="nonzero"/></clipPath><clipPath id="id12"><path d="M 161.570312 129.640625 L 220.785156 143.199219 L 209.738281 191.453125 L 150.523438 177.894531 Z M 161.570312 129.640625 " clip-rule="nonzero"/></clipPath></defs><g clip-path="url(#id1)"><g clip-path="url(#id2)"><g clip-path="url(#id3)"><path fill="rgb(100%, 100%, 100%)" d="M 186.539062 163.292969 C 185.5 163.4375 184.542969 163.21875 183.671875 162.640625 L 167.789062 152.050781 L 164.359375 167.027344 C 164.296875 167.304688 164.316406 167.574219 164.421875 167.839844 C 164.527344 168.105469 164.699219 168.320312 164.9375 168.476562 L 180.898438 179.113281 C 181.191406 179.308594 181.507812 179.378906 181.855469 179.332031 L 200.855469 176.699219 C 201.140625 176.660156 201.386719 176.546875 201.597656 176.351562 C 201.808594 176.160156 201.945312 175.925781 202.007812 175.644531 L 205.4375 160.671875 Z M 186.539062 163.292969 " fill-opacity="1" fill-rule="nonzero"/></g></g></g><g clip-path="url(#id4)"><g clip-path="url(#id5)"><g clip-path="url(#id6)"><path fill="rgb(100%, 100%, 100%)" d="M 217.417969 153.804688 L 191.636719 136.617188 C 191.34375 136.425781 191.027344 136.351562 190.679688 136.398438 L 159.984375 140.65625 C 159.703125 140.695312 159.457031 140.8125 159.246094 141.003906 C 159.035156 141.195312 158.898438 141.433594 158.832031 141.710938 C 158.769531 141.988281 158.789062 142.261719 158.894531 142.527344 C 159.003906 142.789062 159.175781 143.003906 159.414062 143.160156 L 185.195312 160.347656 C 185.488281 160.542969 185.804688 160.617188 186.152344 160.570312 L 216.847656 156.3125 C 217.128906 156.273438 217.375 156.15625 217.585938 155.964844 C 217.796875 155.769531 217.933594 155.535156 218 155.257812 C 218.0625 154.980469 218.042969 154.707031 217.9375 154.441406 C 217.828125 154.175781 217.65625 153.964844 217.417969 153.804688 Z M 217.417969 153.804688 " fill-opacity="1" fill-rule="nonzero"/></g></g></g><g clip-path="url(#id7)"><g clip-path="url(#id8)"><g clip-path="url(#id9)"><path fill="rgb(100%, 100%, 100%)" d="M 159.113281 171.398438 C 158.933594 171.355469 158.769531 171.28125 158.621094 171.175781 C 158.472656 171.070312 158.347656 170.941406 158.253906 170.785156 C 158.15625 170.632812 158.089844 170.464844 158.058594 170.285156 C 158.03125 170.105469 158.035156 169.925781 158.074219 169.75 L 163.746094 144.984375 C 163.785156 144.808594 163.859375 144.644531 163.964844 144.496094 C 164.070312 144.347656 164.199219 144.222656 164.355469 144.128906 C 164.511719 144.03125 164.679688 143.964844 164.859375 143.9375 C 165.039062 143.90625 165.21875 143.910156 165.394531 143.953125 C 165.574219 143.992188 165.738281 144.066406 165.886719 144.171875 C 166.035156 144.277344 166.160156 144.40625 166.257812 144.5625 C 166.355469 144.71875 166.417969 144.882812 166.449219 145.0625 C 166.480469 145.242188 166.476562 145.421875 166.433594 145.601562 L 160.765625 170.363281 C 160.722656 170.542969 160.652344 170.707031 160.542969 170.855469 C 160.4375 171.003906 160.308594 171.125 160.152344 171.222656 C 160 171.320312 159.832031 171.382812 159.652344 171.414062 C 159.46875 171.441406 159.292969 171.4375 159.113281 171.398438 Z M 159.113281 171.398438 " fill-opacity="1" fill-rule="nonzero"/></g></g></g><g clip-path="url(#id10)"><g clip-path="url(#id11)"><g clip-path="url(#id12)"><path fill="rgb(100%, 100%, 100%)" d="M 159.726562 168.714844 C 159.460938 168.65625 159.195312 168.621094 158.921875 168.613281 C 158.652344 168.605469 158.382812 168.625 158.113281 168.671875 C 157.84375 168.714844 157.585938 168.785156 157.332031 168.882812 C 157.078125 168.976562 156.835938 169.097656 156.605469 169.242188 C 156.375 169.386719 156.160156 169.550781 155.964844 169.738281 C 155.765625 169.921875 155.589844 170.125 155.433594 170.347656 C 155.273438 170.566406 155.140625 170.800781 155.03125 171.046875 C 154.917969 171.292969 154.832031 171.550781 154.773438 171.8125 L 153.542969 177.175781 C 153.503906 177.351562 153.5 177.53125 153.53125 177.710938 C 153.558594 177.890625 153.625 178.058594 153.722656 178.210938 C 153.820312 178.367188 153.941406 178.496094 154.089844 178.601562 C 154.242188 178.707031 154.402344 178.78125 154.582031 178.824219 L 159.960938 180.054688 C 160.140625 180.09375 160.320312 180.101562 160.5 180.070312 C 160.679688 180.039062 160.847656 179.976562 161 179.878906 C 161.15625 179.78125 161.285156 179.660156 161.394531 179.511719 C 161.5 179.363281 161.570312 179.199219 161.613281 179.023438 L 162.839844 173.660156 C 162.898438 173.398438 162.933594 173.128906 162.941406 172.859375 C 162.949219 172.585938 162.929688 172.320312 162.882812 172.050781 C 162.839844 171.785156 162.765625 171.523438 162.671875 171.273438 C 162.574219 171.019531 162.453125 170.777344 162.308594 170.546875 C 162.164062 170.316406 161.996094 170.105469 161.8125 169.90625 C 161.625 169.710938 161.421875 169.535156 161.199219 169.375 C 160.976562 169.21875 160.742188 169.085938 160.496094 168.972656 C 160.246094 168.863281 159.992188 168.777344 159.726562 168.714844 Z M 159.726562 168.714844 " fill-opacity="1" fill-rule="nonzero"/></g></g></g><g fill="rgb(100%, 100%, 100%)" fill-opacity="1"><g transform="translate(6.864846, 223.450049)"><g><path d="M 44.894531 -37.878906 L 44.894531 -36.171875 C 48.1875 -35.925781 50.445312 -35.5 49.53125 -32.632812 L 42.269531 -8.785156 L 34.097656 -32.632812 C 33.183594 -35.257812 34.648438 -35.925781 37.941406 -36.171875 L 37.941406 -37.878906 C 32.574219 -37.695312 27.203125 -37.695312 21.898438 -37.878906 L 21.898438 -36.171875 C 25.132812 -35.925781 25.800781 -35.257812 26.71875 -32.632812 L 27.511719 -30.5 L 21.042969 -8.785156 L 12.871094 -32.632812 C 11.957031 -35.257812 13.417969 -35.925781 16.714844 -36.171875 L 16.714844 -37.878906 C 11.34375 -37.695312 5.976562 -37.695312 0.609375 -37.878906 L 0.609375 -36.171875 C 3.902344 -35.925781 4.574219 -35.257812 5.429688 -32.632812 L 17.382812 0.550781 L 20.066406 0.550781 L 28.789062 -26.898438 L 38.613281 0.550781 L 41.296875 0.550781 L 51.96875 -32.632812 C 52.886719 -35.5 54.53125 -35.925781 57.765625 -36.171875 L 57.765625 -37.878906 C 53.496094 -37.695312 49.164062 -37.695312 44.894531 -37.878906 Z M 44.894531 -37.878906 "/></g></g></g><g fill="rgb(100%, 100%, 100%)" fill-opacity="1"><g transform="translate(65.238121, 223.450049)"><g><path d="M 30.742188 -3.964844 L 30.742188 -20.679688 C 30.742188 -29.097656 26.289062 -31.230469 22.082031 -31.230469 C 15.554688 -31.230469 12.320312 -26.046875 11.285156 -23.972656 L 11.832031 -27.753906 L 11.832031 -33.367188 C 11.832031 -37.148438 11.832031 -39.464844 12.199219 -41.539062 C 11.894531 -42.210938 11.40625 -42.699219 10.796875 -42.941406 C 7.992188 -41.234375 4.757812 -40.074219 1.34375 -39.464844 L 1.34375 -37.757812 C 3.597656 -38.0625 4.878906 -37.511719 4.878906 -35.257812 L 4.878906 -3.964844 C 4.878906 -2.441406 3.234375 -1.953125 1.21875 -1.707031 L 1.21875 0 C 5.976562 -0.242188 10.796875 -0.242188 15.554688 0 L 15.554688 -1.707031 C 13.480469 -1.953125 11.832031 -2.441406 11.832031 -3.964844 L 11.832031 -21.59375 C 12.382812 -23.972656 15.003906 -27.9375 18.96875 -27.9375 C 22.324219 -27.9375 23.851562 -25.070312 23.851562 -20.617188 L 23.851562 -3.964844 C 23.851562 -2.441406 22.203125 -1.890625 20.128906 -1.707031 L 20.128906 0 C 24.949219 -0.183594 29.707031 -0.183594 34.464844 0 L 34.464844 -1.707031 C 32.390625 -1.953125 30.742188 -2.441406 30.742188 -3.964844 Z M 30.742188 -3.964844 "/></g></g></g><g fill="rgb(100%, 100%, 100%)" fill-opacity="1"><g transform="translate(100.615869, 223.450049)"><g><path d="M 8.171875 -35.988281 C 10.1875 -35.988281 11.832031 -37.636719 11.832031 -39.648438 C 11.832031 -41.660156 10.1875 -43.308594 8.171875 -43.308594 C 6.160156 -43.308594 4.515625 -41.660156 4.515625 -39.648438 C 4.515625 -37.636719 6.160156 -35.988281 8.171875 -35.988281 Z M 11.832031 -3.964844 L 11.832031 -21.59375 C 11.832031 -25.4375 11.832031 -27.753906 12.199219 -29.828125 C 11.894531 -30.5 11.40625 -30.988281 10.796875 -31.230469 C 7.992188 -29.523438 4.757812 -28.363281 1.34375 -27.753906 L 1.34375 -26.046875 C 3.597656 -26.351562 4.878906 -25.800781 4.878906 -23.484375 L 4.878906 -3.964844 C 4.878906 -2.441406 3.234375 -1.953125 1.21875 -1.707031 L 1.21875 0 C 5.976562 -0.242188 10.796875 -0.242188 15.554688 0 L 15.554688 -1.707031 C 13.480469 -1.953125 11.832031 -2.441406 11.832031 -3.964844 Z M 11.832031 -3.964844 "/></g></g></g><g fill="rgb(100%, 100%, 100%)" fill-opacity="1"><g transform="translate(117.389806, 223.450049)"><g><path d="M 18.359375 -1.769531 L 18.359375 -3.84375 C 17.628906 -3.171875 16.226562 -2.195312 14.515625 -2.195312 C 12.015625 -2.195312 11.40625 -4.332031 11.40625 -6.832031 L 11.40625 -28.484375 L 18.359375 -28.484375 L 18.359375 -30.558594 L 11.40625 -30.558594 L 11.40625 -38.855469 L 9.210938 -38.855469 C 8.234375 -33.183594 6.101562 -30.558594 1.21875 -30.558594 L 1.21875 -28.484375 L 4.515625 -28.484375 L 4.515625 -7.992188 C 4.515625 -1.953125 7.867188 0.425781 12.199219 0.425781 C 14.824219 0.425781 17.078125 -0.425781 18.359375 -1.769531 Z M 18.359375 -1.769531 "/></g></g></g><g fill="rgb(100%, 100%, 100%)" fill-opacity="1"><g transform="translate(137.579517, 223.450049)"><g><path d="M 27.328125 -6.039062 L 25.3125 -6.039062 C 23.667969 -2.5625 20.738281 -1.34375 17.996094 -1.34375 C 12.015625 -1.34375 9.148438 -7.136719 9.148438 -14.824219 L 24.949219 -14.824219 C 27.328125 -14.824219 28.121094 -16.101562 28.121094 -18.789062 C 28.121094 -26.167969 22.753906 -31.109375 15.859375 -31.109375 C 8.601562 -31.109375 1.828125 -25.496094 1.828125 -15.1875 C 1.828125 -5 8.480469 0.671875 16.46875 0.671875 C 21.714844 0.671875 25.375 -1.648438 27.328125 -6.039062 Z M 21.53125 -16.714844 L 9.148438 -16.714844 C 9.148438 -24.460938 11.589844 -29.15625 15.796875 -29.15625 C 20.066406 -29.15625 21.53125 -24.460938 21.53125 -16.714844 Z M 21.53125 -16.714844 "/></g></g></g><g fill="rgb(0%, 0%, 0%)" fill-opacity="1"><g transform="translate(167.517179, 223.450049)"><g><path d="M 21.105469 -7.6875 C 21.105469 -3.964844 18.480469 -1.523438 14.210938 -1.523438 C 9.699219 -1.523438 5.550781 -4.207031 3.476562 -8.90625 L 1.523438 -8.90625 L 2.074219 0 L 4.148438 0 C 4.390625 -0.792969 5.0625 -1.648438 6.222656 -1.648438 C 8.171875 -1.648438 10.492188 0.792969 15.308594 0.792969 C 21.289062 0.792969 27.996094 -2.804688 27.996094 -10.125 C 27.996094 -17.933594 20.3125 -20.800781 15.492188 -23.058594 C 10.917969 -25.253906 8.234375 -27.386719 8.234375 -30.988281 C 8.234375 -34.28125 10.550781 -36.660156 14.515625 -36.660156 C 17.628906 -36.660156 20.800781 -35.132812 23.238281 -29.949219 L 24.949219 -29.949219 L 24.519531 -38.367188 L 22.507812 -38.367188 C 22.265625 -37.574219 21.777344 -37.453125 21.105469 -37.453125 C 19.640625 -37.453125 17.871094 -38.855469 13.664062 -38.855469 C 6.527344 -38.855469 1.953125 -34.828125 1.953125 -28.789062 C 1.953125 -22.570312 6.953125 -19.152344 12.6875 -16.46875 C 17.871094 -14.03125 21.105469 -11.832031 21.105469 -7.6875 Z M 21.105469 -7.6875 "/></g></g></g><g fill="rgb(0%, 0%, 0%)" fill-opacity="1"><g transform="translate(197.039294, 223.450049)"><g><path d="M 27.023438 -6.039062 L 24.949219 -6.039062 C 23.484375 -2.683594 20.554688 -1.464844 17.996094 -1.464844 C 12.199219 -1.464844 9.273438 -7.441406 9.273438 -15.980469 C 9.273438 -23.972656 11.832031 -29.15625 16.46875 -29.15625 C 20.128906 -29.15625 20.738281 -25.984375 20.738281 -22.996094 C 20.738281 -21.410156 21.835938 -20.066406 23.851562 -20.066406 C 26.105469 -20.066406 27.203125 -21.714844 27.203125 -23.117188 C 27.203125 -27.328125 22.691406 -31.109375 16.347656 -31.109375 C 8.539062 -31.109375 1.828125 -25.375 1.828125 -15.371094 C 1.828125 -5.246094 8.601562 0.671875 16.53125 0.671875 C 21.53125 0.671875 25.070312 -1.707031 27.023438 -6.039062 Z M 27.023438 -6.039062 "/></g></g></g><g fill="rgb(0%, 0%, 0%)" fill-opacity="1"><g transform="translate(226.073445, 223.450049)"><g><path d="M 30.742188 -3.964844 L 30.742188 -20.679688 C 30.742188 -29.097656 26.289062 -31.230469 22.082031 -31.230469 C 15.554688 -31.230469 12.320312 -26.046875 11.285156 -23.972656 L 11.832031 -27.753906 L 11.832031 -33.367188 C 11.832031 -37.148438 11.832031 -39.464844 12.199219 -41.539062 C 11.894531 -42.210938 11.40625 -42.699219 10.796875 -42.941406 C 7.992188 -41.234375 4.757812 -40.074219 1.34375 -39.464844 L 1.34375 -37.757812 C 3.597656 -38.0625 4.878906 -37.511719 4.878906 -35.257812 L 4.878906 -3.964844 C 4.878906 -2.441406 3.234375 -1.953125 1.21875 -1.707031 L 1.21875 0 C 5.976562 -0.242188 10.796875 -0.242188 15.554688 0 L 15.554688 -1.707031 C 13.480469 -1.953125 11.832031 -2.441406 11.832031 -3.964844 L 11.832031 -21.59375 C 12.382812 -23.972656 15.003906 -27.9375 18.96875 -27.9375 C 22.324219 -27.9375 23.851562 -25.070312 23.851562 -20.617188 L 23.851562 -3.964844 C 23.851562 -2.441406 22.203125 -1.890625 20.128906 -1.707031 L 20.128906 0 C 24.949219 -0.183594 29.707031 -0.183594 34.464844 0 L 34.464844 -1.707031 C 32.390625 -1.953125 30.742188 -2.441406 30.742188 -3.964844 Z M 30.742188 -3.964844 "/></g></g></g><g fill="rgb(0%, 0%, 0%)" fill-opacity="1"><g transform="translate(261.451193, 223.450049)"><g><path d="M 15.921875 -31.109375 C 9.089844 -31.109375 1.828125 -25.742188 1.828125 -15.308594 C 1.828125 -5.0625 9.089844 0.671875 16.101562 0.671875 C 22.933594 0.671875 30.195312 -4.695312 30.195312 -15.128906 C 30.195312 -25.375 22.933594 -31.109375 15.921875 -31.109375 Z M 16.894531 -1.28125 C 12.199219 -1.28125 9.148438 -7.867188 9.148438 -17.078125 C 9.148438 -25.070312 11.40625 -29.15625 15.128906 -29.15625 C 19.824219 -29.15625 22.875 -22.628906 22.875 -13.417969 C 22.875 -5.367188 20.617188 -1.28125 16.894531 -1.28125 Z M 16.894531 -1.28125 "/></g></g></g><g fill="rgb(0%, 0%, 0%)" fill-opacity="1"><g transform="translate(293.474152, 223.450049)"><g><path d="M 11.832031 -3.964844 L 11.832031 -33.367188 C 11.832031 -37.148438 11.832031 -39.464844 12.199219 -41.539062 C 11.894531 -42.210938 11.40625 -42.699219 10.796875 -42.941406 C 7.992188 -41.234375 4.757812 -40.074219 1.34375 -39.464844 L 1.34375 -37.757812 C 3.597656 -38.0625 4.878906 -37.511719 4.878906 -35.257812 L 4.878906 -3.964844 C 4.878906 -2.441406 3.234375 -1.953125 1.21875 -1.707031 L 1.21875 0 C 5.976562 -0.242188 10.796875 -0.242188 15.554688 0 L 15.554688 -1.707031 C 13.480469 -1.953125 11.832031 -2.441406 11.832031 -3.964844 Z M 11.832031 -3.964844 "/></g></g></g><g fill="rgb(0%, 0%, 0%)" fill-opacity="1"><g transform="translate(310.248088, 223.450049)"><g><path d="M 26.71875 -6.160156 L 26.71875 -21.59375 C 26.71875 -29.035156 23.789062 -31.109375 17.566406 -31.109375 C 9.273438 -31.109375 3.414062 -27.449219 3.414062 -23.058594 C 3.414062 -21.226562 4.390625 -20.007812 6.585938 -20.007812 C 12.445312 -20.007812 7.6875 -29.277344 15.492188 -29.277344 C 19.273438 -29.277344 19.824219 -27.144531 19.824219 -21.714844 L 19.824219 -18.910156 C 5.429688 -15.796875 1.523438 -12.261719 1.523438 -7.015625 C 1.523438 -1.28125 6.039062 0.730469 10.003906 0.730469 C 15.617188 0.730469 18.847656 -3.234375 19.886719 -5 L 20.25 -5 L 19.945312 -0.609375 C 20.191406 0 20.617188 0.488281 21.347656 0.730469 C 24.03125 0.0625 26.71875 -0.367188 30.4375 -0.550781 L 30.4375 -2.316406 C 28.058594 -2.378906 26.71875 -3.355469 26.71875 -6.160156 Z M 13.054688 -2.316406 C 10.550781 -2.316406 8.601562 -4.207031 8.601562 -7.5625 C 8.601562 -10.125 9.699219 -14.824219 19.824219 -17.261719 L 19.824219 -7.808594 C 19.152344 -6.160156 16.53125 -2.316406 13.054688 -2.316406 Z M 13.054688 -2.316406 "/></g></g></g><g fill="rgb(0%, 0%, 0%)" fill-opacity="1"><g transform="translate(341.905065, 223.450049)"><g><path d="M 20.375 -31.230469 C 16.042969 -31.230469 12.929688 -28.121094 10.917969 -22.996094 L 10.550781 -22.996094 L 11.894531 -29.828125 C 11.652344 -30.5 11.164062 -30.988281 10.492188 -31.230469 C 7.867188 -29.582031 4.941406 -28.425781 1.21875 -27.753906 L 1.21875 -26.046875 C 3.597656 -26.351562 4.878906 -25.800781 4.878906 -23.484375 L 4.878906 -3.964844 C 4.878906 -2.441406 3.234375 -1.953125 1.21875 -1.707031 L 1.21875 0 C 5.976562 -0.242188 10.980469 -0.242188 15.859375 0 L 15.859375 -1.707031 C 13.722656 -1.953125 11.832031 -2.441406 11.832031 -3.964844 L 11.832031 -20.859375 C 12.015625 -22.203125 13.601562 -26.777344 16.835938 -26.777344 C 19.457031 -26.777344 19.886719 -23.972656 22.570312 -23.972656 C 24.277344 -23.972656 25.617188 -25.191406 25.617188 -27.144531 C 25.617188 -29.523438 23.605469 -31.230469 20.375 -31.230469 Z M 20.375 -31.230469 "/></g></g></g></svg>