<svg xmlns="http://www.w3.org/2000/svg" xmlns:xlink="http://www.w3.org/1999/xlink" width="500" zoomAndPan="magnify" viewBox="0 0 375 374.999991" height="500" preserveAspectRatio="xMidYMid meet" version="1.0"><defs><g/><clipPath id="id1"><path d="M 177 132 L 212 132 L 212 156 L 177 156 Z M 177 132 " clip-rule="nonzero"/></clipPath><clipPath id="id2"><path d="M 175.433594 114.300781 L 224.414062 125.515625 L 215.207031 165.726562 L 166.226562 154.511719 Z M 175.433594 114.300781 " clip-rule="nonzero"/></clipPath><clipPath id="id3"><path d="M 175.433594 114.300781 L 224.414062 125.515625 L 215.207031 165.726562 L 166.226562 154.511719 Z M 175.433594 114.300781 " clip-rule="nonzero"/></clipPath><clipPath id="id4"><path d="M 173 119 L 223 119 L 223 141 L 173 141 Z M 173 119 " clip-rule="nonzero"/></clipPath><clipPath id="id5"><path d="M 175.433594 114.300781 L 224.414062 125.515625 L 215.207031 165.726562 L 166.226562 154.511719 Z M 175.433594 114.300781 " clip-rule="nonzero"/></clipPath><clipPath id="id6"><path d="M 175.433594 114.300781 L 224.414062 125.515625 L 215.207031 165.726562 L 166.226562 154.511719 Z M 175.433594 114.300781 " clip-rule="nonzero"/></clipPath><clipPath id="id7"><path d="M 172 126 L 180 126 L 180 150 L 172 150 Z M 172 126 " clip-rule="nonzero"/></clipPath><clipPath id="id8"><path d="M 175.433594 114.300781 L 224.414062 125.515625 L 215.207031 165.726562 L 166.226562 154.511719 Z M 175.433594 114.300781 " clip-rule="nonzero"/></clipPath><clipPath id="id9"><path d="M 175.433594 114.300781 L 224.414062 125.515625 L 215.207031 165.726562 L 166.226562 154.511719 Z M 175.433594 114.300781 " clip-rule="nonzero"/></clipPath><clipPath id="id10"><path d="M 168 146 L 177 146 L 177 157 L 168 157 Z M 168 146 " clip-rule="nonzero"/></clipPath><clipPath id="id11"><path d="M 175.433594 114.300781 L 224.414062 125.515625 L 215.207031 165.726562 L 166.226562 154.511719 Z M 175.433594 114.300781 " clip-rule="nonzero"/></clipPath><clipPath id="id12"><path d="M 175.433594 114.300781 L 224.414062 125.515625 L 215.207031 165.726562 L 166.226562 154.511719 Z M 175.433594 114.300781 " clip-rule="nonzero"/></clipPath></defs><rect x="-37.5" width="450" fill="rgb(100%, 100%, 100%)" y="-37.499999" height="449.999989" fill-opacity="1"/><rect x="-37.5" width="450" fill="rgb(100%, 100%, 100%)" y="-37.499999" height="449.999989" fill-opacity="1"/><rect x="-37.5" width="450" fill="rgb(100%, 100%, 100%)" y="-37.499999" height="449.999989" fill-opacity="1"/><rect x="-37.5" width="450" fill="rgb(100%, 100%, 100%)" y="-37.499999" height="449.999989" fill-opacity="1"/><g clip-path="url(#id1)"><g clip-path="url(#id2)"><g clip-path="url(#id3)"><path fill="rgb(100%, 100%, 100%)" d="M 196.046875 142.300781 C 195.1875 142.421875 194.398438 142.242188 193.675781 141.757812 L 180.546875 132.960938 L 177.691406 145.4375 C 177.636719 145.671875 177.65625 145.898438 177.742188 146.117188 C 177.828125 146.339844 177.972656 146.515625 178.167969 146.648438 L 191.363281 155.488281 C 191.601562 155.648438 191.867188 155.707031 192.152344 155.667969 L 207.878906 153.449219 C 208.113281 153.417969 208.316406 153.320312 208.492188 153.160156 C 208.667969 152.996094 208.78125 152.800781 208.832031 152.570312 L 211.691406 140.089844 Z M 196.046875 142.300781 " fill-opacity="1" fill-rule="nonzero"/></g></g></g><g clip-path="url(#id4)"><g clip-path="url(#id5)"><g clip-path="url(#id6)"><path fill="rgb(100%, 100%, 100%)" d="M 221.613281 134.355469 L 200.304688 120.070312 C 200.0625 119.910156 199.796875 119.851562 199.511719 119.890625 L 174.105469 123.476562 C 173.871094 123.511719 173.667969 123.609375 173.492188 123.769531 C 173.320312 123.929688 173.203125 124.125 173.152344 124.359375 C 173.097656 124.589844 173.117188 124.816406 173.203125 125.035156 C 173.289062 125.257812 173.433594 125.433594 173.628906 125.566406 L 194.941406 139.847656 C 195.183594 140.011719 195.445312 140.070312 195.734375 140.03125 L 221.136719 136.441406 C 221.371094 136.410156 221.578125 136.3125 221.75 136.152344 C 221.925781 135.992188 222.039062 135.796875 222.09375 135.5625 C 222.144531 135.332031 222.128906 135.105469 222.042969 134.882812 C 221.953125 134.664062 221.8125 134.488281 221.613281 134.355469 Z M 221.613281 134.355469 " fill-opacity="1" fill-rule="nonzero"/></g></g></g><g clip-path="url(#id7)"><g clip-path="url(#id8)"><g clip-path="url(#id9)"><path fill="rgb(100%, 100%, 100%)" d="M 173.34375 149.085938 C 173.195312 149.054688 173.058594 148.992188 172.9375 148.90625 C 172.8125 148.816406 172.710938 148.707031 172.632812 148.578125 C 172.550781 148.449219 172.5 148.3125 172.472656 148.160156 C 172.449219 148.011719 172.453125 147.863281 172.488281 147.714844 L 177.210938 127.078125 C 177.246094 126.929688 177.304688 126.792969 177.394531 126.671875 C 177.480469 126.546875 177.589844 126.445312 177.71875 126.363281 C 177.847656 126.28125 177.984375 126.230469 178.132812 126.203125 C 178.285156 126.179688 178.433594 126.183594 178.578125 126.214844 C 178.726562 126.25 178.863281 126.3125 178.984375 126.398438 C 179.109375 126.488281 179.210938 126.59375 179.292969 126.722656 C 179.371094 126.851562 179.425781 126.992188 179.449219 127.140625 C 179.472656 127.289062 179.46875 127.441406 179.4375 127.589844 L 174.710938 148.222656 C 174.675781 148.371094 174.617188 148.507812 174.527344 148.632812 C 174.441406 148.757812 174.332031 148.859375 174.203125 148.941406 C 174.078125 149.019531 173.9375 149.074219 173.789062 149.097656 C 173.640625 149.125 173.492188 149.121094 173.34375 149.085938 Z M 173.34375 149.085938 " fill-opacity="1" fill-rule="nonzero"/></g></g></g><g clip-path="url(#id10)"><g clip-path="url(#id11)"><g clip-path="url(#id12)"><path fill="rgb(100%, 100%, 100%)" d="M 173.855469 146.851562 C 173.414062 146.753906 172.96875 146.738281 172.519531 146.816406 C 172.070312 146.894531 171.65625 147.054688 171.269531 147.296875 C 170.886719 147.539062 170.5625 147.84375 170.300781 148.214844 C 170.035156 148.589844 169.851562 148.996094 169.75 149.441406 L 168.726562 153.90625 C 168.695312 154.054688 168.691406 154.203125 168.714844 154.355469 C 168.738281 154.503906 168.792969 154.644531 168.871094 154.773438 C 168.953125 154.902344 169.054688 155.007812 169.179688 155.097656 C 169.300781 155.183594 169.4375 155.246094 169.585938 155.277344 L 174.035156 156.296875 C 174.179688 156.332031 174.328125 156.335938 174.480469 156.308594 C 174.628906 156.285156 174.765625 156.230469 174.894531 156.152344 C 175.023438 156.070312 175.132812 155.96875 175.21875 155.84375 C 175.308594 155.71875 175.367188 155.582031 175.402344 155.433594 L 176.425781 150.96875 C 176.527344 150.523438 176.539062 150.078125 176.460938 149.628906 C 176.386719 149.179688 176.230469 148.761719 175.988281 148.375 C 175.746094 147.988281 175.441406 147.664062 175.074219 147.402344 C 174.703125 147.136719 174.296875 146.953125 173.855469 146.851562 Z M 173.855469 146.851562 " fill-opacity="1" fill-rule="nonzero"/></g></g></g><g fill="rgb(100%, 100%, 100%)" fill-opacity="1"><g transform="translate(13.696877, 222.294653)"><g><path d="M 43.195312 -36.445312 L 43.195312 -34.800781 C 46.363281 -34.566406 48.535156 -34.15625 47.652344 -31.398438 L 40.671875 -8.449219 L 32.804688 -31.398438 C 31.925781 -33.921875 33.335938 -34.566406 36.503906 -34.800781 L 36.503906 -36.445312 C 31.339844 -36.269531 26.175781 -36.269531 21.070312 -36.445312 L 21.070312 -34.800781 C 24.179688 -34.566406 24.824219 -33.921875 25.707031 -31.398438 L 26.46875 -29.34375 L 20.246094 -8.449219 L 12.382812 -31.398438 C 11.503906 -33.921875 12.910156 -34.566406 16.082031 -34.800781 L 16.082031 -36.445312 C 10.914062 -36.269531 5.75 -36.269531 0.585938 -36.445312 L 0.585938 -34.800781 C 3.757812 -34.566406 4.402344 -33.921875 5.222656 -31.398438 L 16.726562 0.527344 L 19.308594 0.527344 L 27.699219 -25.882812 L 37.148438 0.527344 L 39.730469 0.527344 L 50 -31.398438 C 50.882812 -34.15625 52.464844 -34.566406 55.578125 -34.800781 L 55.578125 -36.445312 C 51.46875 -36.269531 47.300781 -36.269531 43.195312 -36.445312 Z M 43.195312 -36.445312 "/></g></g></g><g fill="rgb(100%, 100%, 100%)" fill-opacity="1"><g transform="translate(69.860757, 222.294653)"><g><path d="M 29.578125 -3.816406 L 29.578125 -19.894531 C 29.578125 -27.992188 25.292969 -30.046875 21.246094 -30.046875 C 14.964844 -30.046875 11.855469 -25.058594 10.855469 -23.0625 L 11.386719 -26.703125 L 11.386719 -32.101562 C 11.386719 -35.742188 11.386719 -37.972656 11.738281 -39.964844 C 11.445312 -40.613281 10.972656 -41.082031 10.386719 -41.316406 C 7.6875 -39.671875 4.578125 -38.558594 1.292969 -37.972656 L 1.292969 -36.328125 C 3.460938 -36.621094 4.695312 -36.09375 4.695312 -33.921875 L 4.695312 -3.816406 C 4.695312 -2.347656 3.109375 -1.878906 1.171875 -1.644531 L 1.171875 0 C 5.75 -0.234375 10.386719 -0.234375 14.964844 0 L 14.964844 -1.644531 C 12.96875 -1.878906 11.386719 -2.347656 11.386719 -3.816406 L 11.386719 -20.773438 C 11.914062 -23.0625 14.4375 -26.878906 18.25 -26.878906 C 21.480469 -26.878906 22.945312 -24.121094 22.945312 -19.835938 L 22.945312 -3.816406 C 22.945312 -2.347656 21.363281 -1.820312 19.367188 -1.644531 L 19.367188 0 C 24.003906 -0.175781 28.582031 -0.175781 33.160156 0 L 33.160156 -1.644531 C 31.164062 -1.878906 29.578125 -2.347656 29.578125 -3.816406 Z M 29.578125 -3.816406 "/></g></g></g><g fill="rgb(100%, 100%, 100%)" fill-opacity="1"><g transform="translate(103.899477, 222.294653)"><g><path d="M 7.863281 -34.625 C 9.800781 -34.625 11.386719 -36.210938 11.386719 -38.148438 C 11.386719 -40.082031 9.800781 -41.667969 7.863281 -41.667969 C 5.925781 -41.667969 4.34375 -40.082031 4.34375 -38.148438 C 4.34375 -36.210938 5.925781 -34.625 7.863281 -34.625 Z M 11.386719 -3.816406 L 11.386719 -20.773438 C 11.386719 -24.472656 11.386719 -26.703125 11.738281 -28.699219 C 11.445312 -29.34375 10.972656 -29.8125 10.386719 -30.046875 C 7.6875 -28.40625 4.578125 -27.289062 1.292969 -26.703125 L 1.292969 -25.058594 C 3.460938 -25.351562 4.695312 -24.824219 4.695312 -22.59375 L 4.695312 -3.816406 C 4.695312 -2.347656 3.109375 -1.878906 1.171875 -1.644531 L 1.171875 0 C 5.75 -0.234375 10.386719 -0.234375 14.964844 0 L 14.964844 -1.644531 C 12.96875 -1.878906 11.386719 -2.347656 11.386719 -3.816406 Z M 11.386719 -3.816406 "/></g></g></g><g fill="rgb(100%, 100%, 100%)" fill-opacity="1"><g transform="translate(120.03853, 222.294653)"><g><path d="M 17.664062 -1.703125 L 17.664062 -3.699219 C 16.960938 -3.050781 15.609375 -2.113281 13.96875 -2.113281 C 11.5625 -2.113281 10.972656 -4.167969 10.972656 -6.574219 L 10.972656 -27.40625 L 17.664062 -27.40625 L 17.664062 -29.402344 L 10.972656 -29.402344 L 10.972656 -37.382812 L 8.863281 -37.382812 C 7.921875 -31.925781 5.867188 -29.402344 1.171875 -29.402344 L 1.171875 -27.40625 L 4.34375 -27.40625 L 4.34375 -7.6875 C 4.34375 -1.878906 7.570312 0.410156 11.738281 0.410156 C 14.261719 0.410156 16.433594 -0.410156 17.664062 -1.703125 Z M 17.664062 -1.703125 "/></g></g></g><g fill="rgb(100%, 100%, 100%)" fill-opacity="1"><g transform="translate(139.464073, 222.294653)"><g><path d="M 26.292969 -5.808594 L 24.355469 -5.808594 C 22.769531 -2.464844 19.953125 -1.292969 17.3125 -1.292969 C 11.5625 -1.292969 8.804688 -6.867188 8.804688 -14.261719 L 24.003906 -14.261719 C 26.292969 -14.261719 27.054688 -15.492188 27.054688 -18.074219 C 27.054688 -25.175781 21.890625 -29.929688 15.257812 -29.929688 C 8.273438 -29.929688 1.761719 -24.53125 1.761719 -14.613281 C 1.761719 -4.8125 8.15625 0.644531 15.84375 0.644531 C 20.894531 0.644531 24.414062 -1.585938 26.292969 -5.808594 Z M 20.714844 -16.082031 L 8.804688 -16.082031 C 8.804688 -23.535156 11.152344 -28.050781 15.199219 -28.050781 C 19.308594 -28.050781 20.714844 -23.535156 20.714844 -16.082031 Z M 20.714844 -16.082031 "/></g></g></g><g fill="rgb(0%, 0%, 0%)" fill-opacity="1"><g transform="translate(168.278902, 222.294653)"><g><path d="M 20.304688 -7.394531 C 20.304688 -3.816406 17.78125 -1.46875 13.675781 -1.46875 C 9.332031 -1.46875 5.339844 -4.050781 3.34375 -8.570312 L 1.46875 -8.570312 L 1.996094 0 L 3.992188 0 C 4.226562 -0.761719 4.871094 -1.585938 5.984375 -1.585938 C 7.863281 -1.585938 10.09375 0.761719 14.730469 0.761719 C 20.480469 0.761719 26.9375 -2.699219 26.9375 -9.742188 C 26.9375 -17.253906 19.542969 -20.011719 14.90625 -22.183594 C 10.503906 -24.296875 7.921875 -26.351562 7.921875 -29.8125 C 7.921875 -32.980469 10.152344 -35.269531 13.96875 -35.269531 C 16.960938 -35.269531 20.011719 -33.804688 22.359375 -28.816406 L 24.003906 -28.816406 L 23.59375 -36.914062 L 21.65625 -36.914062 C 21.421875 -36.152344 20.953125 -36.035156 20.304688 -36.035156 C 18.898438 -36.035156 17.195312 -37.382812 13.144531 -37.382812 C 6.28125 -37.382812 1.878906 -33.511719 1.878906 -27.699219 C 1.878906 -21.714844 6.691406 -18.429688 12.207031 -15.84375 C 17.195312 -13.5 20.304688 -11.386719 20.304688 -7.394531 Z M 20.304688 -7.394531 "/></g></g></g><g fill="rgb(0%, 0%, 0%)" fill-opacity="1"><g transform="translate(196.683628, 222.294653)"><g><path d="M 26 -5.808594 L 24.003906 -5.808594 C 22.59375 -2.582031 19.777344 -1.410156 17.3125 -1.410156 C 11.738281 -1.410156 8.921875 -7.160156 8.921875 -15.375 C 8.921875 -23.0625 11.386719 -28.050781 15.84375 -28.050781 C 19.367188 -28.050781 19.953125 -25 19.953125 -22.125 C 19.953125 -20.597656 21.011719 -19.308594 22.945312 -19.308594 C 25.117188 -19.308594 26.175781 -20.894531 26.175781 -22.242188 C 26.175781 -26.292969 21.832031 -29.929688 15.726562 -29.929688 C 8.214844 -29.929688 1.761719 -24.414062 1.761719 -14.789062 C 1.761719 -5.046875 8.273438 0.644531 15.90625 0.644531 C 20.714844 0.644531 24.121094 -1.644531 26 -5.808594 Z M 26 -5.808594 "/></g></g></g><g fill="rgb(0%, 0%, 0%)" fill-opacity="1"><g transform="translate(224.618849, 222.294653)"><g><path d="M 29.578125 -3.816406 L 29.578125 -19.894531 C 29.578125 -27.992188 25.292969 -30.046875 21.246094 -30.046875 C 14.964844 -30.046875 11.855469 -25.058594 10.855469 -23.0625 L 11.386719 -26.703125 L 11.386719 -32.101562 C 11.386719 -35.742188 11.386719 -37.972656 11.738281 -39.964844 C 11.445312 -40.613281 10.972656 -41.082031 10.386719 -41.316406 C 7.6875 -39.671875 4.578125 -38.558594 1.292969 -37.972656 L 1.292969 -36.328125 C 3.460938 -36.621094 4.695312 -36.09375 4.695312 -33.921875 L 4.695312 -3.816406 C 4.695312 -2.347656 3.109375 -1.878906 1.171875 -1.644531 L 1.171875 0 C 5.75 -0.234375 10.386719 -0.234375 14.964844 0 L 14.964844 -1.644531 C 12.96875 -1.878906 11.386719 -2.347656 11.386719 -3.816406 L 11.386719 -20.773438 C 11.914062 -23.0625 14.4375 -26.878906 18.25 -26.878906 C 21.480469 -26.878906 22.945312 -24.121094 22.945312 -19.835938 L 22.945312 -3.816406 C 22.945312 -2.347656 21.363281 -1.820312 19.367188 -1.644531 L 19.367188 0 C 24.003906 -0.175781 28.582031 -0.175781 33.160156 0 L 33.160156 -1.644531 C 31.164062 -1.878906 29.578125 -2.347656 29.578125 -3.816406 Z M 29.578125 -3.816406 "/></g></g></g><g fill="rgb(0%, 0%, 0%)" fill-opacity="1"><g transform="translate(258.65757, 222.294653)"><g><path d="M 15.316406 -29.929688 C 8.746094 -29.929688 1.761719 -24.765625 1.761719 -14.730469 C 1.761719 -4.871094 8.746094 0.644531 15.492188 0.644531 C 22.066406 0.644531 29.050781 -4.519531 29.050781 -14.554688 C 29.050781 -24.414062 22.066406 -29.929688 15.316406 -29.929688 Z M 16.257812 -1.234375 C 11.738281 -1.234375 8.804688 -7.570312 8.804688 -16.433594 C 8.804688 -24.121094 10.972656 -28.050781 14.554688 -28.050781 C 19.074219 -28.050781 22.007812 -21.773438 22.007812 -12.910156 C 22.007812 -5.164062 19.835938 -1.234375 16.257812 -1.234375 Z M 16.257812 -1.234375 "/></g></g></g><g fill="rgb(0%, 0%, 0%)" fill-opacity="1"><g transform="translate(289.468473, 222.294653)"><g><path d="M 11.386719 -3.816406 L 11.386719 -32.101562 C 11.386719 -35.742188 11.386719 -37.972656 11.738281 -39.964844 C 11.445312 -40.613281 10.972656 -41.082031 10.386719 -41.316406 C 7.6875 -39.671875 4.578125 -38.558594 1.292969 -37.972656 L 1.292969 -36.328125 C 3.460938 -36.621094 4.695312 -36.09375 4.695312 -33.921875 L 4.695312 -3.816406 C 4.695312 -2.347656 3.109375 -1.878906 1.171875 -1.644531 L 1.171875 0 C 5.75 -0.234375 10.386719 -0.234375 14.964844 0 L 14.964844 -1.644531 C 12.96875 -1.878906 11.386719 -2.347656 11.386719 -3.816406 Z M 11.386719 -3.816406 "/></g></g></g><g fill="rgb(0%, 0%, 0%)" fill-opacity="1"><g transform="translate(305.607526, 222.294653)"><g><path d="M 25.707031 -5.925781 L 25.707031 -20.773438 C 25.707031 -27.933594 22.886719 -29.929688 16.902344 -29.929688 C 8.921875 -29.929688 3.285156 -26.410156 3.285156 -22.183594 C 3.285156 -20.421875 4.226562 -19.25 6.339844 -19.25 C 11.972656 -19.25 7.394531 -28.171875 14.90625 -28.171875 C 18.546875 -28.171875 19.074219 -26.117188 19.074219 -20.894531 L 19.074219 -18.191406 C 5.222656 -15.199219 1.46875 -11.796875 1.46875 -6.75 C 1.46875 -1.234375 5.808594 0.703125 9.625 0.703125 C 15.023438 0.703125 18.132812 -3.109375 19.132812 -4.8125 L 19.484375 -4.8125 L 19.191406 -0.585938 C 19.425781 0 19.835938 0.46875 20.539062 0.703125 C 23.121094 0.0585938 25.707031 -0.351562 29.285156 -0.527344 L 29.285156 -2.230469 C 26.996094 -2.289062 25.707031 -3.226562 25.707031 -5.925781 Z M 12.558594 -2.230469 C 10.152344 -2.230469 8.273438 -4.050781 8.273438 -7.277344 C 8.273438 -9.742188 9.332031 -14.261719 19.074219 -16.609375 L 19.074219 -7.511719 C 18.429688 -5.925781 15.90625 -2.230469 12.558594 -2.230469 Z M 12.558594 -2.230469 "/></g></g></g><g fill="rgb(0%, 0%, 0%)" fill-opacity="1"><g transform="translate(336.066306, 222.294653)"><g><path d="M 19.601562 -30.046875 C 15.433594 -30.046875 12.441406 -27.054688 10.503906 -22.125 L 10.152344 -22.125 L 11.445312 -28.699219 C 11.210938 -29.34375 10.738281 -29.8125 10.09375 -30.046875 C 7.570312 -28.464844 4.753906 -27.347656 1.171875 -26.703125 L 1.171875 -25.058594 C 3.460938 -25.351562 4.695312 -24.824219 4.695312 -22.59375 L 4.695312 -3.816406 C 4.695312 -2.347656 3.109375 -1.878906 1.171875 -1.644531 L 1.171875 0 C 5.75 -0.234375 10.5625 -0.234375 15.257812 0 L 15.257812 -1.644531 C 13.203125 -1.878906 11.386719 -2.347656 11.386719 -3.816406 L 11.386719 -20.070312 C 11.5625 -21.363281 13.085938 -25.765625 16.199219 -25.765625 C 18.722656 -25.765625 19.132812 -23.0625 21.714844 -23.0625 C 23.359375 -23.0625 24.648438 -24.238281 24.648438 -26.117188 C 24.648438 -28.40625 22.710938 -30.046875 19.601562 -30.046875 Z M 19.601562 -30.046875 "/></g></g></g></svg>