<svg xmlns="http://www.w3.org/2000/svg" xmlns:xlink="http://www.w3.org/1999/xlink" width="1200" zoomAndPan="magnify" viewBox="0 0 900 470.999988" height="628" preserveAspectRatio="xMidYMid meet" version="1.0"><defs><clipPath id="id1"><path d="M 303.515625 56.851562 L 596.765625 56.851562 L 596.765625 423.601562 L 303.515625 423.601562 Z M 303.515625 56.851562 " clip-rule="nonzero"/></clipPath></defs><path fill="rgb(9.799194%, 68.238831%, 100%)" d="M 314.289062 67.566406 L 585.992188 67.566406 L 585.992188 412.882812 L 314.289062 412.882812 Z M 314.289062 67.566406 " fill-opacity="1" fill-rule="nonzero"/><g clip-path="url(#id1)"><path stroke-linecap="round" transform="matrix(0.85879, 0, 0, 0.857247, -524.638201, 138.457812)" fill="none" stroke-linejoin="round" d="M 976.871774 -82.69661 L 1293.250947 -82.69661 L 1293.250947 320.123672 L 976.871774 320.123672 Z M 976.871774 -82.69661 " stroke="rgb(17.649841%, 17.649841%, 17.649841%)" stroke-width="25" stroke-opacity="1" stroke-miterlimit="4"/></g><path fill="rgb(25.099182%, 25.099182%, 25.099182%)" d="M 340.886719 93.617188 L 427.71875 93.617188 L 427.71875 181.316406 L 340.886719 181.316406 Z M 340.886719 93.617188 " fill-opacity="1" fill-rule="nonzero"/><path fill="rgb(100%, 39.99939%, 0%)" d="M 384.472656 151.308594 C 382.320312 151.3125 380.175781 151.488281 378.039062 151.828125 C 375.902344 152.171875 373.792969 152.675781 371.710938 153.351562 C 369.628906 154.023438 367.589844 154.859375 365.59375 155.855469 C 363.597656 156.847656 361.660156 157.996094 359.785156 159.296875 C 357.910156 160.59375 356.109375 162.035156 354.382812 163.621094 C 352.65625 165.203125 351.019531 166.914062 349.472656 168.757812 C 347.925781 170.597656 346.480469 172.550781 345.136719 174.621094 C 343.792969 176.6875 342.5625 178.855469 341.441406 181.117188 L 427.527344 181.117188 C 426.410156 178.851562 425.175781 176.6875 423.832031 174.617188 C 422.488281 172.546875 421.042969 170.59375 419.492188 168.753906 C 417.945312 166.910156 416.308594 165.199219 414.582031 163.613281 C 412.855469 162.03125 411.050781 160.589844 409.175781 159.289062 C 407.296875 157.992188 405.363281 156.84375 403.363281 155.847656 C 401.367188 154.855469 399.328125 154.019531 397.242188 153.347656 C 395.160156 152.671875 393.050781 152.167969 390.914062 151.824219 C 388.777344 151.484375 386.628906 151.3125 384.476562 151.308594 Z M 384.472656 151.308594 " fill-opacity="1" fill-rule="nonzero"/><path fill="rgb(100%, 39.99939%, 0%)" d="M 409.082031 128.609375 C 409.082031 129.644531 409.039062 130.675781 408.957031 131.703125 C 408.875 132.730469 408.75 133.75 408.585938 134.761719 C 408.421875 135.777344 408.21875 136.777344 407.976562 137.765625 C 407.730469 138.753906 407.449219 139.726562 407.128906 140.679688 C 406.804688 141.632812 406.445312 142.566406 406.050781 143.476562 C 405.652344 144.386719 405.222656 145.273438 404.753906 146.132812 C 404.289062 146.988281 403.789062 147.820312 403.253906 148.617188 C 402.722656 149.414062 402.160156 150.179688 401.5625 150.910156 C 400.96875 151.640625 400.347656 152.332031 399.699219 152.988281 C 399.046875 153.644531 398.375 154.257812 397.675781 154.832031 C 396.976562 155.40625 396.257812 155.9375 395.515625 156.421875 C 394.773438 156.910156 394.015625 157.351562 393.238281 157.746094 C 392.460938 158.140625 391.671875 158.488281 390.867188 158.789062 C 390.0625 159.089844 389.25 159.339844 388.425781 159.542969 C 387.601562 159.742188 386.769531 159.894531 385.933594 159.996094 C 385.097656 160.097656 384.257812 160.148438 383.417969 160.148438 C 382.578125 160.148438 381.738281 160.097656 380.902344 159.996094 C 380.066406 159.894531 379.234375 159.742188 378.410156 159.542969 C 377.585938 159.339844 376.773438 159.089844 375.96875 158.789062 C 375.164062 158.488281 374.375 158.140625 373.597656 157.746094 C 372.820312 157.351562 372.0625 156.910156 371.320312 156.421875 C 370.578125 155.9375 369.859375 155.40625 369.160156 154.832031 C 368.460938 154.257812 367.785156 153.644531 367.136719 152.988281 C 366.488281 152.332031 365.867188 151.640625 365.269531 150.910156 C 364.675781 150.179688 364.113281 149.414062 363.578125 148.617188 C 363.046875 147.820312 362.546875 146.988281 362.078125 146.132812 C 361.613281 145.273438 361.179688 144.386719 360.785156 143.476562 C 360.386719 142.566406 360.03125 141.632812 359.707031 140.679688 C 359.386719 139.726562 359.105469 138.753906 358.859375 137.765625 C 358.617188 136.777344 358.410156 135.777344 358.246094 134.761719 C 358.082031 133.75 357.960938 132.730469 357.878906 131.703125 C 357.796875 130.675781 357.753906 129.644531 357.753906 128.609375 C 357.753906 127.578125 357.796875 126.546875 357.878906 125.519531 C 357.960938 124.492188 358.082031 123.472656 358.246094 122.457031 C 358.410156 121.445312 358.617188 120.445312 358.859375 119.457031 C 359.105469 118.46875 359.386719 117.496094 359.707031 116.542969 C 360.03125 115.589844 360.390625 114.65625 360.785156 113.746094 C 361.179688 112.835938 361.613281 111.949219 362.078125 111.089844 C 362.546875 110.230469 363.046875 109.402344 363.578125 108.605469 C 364.113281 107.804688 364.675781 107.042969 365.269531 106.3125 C 365.867188 105.582031 366.488281 104.886719 367.136719 104.234375 C 367.785156 103.578125 368.460938 102.964844 369.160156 102.390625 C 369.859375 101.816406 370.578125 101.285156 371.320312 100.796875 C 372.0625 100.3125 372.820312 99.871094 373.597656 99.476562 C 374.375 99.082031 375.164062 98.734375 375.96875 98.433594 C 376.773438 98.132812 377.585938 97.882812 378.410156 97.679688 C 379.234375 97.480469 380.066406 97.328125 380.902344 97.226562 C 381.738281 97.125 382.578125 97.074219 383.417969 97.074219 C 384.257812 97.074219 385.097656 97.125 385.933594 97.226562 C 386.769531 97.328125 387.601562 97.480469 388.425781 97.679688 C 389.25 97.882812 390.0625 98.132812 390.867188 98.433594 C 391.671875 98.734375 392.460938 99.082031 393.238281 99.476562 C 394.015625 99.871094 394.773438 100.3125 395.515625 100.796875 C 396.257812 101.285156 396.976562 101.816406 397.675781 102.390625 C 398.375 102.964844 399.046875 103.578125 399.699219 104.234375 C 400.347656 104.886719 400.96875 105.582031 401.5625 106.3125 C 402.160156 107.042969 402.722656 107.804688 403.253906 108.605469 C 403.789062 109.402344 404.289062 110.230469 404.753906 111.089844 C 405.222656 111.949219 405.652344 112.835938 406.050781 113.746094 C 406.445312 114.65625 406.804688 115.589844 407.128906 116.542969 C 407.449219 117.496094 407.730469 118.46875 407.976562 119.457031 C 408.21875 120.445312 408.421875 121.445312 408.585938 122.457031 C 408.75 123.472656 408.875 124.492188 408.957031 125.519531 C 409.039062 126.546875 409.082031 127.578125 409.082031 128.609375 Z M 409.082031 128.609375 " fill-opacity="1" fill-rule="nonzero"/><path fill="rgb(5.488586%, 13.729858%, 18.03894%)" d="M 453.839844 94.128906 L 554.285156 94.128906 C 554.710938 94.128906 555.132812 94.183594 555.554688 94.292969 C 555.972656 94.402344 556.378906 94.566406 556.773438 94.78125 C 557.167969 94.996094 557.542969 95.261719 557.898438 95.574219 C 558.25 95.886719 558.578125 96.242188 558.882812 96.640625 C 559.183594 97.035156 559.453125 97.46875 559.691406 97.9375 C 559.925781 98.40625 560.128906 98.898438 560.289062 99.417969 C 560.453125 99.941406 560.578125 100.476562 560.660156 101.027344 C 560.746094 101.578125 560.785156 102.136719 560.785156 102.699219 L 560.785156 105.128906 C 560.785156 105.691406 560.746094 106.25 560.660156 106.800781 C 560.578125 107.351562 560.453125 107.886719 560.289062 108.410156 C 560.128906 108.929688 559.925781 109.421875 559.691406 109.890625 C 559.453125 110.359375 559.183594 110.792969 558.882812 111.191406 C 558.578125 111.585938 558.25 111.941406 557.898438 112.253906 C 557.542969 112.570312 557.167969 112.832031 556.773438 113.046875 C 556.378906 113.261719 555.972656 113.425781 555.554688 113.535156 C 555.132812 113.644531 554.710938 113.699219 554.285156 113.699219 L 453.839844 113.699219 C 453.414062 113.699219 452.992188 113.644531 452.574219 113.535156 C 452.152344 113.425781 451.746094 113.261719 451.351562 113.046875 C 450.957031 112.832031 450.582031 112.570312 450.230469 112.253906 C 449.875 111.941406 449.546875 111.585938 449.242188 111.191406 C 448.941406 110.792969 448.671875 110.359375 448.433594 109.890625 C 448.199219 109.421875 447.996094 108.929688 447.835938 108.410156 C 447.671875 107.886719 447.546875 107.351562 447.464844 106.800781 C 447.382812 106.25 447.339844 105.691406 447.339844 105.128906 L 447.339844 102.699219 C 447.339844 102.136719 447.382812 101.578125 447.464844 101.027344 C 447.546875 100.476562 447.671875 99.941406 447.835938 99.417969 C 447.996094 98.898438 448.199219 98.40625 448.433594 97.9375 C 448.671875 97.46875 448.941406 97.035156 449.242188 96.640625 C 449.546875 96.242188 449.875 95.886719 450.230469 95.574219 C 450.582031 95.261719 450.957031 94.996094 451.351562 94.78125 C 451.746094 94.566406 452.152344 94.402344 452.574219 94.292969 C 452.992188 94.183594 453.414062 94.128906 453.839844 94.128906 Z M 453.839844 94.128906 " fill-opacity="1" fill-rule="nonzero"/><path fill="rgb(5.488586%, 13.729858%, 18.03894%)" d="M 454.527344 127.679688 L 554.972656 127.679688 C 555.398438 127.679688 555.820312 127.734375 556.238281 127.84375 C 556.660156 127.953125 557.066406 128.117188 557.460938 128.332031 C 557.855469 128.546875 558.230469 128.8125 558.582031 129.125 C 558.9375 129.4375 559.265625 129.792969 559.570312 130.191406 C 559.871094 130.589844 560.140625 131.023438 560.378906 131.492188 C 560.613281 131.957031 560.8125 132.453125 560.976562 132.972656 C 561.140625 133.492188 561.265625 134.027344 561.347656 134.582031 C 561.429688 135.132812 561.472656 135.691406 561.472656 136.253906 L 561.472656 138.679688 C 561.472656 139.242188 561.429688 139.800781 561.347656 140.351562 C 561.265625 140.90625 561.140625 141.441406 560.976562 141.960938 C 560.8125 142.480469 560.613281 142.976562 560.378906 143.441406 C 560.140625 143.910156 559.871094 144.34375 559.570312 144.742188 C 559.265625 145.140625 558.9375 145.496094 558.582031 145.808594 C 558.230469 146.121094 557.855469 146.386719 557.460938 146.601562 C 557.066406 146.816406 556.660156 146.980469 556.238281 147.089844 C 555.820312 147.199219 555.398438 147.253906 554.972656 147.253906 L 454.527344 147.253906 C 454.101562 147.253906 453.679688 147.199219 453.257812 147.089844 C 452.839844 146.980469 452.433594 146.816406 452.039062 146.601562 C 451.644531 146.386719 451.269531 146.121094 450.914062 145.808594 C 450.5625 145.496094 450.234375 145.140625 449.929688 144.742188 C 449.628906 144.34375 449.359375 143.910156 449.121094 143.441406 C 448.886719 142.976562 448.683594 142.480469 448.523438 141.960938 C 448.359375 141.441406 448.234375 140.90625 448.152344 140.351562 C 448.066406 139.800781 448.027344 139.242188 448.027344 138.679688 L 448.027344 136.253906 C 448.027344 135.691406 448.066406 135.132812 448.152344 134.582031 C 448.234375 134.027344 448.359375 133.492188 448.523438 132.972656 C 448.683594 132.453125 448.886719 131.957031 449.121094 131.492188 C 449.359375 131.023438 449.628906 130.589844 449.929688 130.191406 C 450.234375 129.792969 450.5625 129.4375 450.914062 129.125 C 451.269531 128.8125 451.644531 128.546875 452.039062 128.332031 C 452.433594 128.117188 452.839844 127.953125 453.257812 127.84375 C 453.679688 127.734375 454.101562 127.679688 454.527344 127.679688 Z M 454.527344 127.679688 " fill-opacity="1" fill-rule="nonzero"/><path fill="rgb(5.488586%, 13.729858%, 18.03894%)" d="M 351.230469 198.980469 L 543.433594 198.980469 C 544.25 198.980469 545.058594 199.035156 545.859375 199.144531 C 546.660156 199.253906 547.4375 199.417969 548.195312 199.632812 C 548.949219 199.847656 549.664062 200.113281 550.34375 200.425781 C 551.023438 200.738281 551.652344 201.09375 552.230469 201.492188 C 552.808594 201.890625 553.324219 202.320312 553.777344 202.789062 C 554.230469 203.257812 554.613281 203.753906 554.925781 204.273438 C 555.238281 204.792969 555.476562 205.328125 555.632812 205.878906 C 555.792969 206.433594 555.875 206.988281 555.875 207.554688 L 555.875 209.980469 C 555.875 210.542969 555.792969 211.101562 555.632812 211.652344 C 555.476562 212.203125 555.238281 212.742188 554.925781 213.261719 C 554.613281 213.78125 554.230469 214.273438 553.777344 214.742188 C 553.324219 215.210938 552.808594 215.644531 552.230469 216.042969 C 551.652344 216.441406 551.023438 216.796875 550.34375 217.109375 C 549.664062 217.421875 548.949219 217.683594 548.195312 217.902344 C 547.4375 218.117188 546.660156 218.277344 545.859375 218.386719 C 545.058594 218.5 544.25 218.554688 543.433594 218.554688 L 351.230469 218.554688 C 350.414062 218.554688 349.601562 218.5 348.800781 218.386719 C 348 218.277344 347.222656 218.117188 346.46875 217.902344 C 345.714844 217.683594 344.996094 217.421875 344.316406 217.109375 C 343.636719 216.796875 343.011719 216.441406 342.433594 216.042969 C 341.855469 215.644531 341.339844 215.210938 340.886719 214.742188 C 340.429688 214.273438 340.046875 213.78125 339.734375 213.261719 C 339.421875 212.742188 339.1875 212.203125 339.027344 211.652344 C 338.867188 211.101562 338.789062 210.542969 338.789062 209.980469 L 338.789062 207.554688 C 338.789062 206.988281 338.867188 206.433594 339.027344 205.878906 C 339.1875 205.328125 339.421875 204.792969 339.734375 204.273438 C 340.046875 203.753906 340.429688 203.257812 340.886719 202.789062 C 341.339844 202.320312 341.855469 201.890625 342.433594 201.492188 C 343.011719 201.09375 343.636719 200.738281 344.316406 200.425781 C 344.996094 200.113281 345.714844 199.847656 346.46875 199.632812 C 347.222656 199.417969 348 199.253906 348.800781 199.144531 C 349.601562 199.035156 350.414062 198.980469 351.230469 198.980469 Z M 351.230469 198.980469 " fill-opacity="1" fill-rule="nonzero"/><path fill="rgb(5.488586%, 13.729858%, 18.03894%)" d="M 351.230469 239.519531 L 543.433594 239.519531 C 544.25 239.519531 545.058594 239.574219 545.859375 239.683594 C 546.660156 239.792969 547.4375 239.957031 548.195312 240.171875 C 548.949219 240.386719 549.664062 240.652344 550.34375 240.964844 C 551.023438 241.277344 551.652344 241.632812 552.230469 242.03125 C 552.808594 242.425781 553.324219 242.859375 553.777344 243.328125 C 554.230469 243.796875 554.613281 244.289062 554.925781 244.8125 C 555.238281 245.332031 555.476562 245.867188 555.632812 246.417969 C 555.792969 246.972656 555.875 247.527344 555.875 248.089844 L 555.875 250.519531 C 555.875 251.082031 555.792969 251.640625 555.632812 252.191406 C 555.476562 252.742188 555.238281 253.28125 554.925781 253.800781 C 554.613281 254.320312 554.230469 254.8125 553.777344 255.28125 C 553.324219 255.75 552.808594 256.183594 552.230469 256.582031 C 551.652344 256.976562 551.023438 257.332031 550.34375 257.648438 C 549.664062 257.960938 548.949219 258.222656 548.195312 258.4375 C 547.4375 258.652344 546.660156 258.816406 545.859375 258.925781 C 545.058594 259.035156 544.25 259.089844 543.433594 259.089844 L 351.230469 259.089844 C 350.414062 259.089844 349.601562 259.035156 348.800781 258.925781 C 348 258.816406 347.222656 258.652344 346.46875 258.4375 C 345.714844 258.222656 344.996094 257.960938 344.316406 257.648438 C 343.636719 257.332031 343.011719 256.976562 342.433594 256.582031 C 341.855469 256.183594 341.339844 255.75 340.886719 255.28125 C 340.429688 254.8125 340.046875 254.320312 339.734375 253.800781 C 339.421875 253.28125 339.1875 252.742188 339.027344 252.191406 C 338.867188 251.640625 338.789062 251.082031 338.789062 250.519531 L 338.789062 248.089844 C 338.789062 247.527344 338.867188 246.972656 339.027344 246.417969 C 339.1875 245.867188 339.421875 245.332031 339.734375 244.8125 C 340.046875 244.289062 340.429688 243.796875 340.886719 243.328125 C 341.339844 242.859375 341.855469 242.425781 342.433594 242.03125 C 343.011719 241.632812 343.636719 241.277344 344.316406 240.964844 C 344.996094 240.652344 345.714844 240.386719 346.46875 240.171875 C 347.222656 239.957031 348 239.792969 348.800781 239.683594 C 349.601562 239.574219 350.414062 239.519531 351.230469 239.519531 Z M 351.230469 239.519531 " fill-opacity="1" fill-rule="nonzero"/><path fill="rgb(5.488586%, 13.729858%, 18.03894%)" d="M 351.230469 277.273438 L 543.433594 277.273438 C 544.25 277.273438 545.058594 277.328125 545.859375 277.4375 C 546.660156 277.546875 547.4375 277.707031 548.195312 277.925781 C 548.949219 278.140625 549.664062 278.402344 550.34375 278.714844 C 551.023438 279.027344 551.652344 279.382812 552.230469 279.78125 C 552.808594 280.179688 553.324219 280.613281 553.777344 281.082031 C 554.230469 281.550781 554.613281 282.042969 554.925781 282.5625 C 555.238281 283.082031 555.476562 283.621094 555.632812 284.171875 C 555.792969 284.722656 555.875 285.28125 555.875 285.84375 L 555.875 288.273438 C 555.875 288.835938 555.792969 289.390625 555.632812 289.945312 C 555.476562 290.496094 555.238281 291.03125 554.925781 291.550781 C 554.613281 292.074219 554.230469 292.566406 553.777344 293.035156 C 553.324219 293.503906 552.808594 293.9375 552.230469 294.332031 C 551.652344 294.730469 551.023438 295.085938 550.34375 295.398438 C 549.664062 295.710938 548.949219 295.976562 548.195312 296.191406 C 547.4375 296.40625 546.660156 296.570312 545.859375 296.679688 C 545.058594 296.789062 544.25 296.84375 543.433594 296.84375 L 351.230469 296.84375 C 350.414062 296.84375 349.601562 296.789062 348.800781 296.679688 C 348 296.570312 347.222656 296.40625 346.46875 296.191406 C 345.714844 295.976562 344.996094 295.710938 344.316406 295.398438 C 343.636719 295.085938 343.011719 294.730469 342.433594 294.332031 C 341.855469 293.9375 341.339844 293.503906 340.886719 293.035156 C 340.429688 292.566406 340.046875 292.074219 339.734375 291.550781 C 339.421875 291.03125 339.1875 290.496094 339.027344 289.945312 C 338.867188 289.390625 338.789062 288.835938 338.789062 288.273438 L 338.789062 285.84375 C 338.789062 285.28125 338.867188 284.722656 339.027344 284.171875 C 339.1875 283.621094 339.421875 283.082031 339.734375 282.5625 C 340.046875 282.042969 340.429688 281.550781 340.886719 281.082031 C 341.339844 280.613281 341.855469 280.179688 342.433594 279.78125 C 343.011719 279.382812 343.636719 279.027344 344.316406 278.714844 C 344.996094 278.402344 345.714844 278.140625 346.46875 277.925781 C 347.222656 277.707031 348 277.546875 348.800781 277.4375 C 349.601562 277.328125 350.414062 277.273438 351.230469 277.273438 Z M 351.230469 277.273438 " fill-opacity="1" fill-rule="nonzero"/><path fill="rgb(5.488586%, 13.729858%, 18.03894%)" d="M 345.210938 317.8125 L 444.414062 317.8125 C 444.835938 317.8125 445.253906 317.867188 445.667969 317.976562 C 446.078125 318.085938 446.480469 318.25 446.871094 318.464844 C 447.261719 318.679688 447.628906 318.941406 447.980469 319.253906 C 448.332031 319.570312 448.65625 319.921875 448.953125 320.320312 C 449.253906 320.71875 449.519531 321.152344 449.753906 321.621094 C 449.988281 322.089844 450.183594 322.582031 450.347656 323.101562 C 450.507812 323.621094 450.628906 324.160156 450.710938 324.710938 C 450.792969 325.261719 450.835938 325.820312 450.835938 326.382812 L 450.835938 328.8125 C 450.835938 329.375 450.792969 329.929688 450.710938 330.484375 C 450.628906 331.035156 450.507812 331.570312 450.347656 332.089844 C 450.183594 332.613281 449.988281 333.105469 449.753906 333.574219 C 449.519531 334.042969 449.253906 334.476562 448.953125 334.871094 C 448.65625 335.269531 448.332031 335.625 447.980469 335.9375 C 447.628906 336.25 447.261719 336.515625 446.871094 336.730469 C 446.480469 336.945312 446.078125 337.109375 445.667969 337.21875 C 445.253906 337.328125 444.835938 337.382812 444.414062 337.382812 L 345.210938 337.382812 C 344.789062 337.382812 344.371094 337.328125 343.957031 337.21875 C 343.542969 337.109375 343.140625 336.945312 342.753906 336.730469 C 342.363281 336.515625 341.992188 336.25 341.640625 335.9375 C 341.292969 335.625 340.96875 335.269531 340.667969 334.871094 C 340.371094 334.476562 340.105469 334.042969 339.871094 333.574219 C 339.636719 333.105469 339.4375 332.613281 339.277344 332.089844 C 339.117188 331.570312 338.996094 331.035156 338.914062 330.484375 C 338.828125 329.929688 338.789062 329.375 338.789062 328.8125 L 338.789062 326.382812 C 338.789062 325.820312 338.828125 325.261719 338.914062 324.710938 C 338.996094 324.160156 339.117188 323.621094 339.277344 323.101562 C 339.4375 322.582031 339.636719 322.089844 339.871094 321.621094 C 340.105469 321.152344 340.371094 320.71875 340.667969 320.320312 C 340.96875 319.921875 341.292969 319.570312 341.640625 319.253906 C 341.992188 318.941406 342.363281 318.679688 342.753906 318.464844 C 343.140625 318.25 343.542969 318.085938 343.957031 317.976562 C 344.371094 317.867188 344.789062 317.8125 345.210938 317.8125 Z M 345.210938 317.8125 " fill-opacity="1" fill-rule="nonzero"/><path fill="rgb(5.488586%, 13.729858%, 18.03894%)" d="M 491.652344 366.742188 L 544.503906 366.742188 C 545.070312 366.742188 545.628906 366.796875 546.179688 366.90625 C 546.734375 367.015625 547.269531 367.179688 547.792969 367.394531 C 548.3125 367.609375 548.808594 367.875 549.277344 368.1875 C 549.746094 368.5 550.179688 368.855469 550.578125 369.253906 C 550.976562 369.652344 551.332031 370.085938 551.644531 370.550781 C 551.957031 371.019531 552.222656 371.515625 552.4375 372.035156 C 552.65625 372.554688 552.816406 373.089844 552.929688 373.644531 C 553.039062 374.195312 553.09375 374.753906 553.09375 375.316406 L 553.09375 377.742188 C 553.09375 378.304688 553.039062 378.863281 552.929688 379.414062 C 552.816406 379.96875 552.65625 380.503906 552.4375 381.023438 C 552.222656 381.542969 551.957031 382.039062 551.644531 382.503906 C 551.332031 382.972656 550.976562 383.40625 550.578125 383.804688 C 550.179688 384.203125 549.746094 384.558594 549.277344 384.871094 C 548.808594 385.183594 548.3125 385.449219 547.792969 385.664062 C 547.269531 385.878906 546.734375 386.039062 546.179688 386.152344 C 545.628906 386.261719 545.070312 386.316406 544.503906 386.316406 L 491.652344 386.316406 C 491.089844 386.316406 490.53125 386.261719 489.976562 386.152344 C 489.425781 386.039062 488.886719 385.878906 488.367188 385.664062 C 487.847656 385.449219 487.351562 385.183594 486.882812 384.871094 C 486.414062 384.558594 485.980469 384.203125 485.582031 383.804688 C 485.183594 383.40625 484.824219 382.972656 484.511719 382.503906 C 484.199219 382.039062 483.933594 381.542969 483.71875 381.023438 C 483.503906 380.503906 483.339844 379.96875 483.230469 379.414062 C 483.121094 378.863281 483.066406 378.304688 483.066406 377.742188 L 483.066406 375.316406 C 483.066406 374.753906 483.121094 374.195312 483.230469 373.644531 C 483.339844 373.089844 483.503906 372.554688 483.71875 372.035156 C 483.933594 371.515625 484.199219 371.019531 484.511719 370.550781 C 484.824219 370.085938 485.183594 369.652344 485.582031 369.253906 C 485.980469 368.855469 486.414062 368.5 486.882812 368.1875 C 487.351562 367.875 487.847656 367.609375 488.367188 367.394531 C 488.886719 367.179688 489.425781 367.015625 489.976562 366.90625 C 490.53125 366.796875 491.089844 366.742188 491.652344 366.742188 Z M 491.652344 366.742188 " fill-opacity="1" fill-rule="nonzero"/></svg>