<svg xmlns="http://www.w3.org/2000/svg" xmlns:xlink="http://www.w3.org/1999/xlink" width="1200" zoomAndPan="magnify" viewBox="0 0 900 470.999988" height="628" preserveAspectRatio="xMidYMid meet" version="1.0"><defs><clipPath id="id1"><path d="M 286.765625 72.265625 L 613.015625 72.265625 L 613.015625 398.515625 L 286.765625 398.515625 Z M 286.765625 72.265625 " clip-rule="nonzero"/></clipPath></defs><path fill="rgb(98.81897%, 84.309387%, 43.919373%)" d="M 428.84375 119.625 L 485.039062 119.625 C 482.71875 126.203125 481.464844 133.292969 481.464844 140.671875 C 481.464844 149.410156 483.25 157.773438 486.417969 165.359375 C 478.152344 162.976562 469.460938 161.722656 460.414062 161.722656 C 427.464844 161.722656 398.484375 178.515625 381.546875 204.023438 C 380.230469 203.878906 378.914062 203.820312 377.597656 203.820312 L 363.640625 203.820312 C 360.703125 203.820312 357.804688 204.1875 355.070312 204.867188 C 355.277344 199.359375 353.179688 193.871094 349.128906 189.78125 L 341.339844 182.03125 L 386.007812 137.363281 L 393.796875 145.132812 C 399.59375 150.992188 408.371094 152.71875 415.996094 149.511719 C 416.058594 149.511719 416.160156 149.449219 416.261719 149.410156 C 423.847656 146.304688 428.84375 138.886719 428.84375 130.621094 L 428.84375 119.625 " fill-opacity="1" fill-rule="nonzero"/><path fill="rgb(98.81897%, 84.309387%, 43.919373%)" d="M 544.609375 203.820312 C 552.195312 203.820312 559.449219 202.503906 566.191406 200.035156 C 565.347656 203.984375 565.71875 208.136719 567.34375 212.019531 C 567.34375 212.082031 567.40625 212.183594 567.445312 212.289062 C 570.550781 219.871094 577.96875 224.867188 586.234375 224.867188 L 597.230469 224.867188 L 597.230469 288.011719 L 586.234375 288.011719 C 577.96875 288.011719 570.550781 293.007812 567.445312 300.589844 C 567.40625 300.695312 567.34375 300.796875 567.34375 300.859375 C 564.136719 308.484375 565.863281 317.261719 571.699219 323.058594 L 579.492188 330.847656 L 534.824219 375.515625 L 527.074219 367.722656 C 521.238281 361.886719 512.460938 360.160156 504.835938 363.367188 C 504.773438 363.367188 504.671875 363.429688 504.566406 363.46875 C 496.984375 366.574219 491.988281 373.992188 491.988281 382.257812 L 491.988281 393.253906 L 439.367188 393.253906 L 439.367188 370.828125 C 439.367188 361.414062 435.789062 352.738281 429.789062 346.164062 L 429.851562 346.101562 C 436.203125 348.257812 442.945312 349.78125 449.890625 350.582031 C 453.363281 350.953125 456.839844 351.15625 460.414062 351.15625 C 467.628906 351.15625 474.679688 350.375 481.464844 348.792969 L 481.464844 348.730469 C 488.824219 347.109375 495.933594 344.578125 502.511719 341.269531 C 514.824219 335.207031 525.554688 326.53125 534.085938 315.945312 C 547.238281 299.6875 555.132812 278.96875 555.132812 256.4375 C 555.132812 236.871094 549.191406 218.660156 539.039062 203.550781 C 540.867188 203.714844 542.71875 203.820312 544.609375 203.820312 " fill-opacity="1" fill-rule="nonzero"/><path fill="rgb(70.588684%, 86.669922%, 49.798584%)" d="M 534.085938 256.4375 L 534.085938 315.945312 C 525.554688 326.53125 514.824219 335.207031 502.511719 341.269531 L 502.511719 256.4375 L 534.085938 256.4375 " fill-opacity="1" fill-rule="nonzero"/><path fill="rgb(70.588684%, 86.669922%, 49.798584%)" d="M 481.464844 224.867188 L 481.464844 348.792969 C 474.679688 350.375 467.628906 351.15625 460.414062 351.15625 C 456.839844 351.15625 453.363281 350.953125 449.890625 350.582031 L 449.890625 224.867188 L 481.464844 224.867188 " fill-opacity="1" fill-rule="nonzero"/><path fill="rgb(70.588684%, 86.669922%, 49.798584%)" d="M 402.53125 293.273438 L 428.84375 293.273438 L 428.84375 345.050781 C 423.785156 339.894531 417.207031 336.214844 409.746094 334.691406 L 406.480469 334.054688 L 397.269531 332.226562 L 397.269531 293.273438 L 402.53125 293.273438 " fill-opacity="1" fill-rule="nonzero"/><path fill="rgb(90.19928%, 91.369629%, 92.939758%)" d="M 334.125 361.679688 L 344.648438 393.253906 L 292.027344 393.253906 L 292.027344 370.828125 C 292.027344 353.253906 304.445312 338.167969 321.648438 334.691406 L 324.917969 334.054688 L 334.125 361.679688 " fill-opacity="1" fill-rule="nonzero"/><path fill="rgb(90.19928%, 91.369629%, 92.939758%)" d="M 439.367188 370.828125 L 439.367188 393.253906 L 386.746094 393.253906 L 406.480469 334.054688 L 409.746094 334.691406 C 417.207031 336.214844 423.785156 339.894531 428.84375 345.050781 C 429.152344 345.421875 429.519531 345.792969 429.789062 346.164062 C 435.789062 352.738281 439.367188 361.414062 439.367188 370.828125 " fill-opacity="1" fill-rule="nonzero"/><path fill="rgb(98.81897%, 84.309387%, 43.919373%)" d="M 370.960938 361.679688 L 381.484375 393.253906 L 349.910156 393.253906 L 360.433594 361.679688 L 370.960938 361.679688 " fill-opacity="1" fill-rule="nonzero"/><path fill="rgb(100%, 78.039551%, 16.079712%)" d="M 365.699219 340.632812 L 381.484375 351.15625 L 370.960938 361.679688 L 360.433594 361.679688 L 349.910156 351.15625 L 365.699219 340.632812 " fill-opacity="1" fill-rule="nonzero"/><path fill="rgb(100%, 50.979614%, 43.139648%)" d="M 360.433594 361.679688 L 349.910156 393.253906 L 344.648438 393.253906 L 334.125 361.679688 L 349.910156 351.15625 L 360.433594 361.679688 " fill-opacity="1" fill-rule="nonzero"/><path fill="rgb(100%, 50.979614%, 43.139648%)" d="M 397.269531 361.679688 L 386.746094 393.253906 L 381.484375 393.253906 L 370.960938 361.679688 L 381.484375 351.15625 L 397.269531 361.679688 " fill-opacity="1" fill-rule="nonzero"/><path fill="rgb(98.81897%, 43.139648%, 31.759644%)" d="M 406.480469 334.054688 L 397.269531 361.679688 L 365.699219 340.632812 L 388.265625 327.109375 L 388.328125 327.046875 C 390.488281 329.636719 393.527344 331.484375 397.066406 332.164062 L 397.269531 332.226562 L 406.480469 334.054688 " fill-opacity="1" fill-rule="nonzero"/><path fill="rgb(98.81897%, 43.139648%, 31.759644%)" d="M 365.699219 340.632812 L 334.125 361.679688 L 324.917969 334.054688 L 334.332031 332.164062 C 337.867188 331.484375 340.90625 329.636719 343.066406 327.046875 L 343.128906 327.109375 L 365.699219 340.632812 " fill-opacity="1" fill-rule="nonzero"/><path fill="rgb(39.608765%, 42.749023%, 47.059631%)" d="M 376.222656 240.652344 C 376.222656 243.550781 375.070312 246.183594 373.117188 248.074219 C 371.226562 250.027344 368.597656 251.175781 365.699219 251.175781 L 344.648438 251.175781 C 338.851562 251.175781 334.125 255.925781 334.125 261.703125 L 328.863281 261.703125 C 324.8125 261.703125 321.175781 263.222656 318.398438 265.75 L 318.339844 265.710938 C 318.339844 265.710938 317.023438 262.070312 315.707031 257.117188 C 314.390625 252.226562 313.078125 245.914062 313.078125 240.652344 C 313.078125 231.382812 319.386719 223.285156 328.390625 221.023438 L 334.125 219.605469 C 339.078125 212.183594 346.539062 206.964844 355.070312 204.867188 C 357.804688 204.1875 360.703125 203.820312 363.640625 203.820312 L 377.597656 203.820312 C 378.914062 203.820312 380.230469 203.878906 381.546875 204.023438 C 391.226562 204.929688 399.902344 209.285156 406.375 215.761719 C 413.734375 223.121094 418.320312 233.273438 418.320312 244.539062 C 418.320312 248.976562 417.640625 253.292969 416.222656 257.445312 L 413.363281 266.019531 C 410.589844 263.386719 406.746094 261.703125 402.53125 261.703125 L 397.269531 261.703125 C 396.960938 252.328125 390.488281 244.230469 381.320312 241.90625 L 376.222656 240.652344 " fill-opacity="1" fill-rule="nonzero"/><path fill="rgb(94.119263%, 81.568909%, 70.588684%)" d="M 365.699219 314.324219 C 366.910156 314.324219 368.0625 314.261719 382.59375 309.429688 L 384.691406 319.789062 C 385.265625 322.523438 386.480469 325.050781 388.328125 327.046875 L 388.265625 327.109375 L 365.699219 340.632812 L 343.128906 327.109375 L 343.066406 327.046875 C 344.917969 325.050781 346.128906 322.523438 346.703125 319.789062 L 348.800781 309.429688 C 353.691406 312.535156 359.488281 314.324219 365.699219 314.324219 " fill-opacity="1" fill-rule="nonzero"/><path fill="rgb(94.119263%, 81.568909%, 70.588684%)" d="M 395.480469 293.273438 C 396.632812 289.964844 397.269531 286.429688 397.269531 282.75 L 397.269531 262.339844 C 397.269531 262.132812 397.269531 261.90625 397.269531 261.703125 L 402.53125 261.703125 C 406.746094 261.703125 410.589844 263.386719 413.363281 266.019531 C 416.425781 268.917969 418.320312 272.964844 418.320312 277.488281 C 418.320312 281.867188 416.53125 285.8125 413.695312 288.648438 C 410.855469 291.484375 406.910156 293.273438 402.53125 293.273438 L 395.480469 293.273438 " fill-opacity="1" fill-rule="nonzero"/><path fill="rgb(94.119263%, 81.568909%, 70.588684%)" d="M 388 305.050781 L 382.59375 309.429688 C 368.0625 314.261719 366.910156 314.324219 365.699219 314.324219 C 359.488281 314.324219 353.691406 312.535156 348.800781 309.429688 C 342.902344 305.628906 338.277344 299.953125 335.914062 293.273438 C 334.761719 289.964844 334.125 286.429688 334.125 282.75 L 334.125 261.703125 C 334.125 255.925781 338.851562 251.175781 344.648438 251.175781 L 365.699219 251.175781 C 368.597656 251.175781 371.226562 250.027344 373.117188 248.074219 C 375.070312 246.183594 376.222656 243.550781 376.222656 240.652344 L 381.320312 241.90625 C 390.488281 244.230469 396.960938 252.328125 397.269531 261.703125 C 397.269531 261.90625 397.269531 262.132812 397.269531 262.339844 L 397.269531 282.75 C 397.269531 286.429688 396.632812 289.964844 395.480469 293.273438 C 393.898438 297.734375 391.328125 301.742188 388 305.050781 " fill-opacity="1" fill-rule="nonzero"/><path fill="rgb(94.119263%, 81.568909%, 70.588684%)" d="M 334.125 282.75 C 334.125 286.429688 334.761719 289.964844 335.914062 293.273438 L 328.863281 293.273438 C 324.484375 293.273438 320.539062 291.484375 317.703125 288.648438 C 314.863281 285.8125 313.078125 281.867188 313.078125 277.488281 C 313.078125 272.800781 315.132812 268.546875 318.398438 265.75 C 321.175781 263.222656 324.8125 261.703125 328.863281 261.703125 L 334.125 261.703125 L 334.125 282.75 " fill-opacity="1" fill-rule="nonzero"/><path fill="rgb(41.178894%, 83.918762%, 95.689392%)" d="M 607.753906 140.671875 C 607.753906 158.144531 600.703125 173.929688 589.273438 185.339844 C 582.820312 191.8125 574.96875 196.871094 566.191406 200.035156 C 559.449219 202.503906 552.195312 203.820312 544.609375 203.820312 C 542.71875 203.820312 540.867188 203.714844 539.039062 203.550781 C 523.765625 202.234375 510.136719 195.554688 499.941406 185.339844 C 494.25 179.625 489.625 172.820312 486.457031 165.359375 L 486.417969 165.359375 C 483.25 157.773438 481.464844 149.410156 481.464844 140.671875 C 481.464844 133.292969 482.71875 126.203125 485.039062 119.625 C 488.207031 110.683594 493.363281 102.625 499.941406 96.007812 C 511.351562 84.578125 527.136719 77.527344 544.609375 77.527344 C 562.082031 77.527344 577.867188 84.578125 589.273438 96.007812 C 600.703125 107.414062 607.753906 123.203125 607.753906 140.671875 " fill-opacity="1" fill-rule="nonzero"/><path fill="rgb(90.19928%, 91.369629%, 92.939758%)" d="M 552.027344 133.253906 C 553.980469 135.144531 555.132812 137.773438 555.132812 140.671875 C 555.132812 146.449219 550.40625 151.199219 544.609375 151.199219 C 538.8125 151.199219 534.085938 146.449219 534.085938 140.671875 C 534.085938 137.773438 535.234375 135.144531 537.1875 133.253906 C 539.078125 131.300781 541.710938 130.148438 544.609375 130.148438 C 547.507812 130.148438 550.136719 131.300781 552.027344 133.253906 " fill-opacity="1" fill-rule="nonzero"/><path fill="rgb(0%, 0%, 0%)" d="M 365.699219 298.535156 C 374.414062 298.535156 381.484375 291.464844 381.484375 282.75 L 370.960938 282.75 C 370.960938 285.648438 368.597656 288.011719 365.699219 288.011719 C 362.800781 288.011719 360.433594 285.648438 360.433594 282.75 L 349.910156 282.75 C 349.910156 291.464844 356.980469 298.535156 365.699219 298.535156 " fill-opacity="1" fill-rule="nonzero"/><path fill="rgb(0%, 0%, 0%)" d="M 544.609375 145.933594 C 541.710938 145.933594 539.347656 143.570312 539.347656 140.671875 C 539.347656 137.773438 541.710938 135.410156 544.609375 135.410156 C 547.507812 135.410156 549.871094 137.773438 549.871094 140.671875 C 549.871094 143.570312 547.507812 145.933594 544.609375 145.933594 Z M 560.394531 140.671875 C 560.394531 138.246094 559.800781 135.964844 558.8125 133.910156 L 574.640625 118.082031 L 567.199219 110.640625 L 551.371094 126.46875 C 549.316406 125.484375 547.035156 124.886719 544.609375 124.886719 C 542.183594 124.886719 539.902344 125.484375 537.847656 126.46875 L 527.28125 115.90625 L 519.839844 123.34375 L 530.40625 133.910156 C 529.417969 135.964844 528.824219 138.246094 528.824219 140.671875 C 528.824219 149.386719 535.894531 156.460938 544.609375 156.460938 C 553.324219 156.460938 560.394531 149.386719 560.394531 140.671875 " fill-opacity="1" fill-rule="nonzero"/><path fill="rgb(0%, 0%, 0%)" d="M 460.414062 145.933594 C 463.3125 145.933594 465.675781 143.570312 465.675781 140.671875 C 465.675781 137.773438 463.3125 135.410156 460.414062 135.410156 C 457.515625 135.410156 455.152344 137.773438 455.152344 140.671875 C 455.152344 143.570312 457.515625 145.933594 460.414062 145.933594 " fill-opacity="1" fill-rule="nonzero"/><path fill="rgb(0%, 0%, 0%)" d="M 378.566406 179.851562 C 379.902344 179.851562 381.257812 179.316406 382.285156 178.308594 C 384.320312 176.253906 384.320312 172.925781 382.285156 170.847656 C 381.257812 169.820312 379.902344 169.328125 378.566406 169.328125 C 377.207031 169.328125 375.851562 169.820312 374.824219 170.847656 C 372.789062 172.925781 372.789062 176.253906 374.824219 178.308594 C 375.851562 179.316406 377.207031 179.851562 378.566406 179.851562 " fill-opacity="1" fill-rule="nonzero"/><path fill="rgb(0%, 0%, 0%)" d="M 460.414062 366.945312 C 457.515625 366.945312 455.152344 369.308594 455.152344 372.207031 C 455.152344 375.105469 457.515625 377.46875 460.414062 377.46875 C 463.3125 377.46875 465.675781 375.105469 465.675781 372.207031 C 465.675781 369.308594 463.3125 366.945312 460.414062 366.945312 " fill-opacity="1" fill-rule="nonzero"/><path fill="rgb(0%, 0%, 0%)" d="M 542.265625 333.027344 C 540.929688 333.027344 539.574219 333.5625 538.546875 334.570312 C 536.511719 336.625 536.511719 339.953125 538.546875 342.03125 C 539.574219 343.058594 540.929688 343.550781 542.265625 343.550781 C 543.621094 343.550781 544.980469 343.058594 546.007812 342.03125 C 548.042969 339.953125 548.042969 336.625 546.007812 334.570312 C 544.980469 333.5625 543.621094 333.027344 542.265625 333.027344 " fill-opacity="1" fill-rule="nonzero"/><path fill="rgb(0%, 0%, 0%)" d="M 576.179688 251.175781 C 573.28125 251.175781 570.917969 253.542969 570.917969 256.4375 C 570.917969 259.335938 573.28125 261.703125 576.179688 261.703125 C 579.078125 261.703125 581.445312 259.335938 581.445312 256.4375 C 581.445312 253.542969 579.078125 251.175781 576.179688 251.175781 " fill-opacity="1" fill-rule="nonzero"/><g clip-path="url(#id1)"><path fill="rgb(0%, 0%, 0%)" d="M 591.96875 282.75 L 586.234375 282.75 C 575.832031 282.75 566.519531 288.976562 562.449219 298.84375 C 558.460938 308.464844 560.640625 319.441406 568 326.800781 L 572.050781 330.871094 L 534.824219 368.054688 L 530.773438 364.023438 C 523.417969 356.644531 512.441406 354.488281 502.574219 358.578125 C 492.953125 362.566406 486.726562 371.855469 486.726562 382.257812 L 486.726562 387.992188 L 444.628906 387.992188 L 444.628906 370.828125 C 444.628906 365.074219 443.417969 359.5625 441.277344 354.507812 C 447.546875 355.71875 453.941406 356.417969 460.414062 356.417969 C 515.542969 356.417969 560.394531 311.566406 560.394531 256.4375 C 560.394531 239.6875 556.222656 223.429688 548.328125 208.894531 C 552.5625 208.667969 556.695312 208.054688 560.703125 207.085938 C 560.96875 209.511719 561.566406 211.898438 562.554688 214.261719 C 566.519531 223.902344 575.832031 230.128906 586.234375 230.128906 L 591.96875 230.128906 Z M 297.289062 370.828125 C 297.289062 356.273438 307.382812 343.65625 321.421875 340.242188 L 337.351562 387.992188 L 297.289062 387.992188 Z M 335.359375 337.324219 C 338.484375 336.707031 341.320312 335.410156 343.765625 333.601562 L 355.851562 340.859375 L 336.941406 353.480469 L 331.800781 338.042969 Z M 365.699219 319.585938 C 370.324219 319.585938 374.722656 318.699219 378.792969 317.136719 L 379.53125 320.816406 C 379.839844 322.402344 380.375 323.878906 381.011719 325.320312 L 365.699219 334.507812 L 350.382812 325.320312 C 351.019531 323.878906 351.554688 322.402344 351.863281 320.816406 L 352.605469 317.136719 C 356.671875 318.699219 361.074219 319.585938 365.699219 319.585938 Z M 339.386719 282.75 L 339.386719 261.703125 C 339.386719 258.804688 341.75 256.4375 344.648438 256.4375 L 365.699219 256.4375 C 372.132812 256.4375 377.660156 252.574219 380.128906 247.046875 C 387.136719 248.835938 392.007812 255.125 392.007812 262.339844 L 392.007812 282.75 C 392.007812 297.261719 380.210938 309.058594 365.699219 309.058594 C 351.1875 309.058594 339.386719 297.261719 339.386719 282.75 Z M 328.863281 288.011719 C 323.066406 288.011719 318.339844 283.285156 318.339844 277.488281 C 318.339844 271.691406 323.066406 266.964844 328.863281 266.964844 L 328.863281 282.75 C 328.863281 284.539062 329.027344 286.285156 329.292969 288.011719 Z M 329.664062 226.140625 L 337.371094 224.210938 L 338.503906 222.523438 C 344.113281 214.117188 353.507812 209.082031 363.621094 209.082031 L 377.578125 209.082031 C 397.125 209.082031 413.054688 225.011719 413.054688 244.558594 C 413.054688 248.382812 412.441406 252.164062 411.226562 255.78125 L 410.488281 258.023438 C 408.019531 257.015625 405.347656 256.4375 402.53125 256.4375 L 401.773438 256.4375 C 399.59375 246.964844 392.355469 239.253906 382.59375 236.828125 L 380.910156 236.398438 C 379.039062 229.757812 372.933594 224.867188 365.699219 224.867188 L 360.433594 224.867188 L 360.433594 235.390625 L 365.699219 235.390625 C 368.597656 235.390625 370.960938 237.753906 370.960938 240.652344 C 370.960938 243.550781 368.597656 245.914062 365.699219 245.914062 L 344.648438 245.914062 C 337.804688 245.914062 332.007812 250.335938 329.828125 256.4375 L 328.863281 256.4375 C 326.210938 256.4375 323.703125 256.972656 321.378906 257.878906 C 319.984375 253.027344 318.339844 246.140625 318.339844 240.652344 C 318.339844 233.789062 323.003906 227.804688 329.664062 226.140625 Z M 352.828125 186.078125 L 348.78125 182.007812 L 386.007812 144.804688 L 390.054688 148.855469 C 397.414062 156.234375 408.371094 158.390625 418.257812 154.300781 C 427.875 150.335938 434.105469 141.023438 434.105469 130.621094 L 434.105469 124.886719 L 478.113281 124.886719 C 476.898438 129.964844 476.203125 135.226562 476.203125 140.671875 C 476.203125 146.738281 477.066406 152.574219 478.542969 158.164062 C 472.582031 157.054688 466.519531 156.460938 460.414062 156.460938 C 427.898438 156.460938 397.679688 172.183594 378.894531 198.617188 C 378.460938 198.617188 378.03125 198.554688 377.578125 198.554688 L 363.621094 198.554688 C 362.285156 198.554688 360.96875 198.660156 359.675781 198.78125 C 358.625 194.035156 356.324219 189.574219 352.828125 186.078125 Z M 539.347656 188.03125 L 539.347656 198.289062 C 527.34375 197.199219 516.367188 192.453125 507.589844 185.132812 L 514.84375 177.878906 L 507.402344 170.4375 L 500.148438 177.691406 C 492.832031 168.914062 488.082031 157.941406 486.992188 145.933594 L 497.25 145.933594 L 497.25 135.410156 L 486.992188 135.410156 C 488.082031 123.40625 492.832031 112.429688 500.148438 103.652344 L 507.402344 110.910156 L 514.84375 103.46875 L 507.589844 96.210938 C 516.367188 88.894531 527.34375 84.148438 539.347656 83.058594 L 539.347656 93.3125 L 549.871094 93.3125 L 549.871094 83.058594 C 561.875 84.148438 572.851562 88.894531 581.628906 96.210938 L 574.371094 103.46875 L 581.8125 110.910156 L 589.070312 103.652344 C 596.386719 112.429688 601.136719 123.40625 602.226562 135.410156 L 591.96875 135.410156 L 591.96875 145.933594 L 602.226562 145.933594 C 601.136719 157.941406 596.386719 168.914062 589.070312 177.691406 L 581.8125 170.4375 L 574.371094 177.878906 L 581.628906 185.132812 C 572.851562 192.453125 561.875 197.199219 549.871094 198.289062 L 549.871094 188.03125 Z M 364.21875 366.945312 L 367.175781 366.945312 L 374.1875 387.992188 L 357.207031 387.992188 Z M 349.234375 357.941406 L 354.414062 363.101562 L 347.28125 384.496094 L 340.394531 363.820312 Z M 373.21875 351.980469 L 368.78125 356.417969 L 362.613281 356.417969 L 358.175781 351.980469 L 365.699219 346.964844 Z M 387.628906 333.601562 C 390.074219 335.410156 392.914062 336.707031 396.035156 337.324219 L 399.59375 338.042969 L 394.453125 353.480469 L 375.542969 340.859375 Z M 392.007812 323.183594 C 390.980469 321.90625 390.179688 320.425781 389.851562 318.761719 L 388.429688 311.671875 C 389.683594 310.683594 390.878906 309.617188 392.007812 308.484375 Z M 382.160156 357.941406 L 391 363.820312 L 384.113281 384.496094 L 376.980469 363.101562 Z M 423.582031 334.425781 C 419.695312 332.164062 415.398438 330.480469 410.796875 329.554688 L 402.53125 327.910156 L 402.53125 298.535156 L 423.582031 298.535156 Z M 402.53125 282.75 L 402.53125 266.964844 C 408.328125 266.964844 413.054688 271.691406 413.054688 277.488281 C 413.054688 283.285156 408.328125 288.011719 402.53125 288.011719 L 402.101562 288.011719 C 402.367188 286.285156 402.53125 284.539062 402.53125 282.75 Z M 434.105469 387.992188 L 394.042969 387.992188 L 409.972656 340.242188 C 424.011719 343.65625 434.105469 356.273438 434.105469 370.828125 Z M 476.203125 344.414062 C 471.0625 345.339844 465.820312 345.894531 460.414062 345.894531 C 458.648438 345.894531 456.898438 345.773438 455.152344 345.691406 L 455.152344 230.128906 L 476.203125 230.128906 Z M 497.25 251.175781 L 497.25 337.859375 C 493.835938 339.421875 490.34375 340.816406 486.726562 341.929688 L 486.726562 219.605469 L 444.628906 219.605469 L 444.628906 344.457031 C 441.074219 343.839844 437.558594 342.957031 434.105469 341.886719 L 434.105469 288.011719 L 420.660156 288.011719 C 422.46875 284.90625 423.582031 281.332031 423.582031 277.488281 C 423.582031 272.738281 421.957031 268.421875 419.285156 264.886719 L 421.214844 259.113281 C 422.777344 254.40625 423.582031 249.511719 423.582031 244.558594 C 423.582031 223.734375 409.664062 206.140625 390.671875 200.488281 C 407.589844 179.398438 433.097656 166.984375 460.414062 166.984375 C 468.019531 166.984375 475.542969 167.992188 482.839844 169.863281 C 492.625 190.476562 512.378906 205.441406 535.871094 208.464844 C 545 222.789062 549.871094 239.316406 549.871094 256.4375 C 549.871094 271.628906 546.046875 285.914062 539.347656 298.453125 L 539.347656 251.175781 Z M 528.824219 313.953125 C 522.820312 321.085938 515.707031 327.230469 507.773438 332.183594 L 507.773438 261.703125 L 528.824219 261.703125 Z M 572.171875 210.003906 C 571.351562 207.992188 570.980469 205.875 571.042969 203.757812 C 595.667969 193.398438 613.015625 169.019531 613.015625 140.671875 C 613.015625 102.953125 582.328125 72.265625 544.609375 72.265625 C 516.203125 72.265625 491.804688 89.65625 481.484375 114.363281 L 423.582031 114.363281 L 423.582031 130.621094 C 423.582031 136.746094 419.902344 142.214844 413.980469 144.679688 C 408.289062 147.046875 401.8125 145.769531 397.496094 141.433594 L 386.007812 129.945312 L 333.898438 182.007812 L 345.410156 193.519531 C 347.484375 195.597656 348.84375 198.269531 349.4375 201.105469 C 342.160156 203.796875 335.707031 208.585938 330.960938 214.980469 L 327.117188 215.925781 C 315.75 218.78125 307.8125 228.9375 307.8125 240.652344 C 307.8125 249.121094 310.792969 259.523438 312.398438 264.539062 C 309.5625 268.113281 307.8125 272.574219 307.8125 277.488281 C 307.8125 289.101562 317.25 298.535156 328.863281 298.535156 L 332.460938 298.535156 C 334.925781 303.695312 338.523438 308.175781 342.964844 311.671875 L 341.546875 318.761719 C 340.722656 322.933594 337.476562 326.183594 333.300781 327.003906 L 320.601562 329.554688 C 300.988281 333.480469 286.765625 350.828125 286.765625 370.828125 L 286.765625 398.515625 L 497.25 398.515625 L 497.25 382.257812 C 497.25 376.132812 500.929688 370.664062 506.847656 368.199219 C 512.523438 365.832031 518.996094 367.109375 523.335938 371.445312 L 534.824219 382.957031 L 586.933594 330.871094 L 575.421875 319.359375 C 571.105469 315.042969 569.828125 308.566406 572.296875 302.625 C 574.621094 296.953125 580.105469 293.273438 586.234375 293.273438 L 602.492188 293.273438 L 602.492188 219.605469 L 586.234375 219.605469 C 580.105469 219.605469 574.621094 215.925781 572.171875 210.003906 " fill-opacity="1" fill-rule="nonzero"/></g><path fill="rgb(0%, 0%, 0%)" d="M 434.105469 198.554688 L 444.628906 198.554688 L 444.628906 188.03125 L 434.105469 188.03125 L 434.105469 198.554688 " fill-opacity="1" fill-rule="nonzero"/><path fill="rgb(0%, 0%, 0%)" d="M 455.152344 198.554688 L 465.675781 198.554688 L 465.675781 188.03125 L 455.152344 188.03125 L 455.152344 198.554688 " fill-opacity="1" fill-rule="nonzero"/><path fill="rgb(0%, 0%, 0%)" d="M 476.203125 198.554688 L 486.726562 198.554688 L 486.726562 188.03125 L 476.203125 188.03125 L 476.203125 198.554688 " fill-opacity="1" fill-rule="nonzero"/></svg>