<svg xmlns="http://www.w3.org/2000/svg" xmlns:xlink="http://www.w3.org/1999/xlink" width="1200" zoomAndPan="magnify" viewBox="0 0 900 470.999988" height="628" preserveAspectRatio="xMidYMid meet" version="1.0"><defs><clipPath id="id1"><path d="M 388 41.042969 L 513 41.042969 L 513 430.292969 L 388 430.292969 Z M 388 41.042969 " clip-rule="nonzero"/></clipPath><clipPath id="id2"><path d="M 311 41.042969 L 589 41.042969 L 589 430.292969 L 311 430.292969 Z M 311 41.042969 " clip-rule="nonzero"/></clipPath><clipPath id="id3"><path d="M 255.542969 177 L 644.792969 177 L 644.792969 294 L 255.542969 294 Z M 255.542969 177 " clip-rule="nonzero"/></clipPath><clipPath id="id4"><path d="M 255.542969 41.042969 L 644.792969 41.042969 L 644.792969 430.292969 L 255.542969 430.292969 Z M 255.542969 41.042969 " clip-rule="nonzero"/></clipPath></defs><path fill="rgb(0%, 0%, 0%)" d="M 594.113281 131.117188 L 300.0625 131.117188 C 295.9375 131.117188 292.605469 127.777344 292.605469 123.65625 C 292.605469 119.542969 295.941406 116.203125 300.0625 116.203125 L 594.109375 116.203125 C 598.226562 116.203125 601.5625 119.542969 601.5625 123.65625 C 601.566406 127.777344 598.226562 131.117188 594.113281 131.117188 Z M 594.113281 131.117188 " fill-opacity="1" fill-rule="nonzero"/><path fill="rgb(0%, 0%, 0%)" d="M 594.800781 355.160156 L 307.515625 355.160156 C 303.398438 355.160156 300.058594 351.820312 300.058594 347.703125 C 300.058594 343.582031 303.402344 340.238281 307.515625 340.238281 L 594.792969 340.238281 C 598.910156 340.238281 602.253906 343.582031 602.253906 347.703125 C 602.257812 351.820312 598.910156 355.160156 594.800781 355.160156 Z M 594.800781 355.160156 " fill-opacity="1" fill-rule="nonzero"/><g clip-path="url(#id1)"><path fill="rgb(0%, 0%, 0%)" d="M 450.125 430.382812 C 439.019531 430.382812 422.816406 422.847656 408.671875 386.960938 C 398.613281 361.429688 391.5 326.90625 388.105469 287.136719 C 387.929688 285.054688 388.628906 283 390.042969 281.460938 C 391.449219 279.921875 393.445312 279.050781 395.535156 279.050781 L 504.683594 279.050781 C 506.769531 279.050781 508.765625 279.921875 510.175781 281.460938 C 511.585938 283 512.292969 285.054688 512.109375 287.136719 C 508.71875 326.917969 501.609375 361.4375 491.558594 386.960938 C 477.4375 422.847656 461.234375 430.382812 450.125 430.382812 Z M 403.71875 293.964844 C 407.207031 328.507812 413.828125 359.351562 422.546875 381.496094 C 431.058594 403.082031 441.109375 415.46875 450.125 415.46875 C 459.144531 415.46875 469.1875 403.082031 477.691406 381.496094 C 486.402344 359.355469 493.019531 328.511719 496.503906 293.964844 Z M 504.703125 192.347656 C 504.699219 192.347656 504.691406 192.347656 504.6875 192.347656 L 395.539062 192.347656 C 393.449219 192.347656 391.457031 191.472656 390.050781 189.929688 C 388.632812 188.390625 387.933594 186.332031 388.109375 184.253906 C 391.5 144.464844 398.617188 109.933594 408.675781 84.398438 C 422.8125 48.507812 439.019531 40.972656 450.128906 40.972656 C 461.238281 40.972656 477.449219 48.507812 491.570312 84.398438 C 501.578125 109.8125 508.667969 144.140625 512.078125 183.707031 C 512.136719 184.089844 512.171875 184.480469 512.171875 184.882812 C 512.167969 189.007812 508.824219 192.347656 504.703125 192.347656 Z M 403.71875 177.425781 L 496.503906 177.425781 C 493.023438 142.867188 486.402344 112.011719 477.691406 89.867188 C 469.191406 68.277344 459.144531 55.894531 450.125 55.894531 C 441.109375 55.894531 431.058594 68.273438 422.546875 89.867188 C 413.828125 112.019531 407.207031 142.875 403.71875 177.425781 Z M 403.71875 177.425781 " fill-opacity="1" fill-rule="nonzero"/></g><g clip-path="url(#id2)"><path fill="rgb(0%, 0%, 0%)" d="M 450.125 430.382812 C 417.671875 430.382812 387.066406 416.199219 361.628906 389.359375 C 337.441406 363.855469 319.625 327.851562 311.457031 288 C 311.003906 285.800781 311.5625 283.523438 312.988281 281.789062 C 314.394531 280.046875 316.527344 279.046875 318.761719 279.046875 L 581.46875 279.046875 C 583.707031 279.046875 585.828125 280.046875 587.242188 281.789062 C 588.664062 283.523438 589.222656 285.804688 588.777344 288 C 580.609375 327.847656 562.792969 363.847656 538.609375 389.359375 C 513.167969 416.199219 482.566406 430.382812 450.125 430.382812 Z M 328.089844 293.964844 C 345.835938 365.957031 395.078125 415.46875 450.125 415.46875 C 505.15625 415.46875 554.390625 365.957031 572.140625 293.964844 Z M 581.480469 192.347656 C 581.476562 192.347656 581.472656 192.347656 581.46875 192.347656 L 318.761719 192.347656 C 316.523438 192.347656 314.394531 191.339844 312.988281 189.601562 C 311.566406 187.859375 311.007812 185.582031 311.457031 183.386719 C 319.625 143.519531 337.441406 107.515625 361.628906 82 C 387.0625 55.167969 417.664062 40.976562 450.125 40.976562 C 482.570312 40.976562 513.167969 55.167969 538.605469 82 C 562.679688 107.402344 580.441406 143.199219 588.664062 182.851562 C 588.847656 183.492188 588.945312 184.179688 588.945312 184.886719 C 588.949219 189.007812 585.605469 192.347656 581.480469 192.347656 Z M 328.089844 177.425781 L 572.140625 177.425781 C 554.394531 105.417969 505.160156 55.898438 450.125 55.898438 C 395.078125 55.898438 345.832031 105.417969 328.089844 177.425781 Z M 328.089844 177.425781 " fill-opacity="1" fill-rule="nonzero"/></g><path fill="rgb(0%, 0%, 0%)" d="M 320.863281 215.136719 L 326.390625 231.667969 L 326.503906 231.957031 C 327.320312 234.28125 327.835938 236.136719 328.058594 237.519531 C 328.203125 236.730469 328.398438 235.902344 328.632812 235.035156 C 328.867188 234.167969 329.210938 233.0625 329.648438 231.703125 L 335.285156 215.136719 L 348.957031 215.136719 L 333.25 252.570312 L 323.902344 252.570312 L 318.339844 235.628906 C 318.054688 234.667969 317.78125 233.699219 317.546875 232.722656 C 317.308594 231.742188 317.089844 230.773438 316.902344 229.8125 C 316.625 231.292969 316.144531 233.164062 315.449219 235.40625 L 315.378906 235.667969 L 309.855469 252.566406 L 300.511719 252.566406 L 284.871094 215.132812 L 298.476562 215.132812 L 304.070312 231.699219 C 304.488281 232.90625 304.824219 233.96875 305.074219 234.867188 C 305.320312 235.769531 305.523438 236.648438 305.664062 237.519531 C 305.890625 236.285156 306.375 234.570312 307.113281 232.371094 C 307.214844 232.070312 307.285156 231.851562 307.339844 231.703125 L 312.898438 215.136719 Z M 320.863281 215.136719 " fill-opacity="1" fill-rule="nonzero"/><path fill="rgb(0%, 0%, 0%)" d="M 381.90625 215.136719 L 387.433594 231.667969 L 387.539062 231.957031 C 388.359375 234.28125 388.875 236.136719 389.09375 237.519531 C 389.238281 236.730469 389.4375 235.902344 389.671875 235.035156 C 389.910156 234.167969 390.246094 233.0625 390.691406 231.703125 L 396.320312 215.136719 L 409.996094 215.136719 L 394.28125 252.570312 L 384.941406 252.570312 L 379.382812 235.628906 C 379.085938 234.667969 378.816406 233.699219 378.582031 232.722656 C 378.339844 231.742188 378.125 230.773438 377.933594 229.8125 C 377.664062 231.292969 377.183594 233.164062 376.488281 235.40625 L 376.414062 235.667969 L 370.890625 252.566406 L 361.550781 252.566406 L 345.902344 215.132812 L 359.515625 215.132812 L 365.105469 231.699219 C 365.527344 232.90625 365.863281 233.96875 366.109375 234.867188 C 366.359375 235.769531 366.558594 236.648438 366.707031 237.519531 C 366.925781 236.285156 367.410156 234.570312 368.148438 232.371094 C 368.246094 232.070312 368.320312 231.851562 368.371094 231.703125 L 373.929688 215.136719 Z M 381.90625 215.136719 " fill-opacity="1" fill-rule="nonzero"/><path fill="rgb(0%, 0%, 0%)" d="M 442.957031 215.136719 L 448.472656 231.667969 L 448.585938 231.957031 C 449.402344 234.28125 449.921875 236.136719 450.144531 237.519531 C 450.289062 236.730469 450.476562 235.902344 450.714844 235.035156 C 450.953125 234.167969 451.285156 233.0625 451.734375 231.703125 L 457.363281 215.136719 L 471.039062 215.136719 L 455.324219 252.570312 L 445.988281 252.570312 L 440.425781 235.628906 C 440.132812 234.667969 439.867188 233.699219 439.625 232.722656 C 439.390625 231.742188 439.171875 230.773438 438.976562 229.8125 C 438.707031 231.292969 438.226562 233.164062 437.539062 235.40625 L 437.457031 235.667969 L 431.9375 252.566406 L 422.597656 252.566406 L 406.957031 215.132812 L 420.554688 215.132812 L 426.148438 231.699219 C 426.574219 232.90625 426.90625 233.96875 427.152344 234.867188 C 427.402344 235.769531 427.601562 236.648438 427.75 237.519531 C 427.972656 236.285156 428.449219 234.570312 429.191406 232.371094 C 429.296875 232.070312 429.367188 231.851562 429.417969 231.703125 L 434.980469 215.136719 Z M 442.957031 215.136719 " fill-opacity="1" fill-rule="nonzero"/><path fill="rgb(0%, 0%, 0%)" d="M 468.476562 246.488281 C 468.476562 244.390625 469.1875 242.625 470.597656 241.1875 C 472.023438 239.761719 473.785156 239.042969 475.886719 239.042969 C 478.03125 239.042969 479.828125 239.761719 481.261719 241.1875 C 482.695312 242.625 483.40625 244.390625 483.40625 246.488281 C 483.40625 248.589844 482.691406 250.367188 481.238281 251.828125 C 479.800781 253.289062 478.011719 254.015625 475.886719 254.015625 C 473.804688 254.015625 472.054688 253.289062 470.621094 251.828125 C 469.191406 250.367188 468.476562 248.589844 468.476562 246.488281 Z M 468.476562 246.488281 " fill-opacity="1" fill-rule="nonzero"/><path fill="rgb(0%, 0%, 0%)" d="M 600.882812 255.902344 L 503.921875 255.902344 C 499.800781 255.902344 496.460938 252.5625 496.460938 248.445312 C 496.460938 244.324219 499.804688 240.988281 503.921875 240.988281 L 600.882812 240.988281 C 605 240.988281 608.339844 244.324219 608.339844 248.445312 C 608.339844 252.5625 604.996094 255.902344 600.882812 255.902344 Z M 600.882812 255.902344 " fill-opacity="1" fill-rule="nonzero"/><g clip-path="url(#id3)"><path fill="rgb(0%, 0%, 0%)" d="M 630.398438 293.964844 L 269.855469 293.964844 C 266.519531 293.964844 263.582031 291.738281 262.679688 288.519531 C 258.707031 274.402344 256.335938 259.816406 255.636719 245.175781 C 255.632812 245.054688 255.632812 244.9375 255.632812 244.816406 L 255.632812 226.570312 C 255.632812 226.449219 255.632812 226.332031 255.640625 226.214844 C 256.335938 211.542969 258.707031 196.960938 262.6875 182.863281 C 263.589844 179.648438 266.523438 177.425781 269.859375 177.425781 L 630.402344 177.425781 C 633.746094 177.425781 636.683594 179.652344 637.585938 182.871094 C 642.386719 199.996094 644.820312 217.765625 644.820312 235.691406 C 644.820312 253.589844 642.386719 271.355469 637.585938 288.511719 C 636.675781 291.734375 633.738281 293.964844 630.398438 293.964844 Z M 275.605469 279.046875 L 624.644531 279.046875 C 628.128906 264.902344 629.894531 250.347656 629.894531 235.695312 C 629.894531 221.023438 628.128906 206.464844 624.648438 192.347656 L 275.605469 192.347656 C 272.808594 203.597656 271.113281 215.144531 270.550781 226.75 L 270.550781 244.636719 C 271.113281 256.222656 272.808594 267.773438 275.605469 279.046875 Z M 275.605469 279.046875 " fill-opacity="1" fill-rule="nonzero"/></g><g clip-path="url(#id4)"><path fill="rgb(0%, 0%, 0%)" d="M 450.125 430.382812 C 398.117188 430.382812 349.222656 410.132812 312.445312 373.363281 C 275.671875 336.597656 255.414062 287.703125 255.414062 235.695312 C 255.414062 128.328125 342.757812 40.976562 450.125 40.976562 C 557.46875 40.976562 644.8125 128.328125 644.8125 235.695312 C 644.8125 287.703125 624.5625 336.59375 587.796875 373.363281 C 551.027344 410.132812 502.132812 430.382812 450.125 430.382812 Z M 450.125 55.898438 C 350.984375 55.898438 270.332031 136.554688 270.332031 235.695312 C 270.332031 334.820312 350.984375 415.46875 450.125 415.46875 C 549.25 415.46875 629.894531 334.820312 629.894531 235.695312 C 629.894531 136.554688 549.25 55.898438 450.125 55.898438 Z M 450.125 55.898438 " fill-opacity="1" fill-rule="nonzero"/></g></svg>